SplineFontDB: 3.2
FontName: kids-team
FullName: kids-team
FamilyName: kids-team
Weight: Regular
Copyright: Copyright 2019 The Bebas Neue Project Authors (https://github.com/dharmatype/Bebas-Neue)
Version: 2.000
ItalicAngle: 0
UnderlinePosition: -80
UnderlineWidth: 80
Ascent: 800
Descent: 200
InvalidEm: 0
sfntRevision: 0x00020000
LayerCount: 2
Layer: 0 1 "Hinten" 1
Layer: 1 1 "Vorne" 0
XUID: [1021 170 -361210747 5246]
StyleMap: 0x0040
FSType: 0
OS2Version: 3
OS2_WeightWidthSlopeOnly: 0
OS2_UseTypoMetrics: 0
CreationTime: 1517881382
ModificationTime: 1652711461
PfmFamily: 17
TTFWeight: 400
TTFWidth: 5
LineGap: 0
VLineGap: 0
Panose: 2 11 6 6 2 2 2 5 2 1
OS2TypoAscent: 900
OS2TypoAOffset: 0
OS2TypoDescent: -300
OS2TypoDOffset: 0
OS2TypoLinegap: 0
OS2WinAscent: 950
OS2WinAOffset: 0
OS2WinDescent: 350
OS2WinDOffset: 0
HheadAscent: 900
HheadAOffset: 0
HheadDescent: -300
HheadDOffset: 0
OS2SubXSize: 650
OS2SubYSize: 600
OS2SubXOff: 0
OS2SubYOff: 75
OS2SupXSize: 650
OS2SupYSize: 600
OS2SupXOff: 0
OS2SupYOff: 350
OS2StrikeYSize: 80
OS2StrikeYPos: 420
OS2CapHeight: 700
OS2XHeight: 700
OS2Vendor: 'DHRM'
OS2CodePages: 20000093.00000000
OS2UnicodeRanges: 00000007.00000001.00000000.00000000
Lookup: 4 0 1 "'liga' Standard-Ligaturen" { "'liga' Standard-Ligaturen-1"  } ['liga' ('DFLT' <'dflt' > 'grek' <'dflt' > 'latn' <'AZE ' 'CAT ' 'CRT ' 'KAZ ' 'MOL ' 'NLD ' 'ROM ' 'TAT ' 'TRK ' 'dflt' > ) ]
Lookup: 1 0 0 "'aalt' Zugriff auf alle Alternativen in Lateinisch Nachschlagetabelle 0" { "'aalt' Zugriff auf alle Alternativen in Lateinisch Nachschlagetabelle 0 Subtabelle"  } ['aalt' ('DFLT' <'dflt' > 'latn' <'AZE ' 'CAT ' 'CRT ' 'KAZ ' 'MOL ' 'NLD ' 'ROM ' 'TAT ' 'TRK ' 'dflt' > ) ]
Lookup: 3 0 0 "'aalt' Zugriff auf alle Alternativen in Lateinisch Nachschlagetabelle 1" { "'aalt' Zugriff auf alle Alternativen in Lateinisch Nachschlagetabelle 1 Subtabelle"  } ['aalt' ('DFLT' <'dflt' > 'latn' <'AZE ' 'CAT ' 'CRT ' 'KAZ ' 'MOL ' 'NLD ' 'ROM ' 'TAT ' 'TRK ' 'dflt' > ) ]

StartChar: .notdef
Encoding: 256 -1 0
Width: 738
Flags: W
LayerCount: 2
Fore
SplineSet
54 700 m 1,0,-1
 684 700 l 1,1,-1
 684 0 l 1,2,-1
 54 0 l 1,3,-1
 54 700 l 1,0,-1
601 650 m 1,4,-1
 137 650 l 1,5,-1
 369 387 l 1,6,-1
 601 650 l 1,4,-1
336 350 m 1,7,-1
 104 613 l 1,8,-1
 104 87 l 1,9,-1
 336 350 l 1,7,-1
634 613 m 1,10,-1
 402 350 l 1,11,-1
 634 87 l 1,12,-1
 634 613 l 1,10,-1
601 50 m 1,13,-1
 369 313 l 1,14,-1
 137 50 l 1,15,-1
 601 50 l 1,13,-1
EndSplineSet
Validated: 1
EndChar

StartChar: A
Encoding: 65 65 4
Width: 401
GlyphClass: 2
Flags: W
AnchorPoint: "Anker-4" 201 700 basechar 0
AnchorPoint: "Anker-3" 389 0 basechar 0
AnchorPoint: "Anker-2" 201 0 basechar 0
LayerCount: 2
Fore
SplineSet
126 700 m 1,0,-1
 275 700 l 1,1,-1
 389 0 l 1,2,-1
 279 0 l 1,3,-1
 259 139 l 1,4,-1
 259 137 l 1,5,-1
 134 137 l 1,6,-1
 114 0 l 1,7,-1
 12 0 l 1,8,-1
 126 700 l 1,0,-1
246 232 m 1,9,-1
 197 578 l 1,10,-1
 195 578 l 1,11,-1
 147 232 l 1,12,-1
 246 232 l 1,9,-1
EndSplineSet
Validated: 1048577
Substitution2: "Einzelne Substitution Nachschlagetabelle 27 Subtabelle" ordfeminine
Substitution2: "'aalt' Zugriff auf alle Alternativen in Lateinisch Nachschlagetabelle 0 Subtabelle" ordfeminine
EndChar

StartChar: Aogonek
Encoding: 260 260 11
Width: 401
GlyphClass: 2
Flags: W
AnchorPoint: "Anker-4" 201 700 basechar 0
AnchorPoint: "Anker-3" 389 0 basechar 0
AnchorPoint: "Anker-2" 201 0 basechar 0
LayerCount: 2
Fore
SplineSet
328 -78.5 m 128,-1,1
 338 -86 338 -86 353 -86 c 0,2,3
 369 -86 369 -86 377.5 -83.5 c 128,-1,4
 386 -81 386 -81 389 -80 c 1,5,-1
 389 -136 l 1,6,7
 372 -143 372 -143 357.5 -145 c 128,-1,8
 343 -147 343 -147 321 -147 c 0,9,10
 280 -147 280 -147 256.5 -131 c 128,-1,11
 233 -115 233 -115 233 -85 c 0,12,13
 233 -34 233 -34 301 0 c 1,14,-1
 279 0 l 1,15,-1
 259 139 l 1,16,-1
 259 137 l 1,17,-1
 134 137 l 1,18,-1
 114 0 l 1,19,-1
 12 0 l 1,20,-1
 126 700 l 1,21,-1
 275 700 l 1,22,-1
 389 0 l 1,23,-1
 348 0 l 1,24,25
 318 -25 318 -25 318 -58 c 0,26,0
 318 -71 318 -71 328 -78.5 c 128,-1,1
246 232 m 1,27,-1
 197 578 l 1,28,-1
 195 578 l 1,29,-1
 147 232 l 1,30,-1
 246 232 l 1,27,-1
EndSplineSet
Validated: 1048577
EndChar

StartChar: AE
Encoding: 198 198 14
Width: 580
GlyphClass: 2
Flags: W
AnchorPoint: "Anker-4" 288 700 basechar 0
AnchorPoint: "Anker-2" 288 0 basechar 0
LayerCount: 2
Fore
SplineSet
197 700 m 1,0,-1
 558 700 l 1,1,-1
 558 600 l 1,2,-1
 368 600 l 1,3,-1
 368 415 l 1,4,-1
 519 415 l 1,5,-1
 519 315 l 1,6,-1
 368 315 l 1,7,-1
 368 100 l 1,8,-1
 558 100 l 1,9,-1
 558 0 l 1,10,-1
 258 0 l 1,11,-1
 258 137 l 1,12,-1
 150 137 l 1,13,-1
 115 0 l 1,14,-1
 10 0 l 1,15,-1
 197 700 l 1,0,-1
258 232 m 1,16,-1
 258 565 l 1,17,-1
 256 565 l 1,18,-1
 174 232 l 1,19,-1
 258 232 l 1,16,-1
EndSplineSet
Validated: 1048577
EndChar

StartChar: B
Encoding: 66 66 16
Width: 404
GlyphClass: 2
Flags: W
AnchorPoint: "Anker-4" 191 700 basechar 0
AnchorPoint: "Anker-2" 202 0 basechar 0
LayerCount: 2
Fore
SplineSet
41 700 m 1,0,-1
 207 700 l 2,1,2
 292 700 292 700 331 660.5 c 128,-1,3
 370 621 370 621 370 539 c 2,4,-1
 370 511 l 2,5,6
 370 457 370 457 352.5 423 c 128,-1,7
 335 389 335 389 299 374 c 1,8,-1
 299 372 l 1,9,10
 381 344 381 344 381 226 c 2,11,-1
 381 166 l 2,12,13
 381 85 381 85 338.5 42.5 c 128,-1,14
 296 0 296 0 214 0 c 2,15,-1
 41 0 l 1,16,-1
 41 700 l 1,0,-1
194 415 m 2,17,18
 227 415 227 415 243.5 432 c 128,-1,19
 260 449 260 449 260 489 c 2,20,-1
 260 528 l 2,21,22
 260 566 260 566 246.5 583 c 128,-1,23
 233 600 233 600 204 600 c 2,24,-1
 151 600 l 1,25,-1
 151 415 l 1,26,-1
 194 415 l 2,17,18
214 100 m 2,27,28
 243 100 243 100 257 115.5 c 128,-1,29
 271 131 271 131 271 169 c 2,30,-1
 271 230 l 2,31,32
 271 278 271 278 254.5 296.5 c 128,-1,33
 238 315 238 315 200 315 c 2,34,-1
 151 315 l 1,35,-1
 151 100 l 1,36,-1
 214 100 l 2,27,28
EndSplineSet
Validated: 1048577
EndChar

StartChar: C
Encoding: 67 67 18
Width: 383
GlyphClass: 2
Flags: W
AnchorPoint: "Anker-4" 193 700 basechar 0
AnchorPoint: "Anker-2" 197 0 basechar 0
LayerCount: 2
Fore
SplineSet
75.5 35 m 128,-1,1
 34 80 34 80 34 162 c 2,2,-1
 34 538 l 2,3,4
 34 620 34 620 75.5 665 c 128,-1,5
 117 710 117 710 196 710 c 256,6,7
 275 710 275 710 316.5 665 c 128,-1,8
 358 620 358 620 358 538 c 2,9,-1
 358 464 l 1,10,-1
 254 464 l 1,11,-1
 254 545 l 2,12,13
 254 610 254 610 199 610 c 256,14,15
 144 610 144 610 144 545 c 2,16,-1
 144 154 l 2,17,18
 144 90 144 90 199 90 c 256,19,20
 254 90 254 90 254 154 c 2,21,-1
 254 261 l 1,22,-1
 358 261 l 1,23,-1
 358 162 l 2,24,25
 358 80 358 80 316.5 35 c 128,-1,26
 275 -10 275 -10 196 -10 c 256,27,0
 117 -10 117 -10 75.5 35 c 128,-1,1
EndSplineSet
Validated: 1048577
EndChar

StartChar: Ccedilla
Encoding: 199 199 21
Width: 383
GlyphClass: 2
Flags: W
AnchorPoint: "Anker-2" 197 -147 basechar 0
LayerCount: 2
Fore
SplineSet
254 464 m 1,0,-1
 254 545 l 2,1,2
 254 610 254 610 199 610 c 256,3,4
 144 610 144 610 144 545 c 2,5,-1
 144 154 l 2,6,7
 144 90 144 90 199 90 c 256,8,9
 254 90 254 90 254 154 c 2,10,-1
 254 261 l 1,11,-1
 358 261 l 1,12,-1
 358 162 l 2,13,14
 358 87 358 87 323 42.5 c 128,-1,15
 288 -2 288 -2 222 -9 c 1,16,-1
 222 -39 l 1,17,18
 256 -39 256 -39 273.5 -50 c 128,-1,19
 291 -61 291 -61 291 -86 c 0,20,21
 291 -123 291 -123 266 -135 c 128,-1,22
 241 -147 241 -147 189 -147 c 0,23,24
 143 -147 143 -147 118 -134 c 128,-1,25
 93 -121 93 -121 93 -89 c 2,26,-1
 93 -79 l 1,27,-1
 167 -79 l 1,28,-1
 167 -87 l 2,29,30
 167 -97 167 -97 173.5 -102 c 128,-1,31
 180 -107 180 -107 189 -107 c 0,32,33
 203 -107 203 -107 209 -101.5 c 128,-1,34
 215 -96 215 -96 215 -83 c 0,35,36
 215 -69 215 -69 206 -63 c 128,-1,37
 197 -57 197 -57 178 -57 c 2,38,-1
 173 -57 l 1,39,-1
 173 -9 l 1,40,41
 105 -2 105 -2 69.5 42 c 128,-1,42
 34 86 34 86 34 162 c 2,43,-1
 34 538 l 2,44,45
 34 620 34 620 75.5 665 c 128,-1,46
 117 710 117 710 196 710 c 256,47,48
 275 710 275 710 316.5 665 c 128,-1,49
 358 620 358 620 358 538 c 2,50,-1
 358 464 l 1,51,-1
 254 464 l 1,0,-1
EndSplineSet
Validated: 1048577
EndChar

StartChar: D
Encoding: 68 68 24
Width: 406
GlyphClass: 2
Flags: W
AnchorPoint: "Anker-5" 101 360 basechar 0
AnchorPoint: "Anker-4" 195 700 basechar 0
AnchorPoint: "Anker-2" 204 0 basechar 0
LayerCount: 2
Fore
SplineSet
41 700 m 1,0,-1
 209 700 l 2,1,2
 291 700 291 700 332 656 c 128,-1,3
 373 612 373 612 373 527 c 2,4,-1
 373 173 l 2,5,6
 373 88 373 88 332 44 c 128,-1,7
 291 0 291 0 209 0 c 2,8,-1
 41 0 l 1,9,-1
 41 700 l 1,0,-1
207 100 m 2,10,11
 234 100 234 100 248.5 116 c 128,-1,12
 263 132 263 132 263 168 c 2,13,-1
 263 532 l 2,14,15
 263 568 263 568 248.5 584 c 128,-1,16
 234 600 234 600 207 600 c 2,17,-1
 151 600 l 1,18,-1
 151 100 l 1,19,-1
 207 100 l 2,10,11
EndSplineSet
Validated: 1048577
EndChar

StartChar: Eth
Encoding: 208 208 25
Width: 423
GlyphClass: 2
Flags: W
AnchorPoint: "Anker-5" 118 360 basechar 0
AnchorPoint: "Anker-4" 212 700 basechar 0
AnchorPoint: "Anker-2" 221 0 basechar 0
LayerCount: 2
Fore
SplineSet
349 656 m 128,-1,1
 390 612 390 612 390 527 c 2,2,-1
 390 173 l 2,3,4
 390 88 390 88 349 44 c 128,-1,5
 308 0 308 0 226 0 c 2,6,-1
 58 0 l 1,7,-1
 58 318 l 1,8,-1
 10 318 l 1,9,-1
 10 412 l 1,10,-1
 58 412 l 1,11,-1
 58 700 l 1,12,-1
 226 700 l 2,13,0
 308 700 308 700 349 656 c 128,-1,1
280 532 m 2,14,15
 280 568 280 568 265.5 584 c 128,-1,16
 251 600 251 600 224 600 c 2,17,-1
 168 600 l 1,18,-1
 168 412 l 1,19,-1
 224 412 l 1,20,-1
 224 318 l 1,21,-1
 168 318 l 1,22,-1
 168 100 l 1,23,-1
 224 100 l 2,24,25
 251 100 251 100 265.5 116 c 128,-1,26
 280 132 280 132 280 168 c 2,27,-1
 280 532 l 2,14,15
EndSplineSet
Validated: 1048577
EndChar

StartChar: E
Encoding: 69 69 29
Width: 363
GlyphClass: 2
Flags: W
AnchorPoint: "Anker-4" 191 700 basechar 0
AnchorPoint: "Anker-3" 341 0 basechar 0
AnchorPoint: "Anker-2" 180 0 basechar 0
LayerCount: 2
Fore
SplineSet
41 700 m 1,0,-1
 341 700 l 1,1,-1
 341 600 l 1,2,-1
 151 600 l 1,3,-1
 151 415 l 1,4,-1
 302 415 l 1,5,-1
 302 315 l 1,6,-1
 151 315 l 1,7,-1
 151 100 l 1,8,-1
 341 100 l 1,9,-1
 341 0 l 1,10,-1
 41 0 l 1,11,-1
 41 700 l 1,0,-1
EndSplineSet
Validated: 1048577
EndChar

StartChar: Eogonek
Encoding: 274 280 38
Width: 363
GlyphClass: 2
Flags: W
AnchorPoint: "Anker-4" 191 700 basechar 0
AnchorPoint: "Anker-3" 341 0 basechar 0
AnchorPoint: "Anker-2" 180 0 basechar 0
LayerCount: 2
Fore
SplineSet
151 600 m 1,0,-1
 151 415 l 1,1,-1
 302 415 l 1,2,-1
 302 315 l 1,3,-1
 151 315 l 1,4,-1
 151 100 l 1,5,-1
 341 100 l 1,6,-1
 341 0 l 1,7,-1
 300 0 l 1,8,9
 270 -25 270 -25 270 -58 c 0,10,11
 270 -71 270 -71 280 -78.5 c 128,-1,12
 290 -86 290 -86 305 -86 c 0,13,14
 321 -86 321 -86 329.5 -83.5 c 128,-1,15
 338 -81 338 -81 341 -80 c 1,16,-1
 341 -136 l 1,17,18
 324 -143 324 -143 309.5 -145 c 128,-1,19
 295 -147 295 -147 273 -147 c 0,20,21
 232 -147 232 -147 208.5 -131 c 128,-1,22
 185 -115 185 -115 185 -85 c 0,23,24
 185 -34 185 -34 253 0 c 1,25,-1
 41 0 l 1,26,-1
 41 700 l 1,27,-1
 341 700 l 1,28,-1
 341 600 l 1,29,-1
 151 600 l 1,0,-1
EndSplineSet
Validated: 1048577
EndChar

StartChar: F
Encoding: 70 70 39
Width: 344
GlyphClass: 2
Flags: W
AnchorPoint: "Anker-4" 183 700 basechar 0
AnchorPoint: "Anker-2" 172 0 basechar 0
LayerCount: 2
Fore
SplineSet
41 700 m 1,0,-1
 332 700 l 1,1,-1
 332 600 l 1,2,-1
 151 600 l 1,3,-1
 151 405 l 1,4,-1
 293 405 l 1,5,-1
 293 305 l 1,6,-1
 151 305 l 1,7,-1
 151 0 l 1,8,-1
 41 0 l 1,9,-1
 41 700 l 1,0,-1
EndSplineSet
Validated: 1048577
EndChar

StartChar: G
Encoding: 71 71 41
Width: 391
GlyphClass: 2
Flags: W
AnchorPoint: "Anker-4" 197 700 basechar 0
AnchorPoint: "Anker-2" 196 0 basechar 0
LayerCount: 2
Fore
SplineSet
75 35.5 m 128,-1,1
 33 81 33 81 33 166 c 2,2,-1
 33 534 l 2,3,4
 33 619 33 619 75 664.5 c 128,-1,5
 117 710 117 710 197 710 c 256,6,7
 277 710 277 710 319 664.5 c 128,-1,8
 361 619 361 619 361 534 c 2,9,-1
 361 474 l 1,10,-1
 257 474 l 1,11,-1
 257 541 l 2,12,13
 257 610 257 610 200 610 c 256,14,15
 143 610 143 610 143 541 c 2,16,-1
 143 158 l 2,17,18
 143 90 143 90 200 90 c 256,19,20
 257 90 257 90 257 158 c 2,21,-1
 257 295 l 1,22,-1
 202 295 l 1,23,-1
 202 395 l 1,24,-1
 361 395 l 1,25,-1
 361 166 l 2,26,27
 361 81 361 81 319 35.5 c 128,-1,28
 277 -10 277 -10 197 -10 c 256,29,0
 117 -10 117 -10 75 35.5 c 128,-1,1
EndSplineSet
Validated: 1048577
EndChar

StartChar: H
Encoding: 72 72 46
Width: 420
GlyphClass: 2
Flags: W
AnchorPoint: "Anker-5" 210 542 basechar 0
AnchorPoint: "Anker-4" 210 700 basechar 0
AnchorPoint: "Anker-2" 210 0 basechar 0
LayerCount: 2
Fore
SplineSet
41 700 m 1,0,-1
 151 700 l 1,1,-1
 151 415 l 1,2,-1
 269 415 l 1,3,-1
 269 700 l 1,4,-1
 379 700 l 1,5,-1
 379 0 l 1,6,-1
 269 0 l 1,7,-1
 269 315 l 1,8,-1
 151 315 l 1,9,-1
 151 0 l 1,10,-1
 41 0 l 1,11,-1
 41 700 l 1,0,-1
EndSplineSet
Validated: 1048577
EndChar

StartChar: Hbar
Encoding: 280 294 47
Width: 438
GlyphClass: 2
Flags: W
AnchorPoint: "Anker-5" 219 542 basechar 0
AnchorPoint: "Anker-4" 219 700 basechar 0
AnchorPoint: "Anker-2" 219 0 basechar 0
LayerCount: 2
Fore
SplineSet
428 513 m 1,0,-1
 388 513 l 1,1,-1
 388 0 l 1,2,-1
 278 0 l 1,3,-1
 278 315 l 1,4,-1
 160 315 l 1,5,-1
 160 0 l 1,6,-1
 50 0 l 1,7,-1
 50 513 l 1,8,-1
 10 513 l 1,9,-1
 10 603 l 1,10,-1
 50 603 l 1,11,-1
 50 700 l 1,12,-1
 160 700 l 1,13,-1
 160 603 l 1,14,-1
 278 603 l 1,15,-1
 278 700 l 1,16,-1
 388 700 l 1,17,-1
 388 603 l 1,18,-1
 428 603 l 1,19,-1
 428 513 l 1,0,-1
278 513 m 1,20,-1
 160 513 l 1,21,-1
 160 415 l 1,22,-1
 278 415 l 1,23,-1
 278 513 l 1,20,-1
EndSplineSet
Validated: 1048577
EndChar

StartChar: I
Encoding: 73 73 49
Width: 192
GlyphClass: 2
Flags: W
AnchorPoint: "Anker-4" 96 700 basechar 0
AnchorPoint: "Anker-3" 173 0 basechar 0
AnchorPoint: "Anker-2" 96 0 basechar 0
LayerCount: 2
Fore
SplineSet
41 700 m 1,0,-1
 151 700 l 1,1,-1
 151 0 l 1,2,-1
 41 0 l 1,3,-1
 41 700 l 1,0,-1
EndSplineSet
Validated: 1048577
EndChar

StartChar: Iogonek
Encoding: 286 302 58
Width: 192
GlyphClass: 2
Flags: W
AnchorPoint: "Anker-4" 96 700 basechar 0
AnchorPoint: "Anker-3" 173 0 basechar 0
AnchorPoint: "Anker-2" 96 0 basechar 0
LayerCount: 2
Fore
SplineSet
161.5 -83.5 m 128,-1,1
 170 -81 170 -81 173 -80 c 1,2,-1
 173 -136 l 1,3,4
 156 -143 156 -143 141.5 -145 c 128,-1,5
 127 -147 127 -147 105 -147 c 0,6,7
 64 -147 64 -147 40.5 -131 c 128,-1,8
 17 -115 17 -115 17 -85 c 0,9,10
 17 -34 17 -34 85 0 c 1,11,-1
 41 0 l 1,12,-1
 41 700 l 1,13,-1
 151 700 l 1,14,-1
 151 0 l 1,15,-1
 132 0 l 1,16,17
 102 -25 102 -25 102 -58 c 0,18,19
 102 -71 102 -71 112 -78.5 c 128,-1,20
 122 -86 122 -86 137 -86 c 0,21,0
 153 -86 153 -86 161.5 -83.5 c 128,-1,1
EndSplineSet
Validated: 1048577
EndChar

StartChar: J
Encoding: 74 74 60
Width: 265
GlyphClass: 2
Flags: W
AnchorPoint: "Anker-4" 157 700 basechar 0
AnchorPoint: "Anker-2" 135 0 basechar 0
LayerCount: 2
Fore
SplineSet
16 0 m 1,1,-1
 16 100 l 1,2,3
 32 96 32 96 52 96 c 0,4,5
 85 96 85 96 101 112.5 c 128,-1,6
 117 129 117 129 117 163 c 2,7,-1
 117 700 l 1,8,-1
 227 700 l 1,9,-1
 227 166 l 2,10,11
 227 80 227 80 187.5 38 c 128,-1,12
 148 -4 148 -4 67 -4 c 0,13,0
 37 -4 37 -4 16 0 c 1,1,-1
EndSplineSet
Validated: 1048577
Substitution2: "Einzelne Substitution Nachschlagetabelle 24 Subtabelle" uni00A40301
Substitution2: "'aalt' Zugriff auf alle Alternativen in Lateinisch Nachschlagetabelle 0 Subtabelle" uni00A40301
EndChar

StartChar: K
Encoding: 75 75 63
Width: 414
GlyphClass: 2
Flags: W
AnchorPoint: "Anker-4" 207 700 basechar 0
AnchorPoint: "Anker-2" 217 0 basechar 0
LayerCount: 2
Fore
SplineSet
41 700 m 1,0,-1
 151 700 l 1,1,-1
 151 405 l 1,2,-1
 291 700 l 1,3,-1
 401 700 l 1,4,-1
 270 443 l 1,5,-1
 403 0 l 1,6,-1
 288 0 l 1,7,-1
 195 312 l 1,8,-1
 151 223 l 1,9,-1
 151 0 l 1,10,-1
 41 0 l 1,11,-1
 41 700 l 1,0,-1
EndSplineSet
Validated: 1048577
EndChar

StartChar: L
Encoding: 76 76 65
Width: 344
GlyphClass: 2
Flags: W
AnchorPoint: "Anker-5" 172 350 basechar 0
AnchorPoint: "Anker-4" 106 700 basechar 0
AnchorPoint: "Anker-2" 187 0 basechar 0
LayerCount: 2
Fore
SplineSet
41 700 m 1,0,-1
 151 700 l 1,1,-1
 151 100 l 1,2,-1
 332 100 l 1,3,-1
 332 0 l 1,4,-1
 41 0 l 1,5,-1
 41 700 l 1,0,-1
EndSplineSet
Validated: 1048577
EndChar

StartChar: Ldot
Encoding: 294 319 69
Width: 343
GlyphClass: 2
Flags: W
AnchorPoint: "Anker-5" 172 350 basechar 0
AnchorPoint: "Anker-4" 106 700 basechar 0
AnchorPoint: "Anker-2" 187 0 basechar 0
LayerCount: 2
Fore
SplineSet
41 700 m 1,0,-1
 151 700 l 1,1,-1
 151 100 l 1,2,-1
 332 100 l 1,3,-1
 332 0 l 1,4,-1
 41 0 l 1,5,-1
 41 700 l 1,0,-1
214 403 m 1,6,-1
 320 403 l 1,7,-1
 320 297 l 1,8,-1
 214 297 l 1,9,-1
 214 403 l 1,6,-1
EndSplineSet
Validated: 1048577
Ligature2: "Ligaturen Substitution Nachschlagetabelle 25 Subtabelle" L periodcentered
EndChar

StartChar: Lslash
Encoding: 295 321 70
Width: 364
GlyphClass: 2
Flags: W
AnchorPoint: "Anker-5" 192 350 basechar 0
AnchorPoint: "Anker-4" 126 700 basechar 0
AnchorPoint: "Anker-2" 207 0 basechar 0
LayerCount: 2
Fore
SplineSet
352 100 m 1,0,-1
 352 0 l 1,1,-1
 61 0 l 1,2,-1
 61 160 l 1,3,-1
 10 105 l 1,4,-1
 10 225 l 1,5,-1
 61 280 l 1,6,-1
 61 700 l 1,7,-1
 171 700 l 1,8,-1
 171 398 l 1,9,-1
 290 525 l 1,10,-1
 290 405 l 1,11,-1
 171 278 l 1,12,-1
 171 100 l 1,13,-1
 352 100 l 1,0,-1
EndSplineSet
Validated: 1048577
EndChar

StartChar: M
Encoding: 77 77 71
Width: 538
GlyphClass: 2
Flags: W
AnchorPoint: "Anker-4" 269 700 basechar 0
AnchorPoint: "Anker-2" 269 0 basechar 0
LayerCount: 2
Fore
SplineSet
41 700 m 1,0,-1
 198 700 l 1,1,-1
 268 199 l 1,2,-1
 270 199 l 1,3,-1
 340 700 l 1,4,-1
 497 700 l 1,5,-1
 497 0 l 1,6,-1
 393 0 l 1,7,-1
 393 530 l 1,8,-1
 391 530 l 1,9,-1
 311 0 l 1,10,-1
 219 0 l 1,11,-1
 139 530 l 1,12,-1
 137 530 l 1,13,-1
 137 0 l 1,14,-1
 41 0 l 1,15,-1
 41 700 l 1,0,-1
EndSplineSet
Validated: 1048577
EndChar

StartChar: N
Encoding: 78 78 73
Width: 427
GlyphClass: 2
Flags: W
AnchorPoint: "Anker-4" 214 700 basechar 0
AnchorPoint: "Anker-2" 214 0 basechar 0
LayerCount: 2
Fore
SplineSet
41 700 m 1,0,-1
 179 700 l 1,1,-1
 286 281 l 1,2,-1
 288 281 l 1,3,-1
 288 700 l 1,4,-1
 386 700 l 1,5,-1
 386 0 l 1,6,-1
 273 0 l 1,7,-1
 141 511 l 1,8,-1
 139 511 l 1,9,-1
 139 0 l 1,10,-1
 41 0 l 1,11,-1
 41 700 l 1,0,-1
EndSplineSet
Validated: 1048577
EndChar

StartChar: Eng
Encoding: 300 330 77
Width: 427
GlyphClass: 2
Flags: W
AnchorPoint: "Anker-4" 214 700 basechar 0
AnchorPoint: "Anker-2" 214 0 basechar 0
LayerCount: 2
Fore
SplineSet
189 -166 m 1,1,-1
 189 -71 l 1,2,3
 205 -75 205 -75 228 -75 c 0,4,5
 250 -75 250 -75 265 -61.5 c 128,-1,6
 280 -48 280 -48 280 -18 c 0,7,8
 280 -1 280 -1 278 12 c 128,-1,9
 276 25 276 25 270 46 c 2,10,-1
 141 523 l 1,11,-1
 139 523 l 1,12,-1
 139 0 l 1,13,-1
 41 0 l 1,14,-1
 41 700 l 1,15,-1
 179 700 l 1,16,-1
 286 304 l 1,17,-1
 288 304 l 1,18,-1
 288 700 l 1,19,-1
 386 700 l 1,20,-1
 386 -2 l 2,21,22
 386 -86 386 -86 348.5 -128 c 128,-1,23
 311 -170 311 -170 238 -170 c 0,24,0
 210 -170 210 -170 189 -166 c 1,1,-1
EndSplineSet
Validated: 1048577
EndChar

StartChar: O
Encoding: 79 79 79
Width: 400
GlyphClass: 2
Flags: W
AnchorPoint: "Anker-5" 200 350 basechar 0
AnchorPoint: "Anker-4" 200 700 basechar 0
AnchorPoint: "Anker-3" 359 10 basechar 0
AnchorPoint: "Anker-2" 200 0 basechar 0
LayerCount: 2
Fore
SplineSet
76 36 m 128,-1,1
 33 82 33 82 33 166 c 2,2,-1
 33 534 l 2,3,4
 33 618 33 618 76 664 c 128,-1,5
 119 710 119 710 200 710 c 256,6,7
 281 710 281 710 324 664 c 128,-1,8
 367 618 367 618 367 534 c 2,9,-1
 367 166 l 2,10,11
 367 82 367 82 324 36 c 128,-1,12
 281 -10 281 -10 200 -10 c 256,13,0
 119 -10 119 -10 76 36 c 128,-1,1
257 159 m 2,15,-1
 257 541 l 2,16,17
 257 610 257 610 200 610 c 256,18,19
 143 610 143 610 143 541 c 2,20,-1
 143 159 l 2,21,22
 143 90 143 90 200 90 c 256,23,14
 257 90 257 90 257 159 c 2,15,-1
EndSplineSet
Validated: 1
Substitution2: "Einzelne Substitution Nachschlagetabelle 27 Subtabelle" ordmasculine
Substitution2: "'aalt' Zugriff auf alle Alternativen in Lateinisch Nachschlagetabelle 0 Subtabelle" ordmasculine
EndChar

StartChar: Oslash
Encoding: 216 216 87
Width: 400
GlyphClass: 2
Flags: W
AnchorPoint: "Anker-5" 200 350 basechar 0
AnchorPoint: "Anker-4" 200 700 basechar 0
AnchorPoint: "Anker-3" 359 10 basechar 0
AnchorPoint: "Anker-2" 200 0 basechar 0
LayerCount: 2
Fore
SplineSet
348 629 m 1,0,1
 367 591 367 591 367 534 c 2,2,-1
 367 166 l 2,3,4
 367 82 367 82 324 36 c 128,-1,5
 281 -10 281 -10 200 -10 c 0,6,7
 140 -10 140 -10 100 16 c 1,8,-1
 83 -26 l 1,9,-1
 23 0 l 1,10,-1
 52 71 l 1,11,12
 33 109 33 109 33 166 c 2,13,-1
 33 534 l 2,14,15
 33 618 33 618 76 664 c 128,-1,16
 119 710 119 710 200 710 c 0,17,18
 260 710 260 710 300 684 c 1,19,-1
 317 726 l 1,20,-1
 377 700 l 1,21,-1
 348 629 l 1,0,1
143 296 m 1,22,-1
 254 570 l 1,23,24
 244 610 244 610 200 610 c 0,25,26
 143 610 143 610 143 541 c 2,27,-1
 143 296 l 1,22,-1
257 404 m 1,28,-1
 146 130 l 1,29,30
 156 90 156 90 200 90 c 0,31,32
 257 90 257 90 257 159 c 2,33,-1
 257 404 l 1,28,-1
EndSplineSet
Validated: 1
EndChar

StartChar: OE
Encoding: 188 338 90
Width: 577
Flags: W
LayerCount: 2
Fore
SplineSet
74 44 m 128,-1,1
 33 88 33 88 33 173 c 2,2,-1
 33 527 l 2,3,4
 33 612 33 612 74 656 c 128,-1,5
 115 700 115 700 197 700 c 2,6,-1
 555 700 l 1,7,-1
 555 600 l 1,8,-1
 365 600 l 1,9,-1
 365 415 l 1,10,-1
 516 415 l 1,11,-1
 516 315 l 1,12,-1
 365 315 l 1,13,-1
 365 100 l 1,14,-1
 555 100 l 1,15,-1
 555 0 l 1,16,-1
 197 0 l 2,17,0
 115 0 115 0 74 44 c 128,-1,1
255 100 m 1,18,-1
 255 600 l 1,19,-1
 199 600 l 2,20,21
 172 600 172 600 157.5 584 c 128,-1,22
 143 568 143 568 143 532 c 2,23,-1
 143 168 l 2,24,25
 143 132 143 132 157.5 116 c 128,-1,26
 172 100 172 100 199 100 c 2,27,-1
 255 100 l 1,18,-1
EndSplineSet
Validated: 1
EndChar

StartChar: P
Encoding: 80 80 91
Width: 386
GlyphClass: 2
Flags: W
AnchorPoint: "Anker-4" 191 700 basechar 0
AnchorPoint: "Anker-2" 193 0 basechar 0
LayerCount: 2
Fore
SplineSet
41 700 m 1,0,-1
 203 700 l 2,1,2
 285 700 285 700 326 656 c 128,-1,3
 367 612 367 612 367 527 c 2,4,-1
 367 458 l 2,5,6
 367 373 367 373 326 329 c 128,-1,7
 285 285 285 285 203 285 c 2,8,-1
 151 285 l 1,9,-1
 151 0 l 1,10,-1
 41 0 l 1,11,-1
 41 700 l 1,0,-1
203 385 m 2,12,13
 230 385 230 385 243.5 400 c 128,-1,14
 257 415 257 415 257 451 c 2,15,-1
 257 534 l 2,16,17
 257 570 257 570 243.5 585 c 128,-1,18
 230 600 230 600 203 600 c 2,19,-1
 151 600 l 1,20,-1
 151 385 l 1,21,-1
 203 385 l 2,12,13
EndSplineSet
Validated: 1048577
EndChar

StartChar: Thorn
Encoding: 222 222 93
Width: 386
Flags: W
LayerCount: 2
Fore
SplineSet
41 700 m 1,0,-1
 151 700 l 1,1,-1
 151 601 l 1,2,-1
 203 601 l 2,3,4
 285 601 285 601 326 557 c 128,-1,5
 367 513 367 513 367 428 c 2,6,-1
 367 359 l 2,7,8
 367 274 367 274 326 230 c 128,-1,9
 285 186 285 186 203 186 c 2,10,-1
 151 186 l 1,11,-1
 151 0 l 1,12,-1
 41 0 l 1,13,-1
 41 700 l 1,0,-1
203 286 m 2,14,15
 230 286 230 286 243.5 301 c 128,-1,16
 257 316 257 316 257 352 c 2,17,-1
 257 435 l 2,18,19
 257 471 257 471 243.5 486 c 128,-1,20
 230 501 230 501 203 501 c 2,21,-1
 151 501 l 1,22,-1
 151 286 l 1,23,-1
 203 286 l 2,14,15
EndSplineSet
Validated: 1
EndChar

StartChar: Q
Encoding: 81 81 94
Width: 400
Flags: W
LayerCount: 2
Fore
SplineSet
273 2 m 1,1,2
 242 -10 242 -10 200 -10 c 0,3,4
 119 -10 119 -10 76 36 c 128,-1,5
 33 82 33 82 33 166 c 2,6,-1
 33 534 l 2,7,8
 33 618 33 618 76 664 c 128,-1,9
 119 710 119 710 200 710 c 256,10,11
 281 710 281 710 324 664 c 128,-1,12
 367 618 367 618 367 534 c 2,13,-1
 367 166 l 2,14,15
 367 96 367 96 336 51 c 1,16,17
 342 41 342 41 351 38 c 128,-1,18
 360 35 360 35 377 35 c 2,19,-1
 394 35 l 1,20,-1
 394 -65 l 1,21,-1
 365 -65 l 2,22,0
 290 -65 290 -65 273 2 c 1,1,2
257 159 m 2,24,-1
 257 541 l 2,25,26
 257 610 257 610 200 610 c 256,27,28
 143 610 143 610 143 541 c 2,29,-1
 143 159 l 2,30,31
 143 90 143 90 200 90 c 256,32,23
 257 90 257 90 257 159 c 2,24,-1
EndSplineSet
Validated: 1
EndChar

StartChar: R
Encoding: 82 82 95
Width: 403
GlyphClass: 2
Flags: W
AnchorPoint: "Anker-4" 193 700 basechar 0
AnchorPoint: "Anker-2" 203 0 basechar 0
LayerCount: 2
Fore
SplineSet
41 700 m 1,0,-1
 204 700 l 2,1,2
 289 700 289 700 328 660.5 c 128,-1,3
 367 621 367 621 367 539 c 2,4,-1
 367 496 l 2,5,6
 367 387 367 387 295 358 c 1,7,-1
 295 356 l 1,8,9
 335 344 335 344 351.5 307 c 128,-1,10
 368 270 368 270 368 208 c 2,11,-1
 368 85 l 2,12,13
 368 55 368 55 370 36.5 c 128,-1,14
 372 18 372 18 380 0 c 1,15,-1
 268 0 l 1,16,17
 262 17 262 17 260 32 c 128,-1,18
 258 47 258 47 258 86 c 2,19,-1
 258 214 l 2,20,21
 258 262 258 262 242.5 281 c 128,-1,22
 227 300 227 300 189 300 c 2,23,-1
 151 300 l 1,24,-1
 151 0 l 1,25,-1
 41 0 l 1,26,-1
 41 700 l 1,0,-1
191 400 m 2,27,28
 224 400 224 400 240.5 417 c 128,-1,29
 257 434 257 434 257 474 c 2,30,-1
 257 528 l 2,31,32
 257 566 257 566 243.5 583 c 128,-1,33
 230 600 230 600 201 600 c 2,34,-1
 151 600 l 1,35,-1
 151 400 l 1,36,-1
 191 400 l 2,27,28
EndSplineSet
Validated: 1048577
EndChar

StartChar: S
Encoding: 83 83 99
Width: 372
GlyphClass: 2
Flags: W
AnchorPoint: "Anker-4" 186 700 basechar 0
AnchorPoint: "Anker-2" 186 0 basechar 0
LayerCount: 2
Fore
SplineSet
63 35.5 m 128,-1,1
 22 81 22 81 22 166 c 2,2,-1
 22 206 l 1,3,-1
 126 206 l 1,4,-1
 126 158 l 2,5,6
 126 90 126 90 183 90 c 0,7,8
 211 90 211 90 225.5 106.5 c 128,-1,9
 240 123 240 123 240 160 c 0,10,11
 240 204 240 204 220 237.5 c 128,-1,12
 200 271 200 271 146 318 c 0,13,14
 78 378 78 378 51 426.5 c 128,-1,15
 24 475 24 475 24 536 c 0,16,17
 24 619 24 619 66 664.5 c 128,-1,18
 108 710 108 710 188 710 c 0,19,20
 267 710 267 710 307.5 664.5 c 128,-1,21
 348 619 348 619 348 534 c 2,22,-1
 348 505 l 1,23,-1
 244 505 l 1,24,-1
 244 541 l 2,25,26
 244 577 244 577 230 593.5 c 128,-1,27
 216 610 216 610 189 610 c 0,28,29
 134 610 134 610 134 543 c 0,30,31
 134 505 134 505 154.5 472 c 128,-1,32
 175 439 175 439 229 392 c 0,33,34
 298 332 298 332 324 283 c 128,-1,35
 350 234 350 234 350 168 c 0,36,37
 350 82 350 82 307.5 36 c 128,-1,38
 265 -10 265 -10 184 -10 c 0,39,0
 104 -10 104 -10 63 35.5 c 128,-1,1
EndSplineSet
Validated: 1048577
EndChar

StartChar: Scedilla
Encoding: 310 350 102
Width: 372
GlyphClass: 2
Flags: W
AnchorPoint: "Anker-2" 186 -147 basechar 0
LayerCount: 2
Fore
SplineSet
314.5 44 m 128,-1,1
 279 -2 279 -2 211 -9 c 1,2,-1
 211 -39 l 1,3,4
 245 -39 245 -39 262.5 -50 c 128,-1,5
 280 -61 280 -61 280 -86 c 0,6,7
 280 -123 280 -123 255 -135 c 128,-1,8
 230 -147 230 -147 178 -147 c 0,9,10
 132 -147 132 -147 107 -134 c 128,-1,11
 82 -121 82 -121 82 -89 c 2,12,-1
 82 -79 l 1,13,-1
 156 -79 l 1,14,-1
 156 -87 l 2,15,16
 156 -97 156 -97 162.5 -102 c 128,-1,17
 169 -107 169 -107 178 -107 c 0,18,19
 192 -107 192 -107 198 -101.5 c 128,-1,20
 204 -96 204 -96 204 -83 c 0,21,22
 204 -69 204 -69 195 -63 c 128,-1,23
 186 -57 186 -57 167 -57 c 2,24,-1
 162 -57 l 1,25,-1
 162 -9 l 1,26,27
 93 -3 93 -3 57.5 42 c 128,-1,28
 22 87 22 87 22 166 c 2,29,-1
 22 206 l 1,30,-1
 126 206 l 1,31,-1
 126 158 l 2,32,33
 126 90 126 90 183 90 c 0,34,35
 211 90 211 90 225.5 106.5 c 128,-1,36
 240 123 240 123 240 160 c 0,37,38
 240 204 240 204 220 237.5 c 128,-1,39
 200 271 200 271 146 318 c 0,40,41
 78 378 78 378 51 426.5 c 128,-1,42
 24 475 24 475 24 536 c 0,43,44
 24 619 24 619 66 664.5 c 128,-1,45
 108 710 108 710 188 710 c 0,46,47
 267 710 267 710 307.5 664.5 c 128,-1,48
 348 619 348 619 348 534 c 2,49,-1
 348 505 l 1,50,-1
 244 505 l 1,51,-1
 244 541 l 2,52,53
 244 577 244 577 230 593.5 c 128,-1,54
 216 610 216 610 189 610 c 0,55,56
 134 610 134 610 134 543 c 0,57,58
 134 505 134 505 154.5 472 c 128,-1,59
 175 439 175 439 229 392 c 0,60,61
 298 332 298 332 324 283 c 128,-1,62
 350 234 350 234 350 168 c 0,63,0
 350 90 350 90 314.5 44 c 128,-1,1
EndSplineSet
Validated: 1048577
Substitution2: "'locl' Lokalisierte Formen in Lateinisch Nachschlagetabelle 6 Subtabelle" uni0218
Substitution2: "'locl' Lokalisierte Formen in Lateinisch Nachschlagetabelle 5 Subtabelle" uni0218
Substitution2: "'aalt' Zugriff auf alle Alternativen in Lateinisch Nachschlagetabelle 0 Subtabelle" uni0218
EndChar

StartChar: uni1E9E
Encoding: 314 7838 106
Width: 407
Flags: W
LayerCount: 2
Fore
SplineSet
41 700 m 1,0,-1
 375 700 l 1,1,-1
 375 602 l 1,2,-1
 298 413 l 1,3,4
 385 386 385 386 385 252 c 2,5,-1
 385 173 l 2,6,7
 385 88 385 88 344 44 c 128,-1,8
 303 0 303 0 221 0 c 2,9,-1
 194 0 l 1,10,-1
 194 100 l 1,11,-1
 221 100 l 2,12,13
 248 100 248 100 261.5 115 c 128,-1,14
 275 130 275 130 275 166 c 2,15,-1
 275 259 l 2,16,17
 275 295 275 295 261.5 310 c 128,-1,18
 248 325 248 325 221 325 c 2,19,-1
 194 325 l 1,20,-1
 194 418 l 1,21,-1
 267 600 l 1,22,-1
 151 600 l 1,23,-1
 151 0 l 1,24,-1
 41 0 l 1,25,-1
 41 700 l 1,0,-1
EndSplineSet
Validated: 1
EndChar

StartChar: T
Encoding: 84 84 107
Width: 364
GlyphClass: 2
Flags: W
AnchorPoint: "Anker-5" 182 350 basechar 0
AnchorPoint: "Anker-4" 182 700 basechar 0
AnchorPoint: "Anker-2" 182 0 basechar 0
LayerCount: 2
Fore
SplineSet
127 600 m 1,0,-1
 12 600 l 1,1,-1
 12 700 l 1,2,-1
 352 700 l 1,3,-1
 352 600 l 1,4,-1
 237 600 l 1,5,-1
 237 0 l 1,6,-1
 127 0 l 1,7,-1
 127 600 l 1,0,-1
EndSplineSet
Validated: 1048577
EndChar

StartChar: Tbar
Encoding: 315 358 108
Width: 364
GlyphClass: 2
Flags: W
AnchorPoint: "Anker-5" 182 350 basechar 0
AnchorPoint: "Anker-4" 182 700 basechar 0
AnchorPoint: "Anker-2" 182 0 basechar 0
LayerCount: 2
Fore
SplineSet
237 600 m 1,0,-1
 237 415 l 1,1,-1
 313 415 l 1,2,-1
 313 315 l 1,3,-1
 237 315 l 1,4,-1
 237 0 l 1,5,-1
 127 0 l 1,6,-1
 127 315 l 1,7,-1
 51 315 l 1,8,-1
 51 415 l 1,9,-1
 127 415 l 1,10,-1
 127 600 l 1,11,-1
 12 600 l 1,12,-1
 12 700 l 1,13,-1
 352 700 l 1,14,-1
 352 600 l 1,15,-1
 237 600 l 1,0,-1
EndSplineSet
Validated: 1048577
EndChar

StartChar: uni0162
Encoding: 317 354 110
Width: 364
GlyphClass: 2
Flags: W
AnchorPoint: "Anker-5" 182 350 basechar 0
AnchorPoint: "Anker-2" 182 -147 basechar 0
LayerCount: 2
Fore
SplineSet
207 0 m 1,0,-1
 207 -39 l 1,1,2
 241 -39 241 -39 258.5 -50 c 128,-1,3
 276 -61 276 -61 276 -86 c 0,4,5
 276 -123 276 -123 251 -135 c 128,-1,6
 226 -147 226 -147 174 -147 c 0,7,8
 128 -147 128 -147 103 -134 c 128,-1,9
 78 -121 78 -121 78 -89 c 2,10,-1
 78 -79 l 1,11,-1
 152 -79 l 1,12,-1
 152 -87 l 2,13,14
 152 -97 152 -97 158.5 -102 c 128,-1,15
 165 -107 165 -107 174 -107 c 0,16,17
 188 -107 188 -107 194 -101.5 c 128,-1,18
 200 -96 200 -96 200 -83 c 0,19,20
 200 -69 200 -69 191 -63 c 128,-1,21
 182 -57 182 -57 163 -57 c 2,22,-1
 158 -57 l 1,23,-1
 158 0 l 1,24,-1
 127 0 l 1,25,-1
 127 600 l 1,26,-1
 12 600 l 1,27,-1
 12 700 l 1,28,-1
 352 700 l 1,29,-1
 352 600 l 1,30,-1
 237 600 l 1,31,-1
 237 0 l 1,32,-1
 207 0 l 1,0,-1
EndSplineSet
Validated: 1048577
Substitution2: "'locl' Lokalisierte Formen in Lateinisch Nachschlagetabelle 6 Subtabelle" uni021A
Substitution2: "'locl' Lokalisierte Formen in Lateinisch Nachschlagetabelle 5 Subtabelle" uni021A
Substitution2: "'aalt' Zugriff auf alle Alternativen in Lateinisch Nachschlagetabelle 0 Subtabelle" uni021A
EndChar

StartChar: U
Encoding: 85 85 113
Width: 402
GlyphClass: 2
Flags: W
AnchorPoint: "Anker-4" 201 700 basechar 0
AnchorPoint: "Anker-3" 297 0 basechar 0
AnchorPoint: "Anker-2" 201 0 basechar 0
LayerCount: 2
Fore
SplineSet
79 35.5 m 128,-1,1
 37 81 37 81 37 166 c 2,2,-1
 37 700 l 1,3,-1
 147 700 l 1,4,-1
 147 158 l 2,5,6
 147 122 147 122 161.5 106 c 128,-1,7
 176 90 176 90 203 90 c 256,8,9
 230 90 230 90 244.5 106 c 128,-1,10
 259 122 259 122 259 158 c 2,11,-1
 259 700 l 1,12,-1
 365 700 l 1,13,-1
 365 166 l 2,14,15
 365 81 365 81 323 35.5 c 128,-1,16
 281 -10 281 -10 201 -10 c 256,17,0
 121 -10 121 -10 79 35.5 c 128,-1,1
EndSplineSet
Validated: 1048577
EndChar

StartChar: Uogonek
Encoding: 323 370 121
Width: 402
GlyphClass: 2
Flags: W
AnchorPoint: "Anker-4" 201 700 basechar 0
AnchorPoint: "Anker-3" 297 0 basechar 0
AnchorPoint: "Anker-2" 201 0 basechar 0
LayerCount: 2
Fore
SplineSet
365 700 m 1,0,-1
 365 166 l 2,1,2
 365 96 365 96 336 52 c 128,-1,3
 307 8 307 8 251 -5 c 1,4,5
 226 -29 226 -29 226 -58 c 0,6,7
 226 -71 226 -71 236 -78.5 c 128,-1,8
 246 -86 246 -86 261 -86 c 0,9,10
 277 -86 277 -86 285.5 -83.5 c 128,-1,11
 294 -81 294 -81 297 -80 c 1,12,-1
 297 -136 l 1,13,14
 280 -143 280 -143 265.5 -145 c 128,-1,15
 251 -147 251 -147 229 -147 c 0,16,17
 188 -147 188 -147 164.5 -131 c 128,-1,18
 141 -115 141 -115 141 -85 c 0,19,20
 141 -42 141 -42 192 -10 c 1,21,22
 116 -7 116 -7 76.5 38.5 c 128,-1,23
 37 84 37 84 37 166 c 2,24,-1
 37 700 l 1,25,-1
 147 700 l 1,26,-1
 147 158 l 2,27,28
 147 122 147 122 161.5 106 c 128,-1,29
 176 90 176 90 203 90 c 256,30,31
 230 90 230 90 244.5 106 c 128,-1,32
 259 122 259 122 259 158 c 2,33,-1
 259 700 l 1,34,-1
 365 700 l 1,0,-1
EndSplineSet
Validated: 1048577
EndChar

StartChar: V
Encoding: 86 86 124
Width: 382
GlyphClass: 2
Flags: W
AnchorPoint: "Anker-4" 191 700 basechar 0
AnchorPoint: "Anker-2" 191 0 basechar 0
LayerCount: 2
Fore
SplineSet
12 700 m 1,0,-1
 123 700 l 1,1,-1
 195 157 l 1,2,-1
 197 157 l 1,3,-1
 269 700 l 1,4,-1
 370 700 l 1,5,-1
 264 0 l 1,6,-1
 118 0 l 1,7,-1
 12 700 l 1,0,-1
EndSplineSet
Validated: 1048577
EndChar

StartChar: W
Encoding: 87 87 125
Width: 557
GlyphClass: 2
Flags: W
AnchorPoint: "Anker-4" 279 700 basechar 0
AnchorPoint: "Anker-2" 279 0 basechar 0
LayerCount: 2
Fore
SplineSet
15 700 m 1,0,-1
 121 700 l 1,1,-1
 170 162 l 1,2,-1
 172 162 l 1,3,-1
 224 700 l 1,4,-1
 344 700 l 1,5,-1
 396 162 l 1,6,-1
 398 162 l 1,7,-1
 447 700 l 1,8,-1
 542 700 l 1,9,-1
 471 0 l 1,10,-1
 334 0 l 1,11,-1
 284 472 l 1,12,-1
 282 472 l 1,13,-1
 232 0 l 1,14,-1
 86 0 l 1,15,-1
 15 700 l 1,0,-1
EndSplineSet
Validated: 1048577
EndChar

StartChar: X
Encoding: 88 88 130
Width: 406
GlyphClass: 2
Flags: W
AnchorPoint: "Anker-4" 203 700 basechar 0
AnchorPoint: "Anker-2" 203 0 basechar 0
LayerCount: 2
Fore
SplineSet
138 358 m 1,0,-1
 17 700 l 1,1,-1
 133 700 l 1,2,-1
 207 474 l 1,3,-1
 209 474 l 1,4,-1
 285 700 l 1,5,-1
 389 700 l 1,6,-1
 268 358 l 1,7,-1
 395 0 l 1,8,-1
 279 0 l 1,9,-1
 199 244 l 1,10,-1
 197 244 l 1,11,-1
 115 0 l 1,12,-1
 11 0 l 1,13,-1
 138 358 l 1,0,-1
EndSplineSet
Validated: 1048577
EndChar

StartChar: Y
Encoding: 89 89 131
Width: 394
GlyphClass: 2
Flags: W
AnchorPoint: "Anker-4" 197 700 basechar 0
AnchorPoint: "Anker-2" 197 0 basechar 0
LayerCount: 2
Fore
SplineSet
142 298 m 1,0,-1
 9 700 l 1,1,-1
 126 700 l 1,2,-1
 201 443 l 1,3,-1
 203 443 l 1,4,-1
 278 700 l 1,5,-1
 385 700 l 1,6,-1
 252 298 l 1,7,-1
 252 0 l 1,8,-1
 142 0 l 1,9,-1
 142 298 l 1,0,-1
EndSplineSet
Validated: 1048577
EndChar

StartChar: Z
Encoding: 90 90 136
Width: 362
GlyphClass: 2
Flags: W
AnchorPoint: "Anker-4" 185 700 basechar 0
AnchorPoint: "Anker-2" 181 0 basechar 0
LayerCount: 2
Fore
SplineSet
19 98 m 1,0,-1
 223 600 l 1,1,-1
 29 600 l 1,2,-1
 29 700 l 1,3,-1
 341 700 l 1,4,-1
 341 602 l 1,5,-1
 137 100 l 1,6,-1
 341 100 l 1,7,-1
 341 0 l 1,8,-1
 19 0 l 1,9,-1
 19 98 l 1,0,-1
EndSplineSet
Validated: 1048577
EndChar

StartChar: ordfeminine
Encoding: 170 170 280
Width: 280
Flags: W
LayerCount: 2
Fore
SplineSet
49.5 358 m 128,-1,1
 30 383 30 383 30 429 c 2,2,-1
 30 433 l 2,3,4
 30 494 30 494 64 523.5 c 128,-1,5
 98 553 98 553 172 556 c 1,6,-1
 172 609 l 2,7,8
 172 646 172 646 142 646 c 0,9,10
 124 646 124 646 116 636 c 128,-1,11
 108 626 108 626 108 603 c 2,12,-1
 108 590 l 1,13,-1
 42 590 l 1,14,-1
 42 599 l 2,15,16
 42 710 42 710 143 710 c 0,17,18
 192 710 192 710 217 681 c 128,-1,19
 242 652 242 652 242 599 c 2,20,-1
 242 338 l 1,21,-1
 183 338 l 1,22,-1
 180 386 l 1,23,-1
 178 386 l 1,24,25
 154 333 154 333 108 333 c 0,26,0
 69 333 69 333 49.5 358 c 128,-1,1
172 433 m 1,28,-1
 172 504 l 1,29,30
 135 502 135 502 117.5 487.5 c 128,-1,31
 100 473 100 473 100 444 c 2,32,-1
 100 435 l 2,33,34
 100 397 100 397 133 397 c 0,35,27
 165 397 165 397 172 433 c 1,28,-1
30 282 m 1,36,-1
 242 282 l 1,37,-1
 242 214 l 1,38,-1
 30 214 l 1,39,-1
 30 282 l 1,36,-1
EndSplineSet
Validated: 1
EndChar

StartChar: ordmasculine
Encoding: 186 186 281
Width: 282
Flags: W
LayerCount: 2
Fore
SplineSet
62.5 362 m 128,-1,1
 35 391 35 391 35 444 c 2,2,-1
 35 599 l 2,3,4
 35 652 35 652 62.5 681 c 128,-1,5
 90 710 90 710 141 710 c 256,6,7
 192 710 192 710 219.5 681 c 128,-1,8
 247 652 247 652 247 599 c 2,9,-1
 247 444 l 2,10,11
 247 391 247 391 219.5 362 c 128,-1,12
 192 333 192 333 141 333 c 256,13,0
 90 333 90 333 62.5 362 c 128,-1,1
177 440 m 2,15,-1
 177 603 l 2,16,17
 177 646 177 646 141 646 c 0,18,19
 123 646 123 646 114 636 c 128,-1,20
 105 626 105 626 105 603 c 2,21,-1
 105 440 l 2,22,23
 105 417 105 417 114 407 c 128,-1,24
 123 397 123 397 141 397 c 0,25,14
 177 397 177 397 177 440 c 2,15,-1
35 282 m 1,26,-1
 247 282 l 1,27,-1
 247 214 l 1,28,-1
 35 214 l 1,29,-1
 35 282 l 1,26,-1
EndSplineSet
Validated: 1
EndChar

StartChar: uni0394
Encoding: 413 916 282
Width: 401
Flags: W
LayerCount: 2
Fore
SplineSet
126 700 m 1,0,-1
 275 700 l 1,1,-1
 389 0 l 1,2,-1
 12 0 l 1,3,-1
 126 700 l 1,0,-1
264 100 m 1,4,-1
 197 568 l 1,5,-1
 195 568 l 1,6,-1
 128 100 l 1,7,-1
 264 100 l 1,4,-1
EndSplineSet
Validated: 1
EndChar

StartChar: uni03A9
Encoding: 414 937 283
Width: 402
Flags: W
LayerCount: 2
Fore
SplineSet
34 100 m 1,0,-1
 114 100 l 1,1,-1
 114 102 l 1,2,3
 71 150 71 150 52.5 203 c 128,-1,4
 34 256 34 256 34 338 c 2,5,-1
 34 534 l 2,6,7
 34 618 34 618 77 664 c 128,-1,8
 120 710 120 710 201 710 c 256,9,10
 282 710 282 710 325 664 c 128,-1,11
 368 618 368 618 368 534 c 2,12,-1
 368 338 l 2,13,14
 368 256 368 256 349.5 202.5 c 128,-1,15
 331 149 331 149 288 102 c 1,16,-1
 288 100 l 1,17,-1
 368 100 l 1,18,-1
 368 0 l 1,19,-1
 217 0 l 1,20,-1
 217 100 l 1,21,22
 241 142 241 142 249.5 184 c 128,-1,23
 258 226 258 226 258 291 c 2,24,-1
 258 541 l 2,25,26
 258 610 258 610 201 610 c 256,27,28
 144 610 144 610 144 541 c 2,29,-1
 144 291 l 2,30,31
 144 226 144 226 152.5 184 c 128,-1,32
 161 142 161 142 185 100 c 1,33,-1
 185 0 l 1,34,-1
 34 0 l 1,35,-1
 34 100 l 1,0,-1
EndSplineSet
Validated: 1
EndChar

StartChar: uni03BC
Encoding: 415 956 284
Width: 405
Flags: W
LayerCount: 2
Fore
SplineSet
41 500 m 1,0,-1
 151 500 l 1,1,-1
 151 149 l 2,2,3
 151 92 151 92 203 92 c 0,4,5
 230 92 230 92 245.5 108.5 c 128,-1,6
 261 125 261 125 261 161 c 2,7,-1
 261 500 l 1,8,-1
 371 500 l 1,9,-1
 371 0 l 1,10,-1
 271 0 l 1,11,-1
 271 52 l 1,12,13
 256 26 256 26 231 11 c 128,-1,14
 206 -4 206 -4 175 -4 c 2,15,-1
 151 -4 l 1,16,-1
 151 -160 l 1,17,-1
 41 -160 l 1,18,-1
 41 500 l 1,0,-1
EndSplineSet
Validated: 1
EndChar

StartChar: pi
Encoding: 416 960 285
Width: 452
Flags: W
LayerCount: 2
Fore
SplineSet
74 400 m 1,0,-1
 14 400 l 1,1,-1
 14 500 l 1,2,-1
 438 500 l 1,3,-1
 438 400 l 1,4,-1
 378 400 l 1,5,-1
 378 0 l 1,6,-1
 268 0 l 1,7,-1
 268 400 l 1,8,-1
 184 400 l 1,9,-1
 184 0 l 1,10,-1
 74 0 l 1,11,-1
 74 400 l 1,0,-1
EndSplineSet
Validated: 1
EndChar

StartChar: zero
Encoding: 48 48 286
Width: 400
Flags: W
LayerCount: 2
Fore
SplineSet
76 36 m 128,-1,1
 33 82 33 82 33 166 c 2,2,-1
 33 534 l 2,3,4
 33 618 33 618 76 664 c 128,-1,5
 119 710 119 710 200 710 c 256,6,7
 281 710 281 710 324 664 c 128,-1,8
 367 618 367 618 367 534 c 2,9,-1
 367 166 l 2,10,11
 367 82 367 82 324 36 c 128,-1,12
 281 -10 281 -10 200 -10 c 256,13,0
 119 -10 119 -10 76 36 c 128,-1,1
257 159 m 2,15,-1
 257 541 l 2,16,17
 257 610 257 610 200 610 c 256,18,19
 143 610 143 610 143 541 c 2,20,-1
 143 159 l 2,21,22
 143 90 143 90 200 90 c 256,23,14
 257 90 257 90 257 159 c 2,15,-1
EndSplineSet
Validated: 1
Substitution2: "'frac' Diagonale Br+APwA-che in Lateinisch Nachschlagetabelle 18 Subtabelle" zero.numr
Substitution2: "'dnom' Nenner in Lateinisch Nachschlagetabelle 16 Subtabelle" zero.dnom
Substitution2: "'numr' Z+AOQA-hler in Lateinisch Nachschlagetabelle 15 Subtabelle" zero.numr
Substitution2: "'sups' Hochgestellt in Lateinisch Nachschlagetabelle 14 Subtabelle" uni2070
Substitution2: "'subs' Tiefgestellt in Lateinisch Nachschlagetabelle 13 Subtabelle" uni2080
Substitution2: "'pnum' Proportionalziffern in Lateinisch Nachschlagetabelle 12 Subtabelle" zero.lf
AlternateSubs2: "'aalt' Zugriff auf alle Alternativen in Lateinisch Nachschlagetabelle 1 Subtabelle" zero.lf uni2080 uni2070 zero.numr zero.dnom
EndChar

StartChar: one
Encoding: 49 49 287
Width: 400
Flags: W
LayerCount: 2
Fore
SplineSet
195 534 m 1,0,-1
 80 534 l 1,1,-1
 80 612 l 1,2,3
 127 612 127 612 155.5 620 c 128,-1,4
 184 628 184 628 201 646.5 c 128,-1,5
 218 665 218 665 231 700 c 1,6,-1
 305 700 l 1,7,-1
 305 0 l 1,8,-1
 195 0 l 1,9,-1
 195 534 l 1,0,-1
EndSplineSet
Validated: 1
Substitution2: "'frac' Diagonale Br+APwA-che in Lateinisch Nachschlagetabelle 18 Subtabelle" one.numr
Substitution2: "'dnom' Nenner in Lateinisch Nachschlagetabelle 16 Subtabelle" one.dnom
Substitution2: "'numr' Z+AOQA-hler in Lateinisch Nachschlagetabelle 15 Subtabelle" one.numr
Substitution2: "'sups' Hochgestellt in Lateinisch Nachschlagetabelle 14 Subtabelle" uni00B9
Substitution2: "'subs' Tiefgestellt in Lateinisch Nachschlagetabelle 13 Subtabelle" uni2081
Substitution2: "'pnum' Proportionalziffern in Lateinisch Nachschlagetabelle 12 Subtabelle" one.lf
AlternateSubs2: "'aalt' Zugriff auf alle Alternativen in Lateinisch Nachschlagetabelle 1 Subtabelle" one.lf uni2081 uni00B9 one.numr one.dnom
EndChar

StartChar: two
Encoding: 50 50 288
Width: 400
Flags: W
LayerCount: 2
Fore
SplineSet
39 76 m 2,0,1
 39 151 39 151 63 204.5 c 128,-1,2
 87 258 87 258 149 323 c 0,3,4
 210 388 210 388 233.5 434 c 128,-1,5
 257 480 257 480 257 530 c 0,6,7
 257 575 257 575 242.5 592.5 c 128,-1,8
 228 610 228 610 200 610 c 0,9,10
 143 610 143 610 143 541 c 2,11,-1
 143 466 l 1,12,-1
 39 466 l 1,13,-1
 39 534 l 2,14,15
 39 619 39 619 81 664.5 c 128,-1,16
 123 710 123 710 203 710 c 256,17,18
 283 710 283 710 325 664.5 c 128,-1,19
 367 619 367 619 367 534 c 0,20,21
 367 470 367 470 336.5 409 c 128,-1,22
 306 348 306 348 231 269 c 0,23,24
 182 217 182 217 165 184.5 c 128,-1,25
 148 152 148 152 148 115 c 2,26,-1
 148 100 l 1,27,-1
 357 100 l 1,28,-1
 357 0 l 1,29,-1
 39 0 l 1,30,-1
 39 76 l 2,0,1
EndSplineSet
Validated: 1
Substitution2: "'frac' Diagonale Br+APwA-che in Lateinisch Nachschlagetabelle 18 Subtabelle" two.numr
Substitution2: "'dnom' Nenner in Lateinisch Nachschlagetabelle 16 Subtabelle" two.dnom
Substitution2: "'numr' Z+AOQA-hler in Lateinisch Nachschlagetabelle 15 Subtabelle" two.numr
Substitution2: "'sups' Hochgestellt in Lateinisch Nachschlagetabelle 14 Subtabelle" uni00B2
Substitution2: "'subs' Tiefgestellt in Lateinisch Nachschlagetabelle 13 Subtabelle" uni2082
Substitution2: "'pnum' Proportionalziffern in Lateinisch Nachschlagetabelle 12 Subtabelle" two.lf
AlternateSubs2: "'aalt' Zugriff auf alle Alternativen in Lateinisch Nachschlagetabelle 1 Subtabelle" two.lf uni2082 uni00B2 two.numr two.dnom
EndChar

StartChar: three
Encoding: 51 51 289
Width: 400
Flags: W
LayerCount: 2
Fore
SplineSet
74.5 35 m 128,-1,1
 33 80 33 80 33 164 c 2,2,-1
 33 221 l 1,3,-1
 137 221 l 1,4,-1
 137 159 l 2,5,6
 137 90 137 90 194 90 c 0,7,8
 222 90 222 90 236.5 107.5 c 128,-1,9
 251 125 251 125 251 169 c 2,10,-1
 251 226 l 2,11,12
 251 274 251 274 234 294.5 c 128,-1,13
 217 315 217 315 179 315 c 2,14,-1
 142 315 l 1,15,-1
 142 415 l 1,16,-1
 182 415 l 2,17,18
 215 415 215 415 231.5 432 c 128,-1,19
 248 449 248 449 248 489 c 2,20,-1
 248 540 l 2,21,22
 248 576 248 576 233 593 c 128,-1,23
 218 610 218 610 193 610 c 0,24,25
 140 610 140 610 140 545 c 2,26,-1
 140 499 l 1,27,-1
 36 499 l 1,28,-1
 36 536 l 2,29,30
 36 620 36 620 77.5 665 c 128,-1,31
 119 710 119 710 197 710 c 0,32,33
 276 710 276 710 317 665.5 c 128,-1,34
 358 621 358 621 358 537 c 2,35,-1
 358 512 l 2,36,37
 358 455 358 455 339 420.5 c 128,-1,38
 320 386 320 386 280 371 c 1,39,-1
 280 369 l 1,40,41
 323 353 323 353 342 317 c 128,-1,42
 361 281 361 281 361 225 c 2,43,-1
 361 163 l 2,44,45
 361 79 361 79 319.5 34.5 c 128,-1,46
 278 -10 278 -10 197 -10 c 256,47,0
 116 -10 116 -10 74.5 35 c 128,-1,1
EndSplineSet
Validated: 1
Substitution2: "'frac' Diagonale Br+APwA-che in Lateinisch Nachschlagetabelle 18 Subtabelle" three.numr
Substitution2: "'dnom' Nenner in Lateinisch Nachschlagetabelle 16 Subtabelle" three.dnom
Substitution2: "'numr' Z+AOQA-hler in Lateinisch Nachschlagetabelle 15 Subtabelle" three.numr
Substitution2: "'sups' Hochgestellt in Lateinisch Nachschlagetabelle 14 Subtabelle" uni00B3
Substitution2: "'subs' Tiefgestellt in Lateinisch Nachschlagetabelle 13 Subtabelle" uni2083
Substitution2: "'pnum' Proportionalziffern in Lateinisch Nachschlagetabelle 12 Subtabelle" three.lf
AlternateSubs2: "'aalt' Zugriff auf alle Alternativen in Lateinisch Nachschlagetabelle 1 Subtabelle" three.lf uni2083 uni00B3 three.numr three.dnom
EndChar

StartChar: four
Encoding: 52 52 290
Width: 400
Flags: W
LayerCount: 2
Fore
SplineSet
225 127 m 1,0,-1
 15 127 l 1,1,-1
 15 227 l 1,2,-1
 215 700 l 1,3,-1
 335 700 l 1,4,-1
 335 227 l 1,5,-1
 387 227 l 1,6,-1
 387 127 l 1,7,-1
 335 127 l 1,8,-1
 335 0 l 1,9,-1
 225 0 l 1,10,-1
 225 127 l 1,0,-1
225 227 m 1,11,-1
 225 500 l 1,12,-1
 223 500 l 1,13,-1
 115 227 l 1,14,-1
 225 227 l 1,11,-1
EndSplineSet
Validated: 1
Substitution2: "'frac' Diagonale Br+APwA-che in Lateinisch Nachschlagetabelle 18 Subtabelle" four.numr
Substitution2: "'dnom' Nenner in Lateinisch Nachschlagetabelle 16 Subtabelle" four.dnom
Substitution2: "'numr' Z+AOQA-hler in Lateinisch Nachschlagetabelle 15 Subtabelle" four.numr
Substitution2: "'sups' Hochgestellt in Lateinisch Nachschlagetabelle 14 Subtabelle" uni2074
Substitution2: "'subs' Tiefgestellt in Lateinisch Nachschlagetabelle 13 Subtabelle" uni2084
Substitution2: "'pnum' Proportionalziffern in Lateinisch Nachschlagetabelle 12 Subtabelle" four.lf
AlternateSubs2: "'aalt' Zugriff auf alle Alternativen in Lateinisch Nachschlagetabelle 1 Subtabelle" four.lf uni2084 uni2074 four.numr four.dnom
EndChar

StartChar: five
Encoding: 53 53 291
Width: 400
Flags: W
LayerCount: 2
Fore
SplineSet
80 35.5 m 128,-1,1
 38 81 38 81 38 166 c 2,2,-1
 38 221 l 1,3,-1
 142 221 l 1,4,-1
 142 158 l 2,5,6
 142 90 142 90 199 90 c 256,7,8
 256 90 256 90 256 158 c 2,9,-1
 256 315 l 2,10,11
 256 384 256 384 199 384 c 256,12,13
 142 384 142 384 142 315 c 2,14,-1
 142 309 l 1,15,-1
 38 309 l 1,16,-1
 58 700 l 1,17,-1
 348 700 l 1,18,-1
 348 600 l 1,19,-1
 156 600 l 1,20,-1
 147 433 l 1,21,-1
 149 433 l 1,22,23
 180 484 180 484 244 484 c 0,24,25
 304 484 304 484 335 443 c 128,-1,26
 366 402 366 402 366 324 c 2,27,-1
 366 166 l 2,28,29
 366 81 366 81 324 35.5 c 128,-1,30
 282 -10 282 -10 202 -10 c 256,31,0
 122 -10 122 -10 80 35.5 c 128,-1,1
EndSplineSet
Validated: 1
Substitution2: "'frac' Diagonale Br+APwA-che in Lateinisch Nachschlagetabelle 18 Subtabelle" five.numr
Substitution2: "'dnom' Nenner in Lateinisch Nachschlagetabelle 16 Subtabelle" five.dnom
Substitution2: "'numr' Z+AOQA-hler in Lateinisch Nachschlagetabelle 15 Subtabelle" five.numr
Substitution2: "'sups' Hochgestellt in Lateinisch Nachschlagetabelle 14 Subtabelle" uni2075
Substitution2: "'subs' Tiefgestellt in Lateinisch Nachschlagetabelle 13 Subtabelle" uni2085
Substitution2: "'pnum' Proportionalziffern in Lateinisch Nachschlagetabelle 12 Subtabelle" five.lf
AlternateSubs2: "'aalt' Zugriff auf alle Alternativen in Lateinisch Nachschlagetabelle 1 Subtabelle" five.lf uni2085 uni2075 five.numr five.dnom
EndChar

StartChar: six
Encoding: 54 54 292
Width: 400
Flags: W
LayerCount: 2
Fore
SplineSet
79 36 m 128,-1,1
 36 82 36 82 36 166 c 2,2,-1
 36 528 l 2,3,4
 36 710 36 710 204 710 c 0,5,6
 284 710 284 710 326 664.5 c 128,-1,7
 368 619 368 619 368 534 c 2,8,-1
 368 521 l 1,9,-1
 264 521 l 1,10,-1
 264 541 l 2,11,12
 264 610 264 610 207 610 c 0,13,14
 176 610 176 610 161 591 c 128,-1,15
 146 572 146 572 146 524 c 2,16,-1
 146 390 l 1,17,-1
 148 390 l 1,18,19
 177 451 177 451 248 451 c 0,20,21
 308 451 308 451 339 410 c 128,-1,22
 370 369 370 369 370 291 c 2,23,-1
 370 166 l 2,24,25
 370 82 370 82 327 36 c 128,-1,26
 284 -10 284 -10 203 -10 c 256,27,0
 122 -10 122 -10 79 36 c 128,-1,1
260 158 m 2,29,-1
 260 282 l 2,30,31
 260 351 260 351 203 351 c 256,32,33
 146 351 146 351 146 282 c 2,34,-1
 146 158 l 2,35,36
 146 90 146 90 203 90 c 256,37,28
 260 90 260 90 260 158 c 2,29,-1
EndSplineSet
Validated: 1
Substitution2: "'frac' Diagonale Br+APwA-che in Lateinisch Nachschlagetabelle 18 Subtabelle" six.numr
Substitution2: "'dnom' Nenner in Lateinisch Nachschlagetabelle 16 Subtabelle" six.dnom
Substitution2: "'numr' Z+AOQA-hler in Lateinisch Nachschlagetabelle 15 Subtabelle" six.numr
Substitution2: "'sups' Hochgestellt in Lateinisch Nachschlagetabelle 14 Subtabelle" uni2076
Substitution2: "'subs' Tiefgestellt in Lateinisch Nachschlagetabelle 13 Subtabelle" uni2086
Substitution2: "'pnum' Proportionalziffern in Lateinisch Nachschlagetabelle 12 Subtabelle" six.lf
AlternateSubs2: "'aalt' Zugriff auf alle Alternativen in Lateinisch Nachschlagetabelle 1 Subtabelle" six.lf uni2086 uni2076 six.numr six.dnom
EndChar

StartChar: seven
Encoding: 55 55 293
Width: 400
Flags: W
LayerCount: 2
Fore
SplineSet
256 600 m 1,0,-1
 34 600 l 1,1,-1
 34 700 l 1,2,-1
 364 700 l 1,3,-1
 364 604 l 1,4,-1
 192 0 l 1,5,-1
 80 0 l 1,6,-1
 256 600 l 1,0,-1
EndSplineSet
Validated: 1
Substitution2: "'frac' Diagonale Br+APwA-che in Lateinisch Nachschlagetabelle 18 Subtabelle" seven.numr
Substitution2: "'dnom' Nenner in Lateinisch Nachschlagetabelle 16 Subtabelle" seven.dnom
Substitution2: "'numr' Z+AOQA-hler in Lateinisch Nachschlagetabelle 15 Subtabelle" seven.numr
Substitution2: "'sups' Hochgestellt in Lateinisch Nachschlagetabelle 14 Subtabelle" uni2077
Substitution2: "'subs' Tiefgestellt in Lateinisch Nachschlagetabelle 13 Subtabelle" uni2087
Substitution2: "'pnum' Proportionalziffern in Lateinisch Nachschlagetabelle 12 Subtabelle" seven.lf
AlternateSubs2: "'aalt' Zugriff auf alle Alternativen in Lateinisch Nachschlagetabelle 1 Subtabelle" seven.lf uni2087 uni2077 seven.numr seven.dnom
EndChar

StartChar: eight
Encoding: 56 56 294
Width: 400
Flags: W
LayerCount: 2
Fore
SplineSet
72.5 34.5 m 128,-1,1
 28 79 28 79 28 163 c 2,2,-1
 28 225 l 2,3,4
 28 277 28 277 45 312.5 c 128,-1,5
 62 348 62 348 100 368 c 1,6,-1
 100 370 l 1,7,8
 65 389 65 389 48.5 422.5 c 128,-1,9
 32 456 32 456 32 508 c 2,10,-1
 32 537 l 2,11,12
 32 621 32 621 75.5 665.5 c 128,-1,13
 119 710 119 710 200 710 c 256,14,15
 281 710 281 710 324.5 665.5 c 128,-1,16
 368 621 368 621 368 537 c 2,17,-1
 368 508 l 2,18,19
 368 408 368 408 300 370 c 1,20,-1
 300 368 l 1,21,22
 338 348 338 348 355 312.5 c 128,-1,23
 372 277 372 277 372 225 c 2,24,-1
 372 163 l 2,25,26
 372 79 372 79 327.5 34.5 c 128,-1,27
 283 -10 283 -10 200 -10 c 256,28,0
 117 -10 117 -10 72.5 34.5 c 128,-1,1
258 485 m 2,30,-1
 258 540 l 2,31,32
 258 610 258 610 200 610 c 256,33,34
 142 610 142 610 142 540 c 2,35,-1
 142 485 l 2,36,37
 142 415 142 415 200 415 c 256,38,29
 258 415 258 415 258 485 c 2,30,-1
262 169 m 2,40,-1
 262 236 l 2,41,42
 262 315 262 315 200 315 c 256,43,44
 138 315 138 315 138 236 c 2,45,-1
 138 169 l 2,46,47
 138 90 138 90 200 90 c 256,48,39
 262 90 262 90 262 169 c 2,40,-1
EndSplineSet
Validated: 1
Substitution2: "'frac' Diagonale Br+APwA-che in Lateinisch Nachschlagetabelle 18 Subtabelle" eight.numr
Substitution2: "'dnom' Nenner in Lateinisch Nachschlagetabelle 16 Subtabelle" eight.dnom
Substitution2: "'numr' Z+AOQA-hler in Lateinisch Nachschlagetabelle 15 Subtabelle" eight.numr
Substitution2: "'sups' Hochgestellt in Lateinisch Nachschlagetabelle 14 Subtabelle" uni2078
Substitution2: "'subs' Tiefgestellt in Lateinisch Nachschlagetabelle 13 Subtabelle" uni2088
Substitution2: "'pnum' Proportionalziffern in Lateinisch Nachschlagetabelle 12 Subtabelle" eight.lf
AlternateSubs2: "'aalt' Zugriff auf alle Alternativen in Lateinisch Nachschlagetabelle 1 Subtabelle" eight.lf uni2088 uni2078 eight.numr eight.dnom
EndChar

StartChar: nine
Encoding: 57 57 295
Width: 400
Flags: W
LayerCount: 2
Fore
SplineSet
74 35.5 m 128,-1,1
 32 81 32 81 32 166 c 2,2,-1
 32 179 l 1,3,-1
 136 179 l 1,4,-1
 136 159 l 2,5,6
 136 90 136 90 193 90 c 0,7,8
 224 90 224 90 239 109 c 128,-1,9
 254 128 254 128 254 176 c 2,10,-1
 254 310 l 1,11,-1
 252 310 l 1,12,13
 223 249 223 249 152 249 c 0,14,15
 92 249 92 249 61 290 c 128,-1,16
 30 331 30 331 30 409 c 2,17,-1
 30 534 l 2,18,19
 30 618 30 618 73 664 c 128,-1,20
 116 710 116 710 197 710 c 256,21,22
 278 710 278 710 321 664 c 128,-1,23
 364 618 364 618 364 534 c 2,24,-1
 364 172 l 2,25,26
 364 -10 364 -10 196 -10 c 0,27,0
 116 -10 116 -10 74 35.5 c 128,-1,1
254 418 m 2,29,-1
 254 542 l 2,30,31
 254 610 254 610 197 610 c 256,32,33
 140 610 140 610 140 542 c 2,34,-1
 140 418 l 2,35,36
 140 349 140 349 197 349 c 256,37,28
 254 349 254 349 254 418 c 2,29,-1
EndSplineSet
Validated: 1
Substitution2: "'frac' Diagonale Br+APwA-che in Lateinisch Nachschlagetabelle 18 Subtabelle" nine.numr
Substitution2: "'dnom' Nenner in Lateinisch Nachschlagetabelle 16 Subtabelle" nine.dnom
Substitution2: "'numr' Z+AOQA-hler in Lateinisch Nachschlagetabelle 15 Subtabelle" nine.numr
Substitution2: "'sups' Hochgestellt in Lateinisch Nachschlagetabelle 14 Subtabelle" uni2079
Substitution2: "'subs' Tiefgestellt in Lateinisch Nachschlagetabelle 13 Subtabelle" uni2089
Substitution2: "'pnum' Proportionalziffern in Lateinisch Nachschlagetabelle 12 Subtabelle" nine.lf
AlternateSubs2: "'aalt' Zugriff auf alle Alternativen in Lateinisch Nachschlagetabelle 1 Subtabelle" nine.lf uni2089 uni2079 nine.numr nine.dnom
EndChar

StartChar: uni2080
Encoding: 427 8320 306
Width: 282
Flags: W
LayerCount: 2
Fore
SplineSet
62 -46 m 128,-1,1
 35 -17 35 -17 35 37 c 2,2,-1
 35 277 l 2,3,4
 35 331 35 331 62 360 c 128,-1,5
 89 389 89 389 141 389 c 256,6,7
 193 389 193 389 220 360 c 128,-1,8
 247 331 247 331 247 277 c 2,9,-1
 247 37 l 2,10,11
 247 -17 247 -17 220 -46 c 128,-1,12
 193 -75 193 -75 141 -75 c 256,13,0
 89 -75 89 -75 62 -46 c 128,-1,1
177 32 m 2,15,-1
 177 282 l 2,16,17
 177 326 177 326 141 326 c 256,18,19
 105 326 105 326 105 282 c 2,20,-1
 105 32 l 2,21,22
 105 -12 105 -12 141 -12 c 256,23,14
 177 -12 177 -12 177 32 c 2,15,-1
EndSplineSet
Validated: 1
EndChar

StartChar: uni2081
Encoding: 428 8321 307
Width: 282
Flags: W
LayerCount: 2
Fore
SplineSet
132 274 m 1,0,-1
 58 274 l 1,1,-1
 58 323 l 1,2,3
 101 323 101 323 121.5 335 c 128,-1,4
 142 347 142 347 156 379 c 1,5,-1
 202 379 l 1,6,-1
 202 -65 l 1,7,-1
 132 -65 l 1,8,-1
 132 274 l 1,0,-1
EndSplineSet
Validated: 1
EndChar

StartChar: uni2082
Encoding: 429 8322 308
Width: 282
Flags: W
LayerCount: 2
Fore
SplineSet
38 -15 m 2,0,1
 38 33 38 33 53 67.5 c 128,-1,2
 68 102 68 102 107 144 c 0,3,4
 146 184 146 184 161 214 c 128,-1,5
 176 244 176 244 176 279 c 0,6,7
 176 303 176 303 167.5 314.5 c 128,-1,8
 159 326 159 326 140 326 c 0,9,10
 104 326 104 326 104 282 c 2,11,-1
 104 241 l 1,12,-1
 38 241 l 1,13,-1
 38 278 l 2,14,15
 38 332 38 332 64.5 360.5 c 128,-1,16
 91 389 91 389 142 389 c 256,17,18
 193 389 193 389 219.5 361 c 128,-1,19
 246 333 246 333 246 281 c 0,20,21
 246 238 246 238 227 199.5 c 128,-1,22
 208 161 208 161 160 110 c 0,23,24
 129 76 129 76 118 55.5 c 128,-1,25
 107 35 107 35 107 10 c 2,26,-1
 107 -2 l 1,27,-1
 240 -2 l 1,28,-1
 240 -65 l 1,29,-1
 38 -65 l 1,30,-1
 38 -15 l 2,0,1
EndSplineSet
Validated: 1
EndChar

StartChar: uni2083
Encoding: 430 8323 309
Width: 282
Flags: W
LayerCount: 2
Fore
SplineSet
60.5 -46 m 128,-1,1
 34 -17 34 -17 34 37 c 2,2,-1
 34 74 l 1,3,-1
 100 74 l 1,4,-1
 100 32 l 2,5,6
 100 -12 100 -12 136 -12 c 0,7,8
 154 -12 154 -12 163 -0.5 c 128,-1,9
 172 11 172 11 172 39 c 2,10,-1
 172 79 l 2,11,12
 172 110 172 110 161.5 122.5 c 128,-1,13
 151 135 151 135 127 135 c 2,14,-1
 103 135 l 1,15,-1
 103 198 l 1,16,-1
 130 198 l 2,17,18
 172 198 172 198 172 246 c 2,19,-1
 172 275 l 2,20,21
 172 303 172 303 163 314.5 c 128,-1,22
 154 326 154 326 136 326 c 0,23,24
 100 326 100 326 100 282 c 2,25,-1
 100 255 l 1,26,-1
 34 255 l 1,27,-1
 34 277 l 2,28,29
 34 331 34 331 60.5 360 c 128,-1,30
 87 389 87 389 138 389 c 256,31,32
 189 389 189 389 215.5 360 c 128,-1,33
 242 331 242 331 242 277 c 2,34,-1
 242 258 l 2,35,36
 242 223 242 223 230 201.5 c 128,-1,37
 218 180 218 180 193 169 c 1,38,-1
 193 167 l 1,39,40
 242 146 242 146 242 74 c 2,41,-1
 242 37 l 2,42,43
 242 -17 242 -17 215.5 -46 c 128,-1,44
 189 -75 189 -75 138 -75 c 256,45,0
 87 -75 87 -75 60.5 -46 c 128,-1,1
EndSplineSet
Validated: 1
EndChar

StartChar: uni2084
Encoding: 431 8324 310
Width: 282
Flags: W
LayerCount: 2
Fore
SplineSet
156 15 m 1,0,-1
 23 15 l 1,1,-1
 23 78 l 1,2,-1
 150 379 l 1,3,-1
 226 379 l 1,4,-1
 226 78 l 1,5,-1
 259 78 l 1,6,-1
 259 15 l 1,7,-1
 226 15 l 1,8,-1
 226 -65 l 1,9,-1
 156 -65 l 1,10,-1
 156 15 l 1,0,-1
157 78 m 1,11,-1
 157 253 l 1,12,-1
 155 253 l 1,13,-1
 86 78 l 1,14,-1
 157 78 l 1,11,-1
EndSplineSet
Validated: 1
EndChar

StartChar: uni2085
Encoding: 432 8325 311
Width: 282
Flags: W
LayerCount: 2
Fore
SplineSet
64.5 -46 m 128,-1,1
 38 -17 38 -17 38 37 c 2,2,-1
 38 62 l 1,3,-1
 104 62 l 1,4,-1
 104 33 l 2,5,6
 104 -10 104 -10 140 -10 c 256,7,8
 176 -10 176 -10 176 33 c 2,9,-1
 176 133 l 2,10,11
 176 177 176 177 140 177 c 256,12,13
 104 177 104 177 104 133 c 2,14,-1
 104 124 l 1,15,-1
 38 124 l 1,16,-1
 51 379 l 1,17,-1
 235 379 l 1,18,-1
 235 316 l 1,19,-1
 112 316 l 1,20,-1
 107 208 l 1,21,-1
 109 208 l 1,22,23
 128 241 128 241 169 241 c 0,24,25
 207 241 207 241 226.5 214.5 c 128,-1,26
 246 188 246 188 246 139 c 2,27,-1
 246 37 l 2,28,29
 246 -17 246 -17 219.5 -46 c 128,-1,30
 193 -75 193 -75 142 -75 c 256,31,0
 91 -75 91 -75 64.5 -46 c 128,-1,1
EndSplineSet
Validated: 1
EndChar

StartChar: uni2086
Encoding: 433 8326 312
Width: 282
Flags: W
LayerCount: 2
Fore
SplineSet
64.5 -46 m 128,-1,1
 37 -17 37 -17 37 37 c 2,2,-1
 37 274 l 2,3,4
 37 389 37 389 144 389 c 0,5,6
 195 389 195 389 221.5 360 c 128,-1,7
 248 331 248 331 248 277 c 2,8,-1
 248 271 l 1,9,-1
 182 271 l 1,10,-1
 182 282 l 2,11,12
 182 326 182 326 146 326 c 0,13,14
 126 326 126 326 116.5 314 c 128,-1,15
 107 302 107 302 107 271 c 2,16,-1
 107 179 l 1,17,-1
 109 179 l 1,18,19
 127 217 127 217 172 217 c 0,20,21
 210 217 210 217 229.5 191 c 128,-1,22
 249 165 249 165 249 116 c 2,23,-1
 249 37 l 2,24,25
 249 -17 249 -17 221.5 -46 c 128,-1,26
 194 -75 194 -75 143 -75 c 256,27,0
 92 -75 92 -75 64.5 -46 c 128,-1,1
179 31 m 2,29,-1
 179 110 l 2,30,31
 179 154 179 154 143 154 c 256,32,33
 107 154 107 154 107 110 c 2,34,-1
 107 31 l 2,35,36
 107 -12 107 -12 143 -12 c 256,37,28
 179 -12 179 -12 179 31 c 2,29,-1
EndSplineSet
Validated: 1
EndChar

StartChar: uni2087
Encoding: 434 8327 313
Width: 282
Flags: W
LayerCount: 2
Fore
SplineSet
177 316 m 1,0,-1
 35 316 l 1,1,-1
 35 379 l 1,2,-1
 245 379 l 1,3,-1
 245 318 l 1,4,-1
 134 -65 l 1,5,-1
 64 -65 l 1,6,-1
 177 316 l 1,0,-1
EndSplineSet
Validated: 1
EndChar

StartChar: uni2088
Encoding: 435 8328 314
Width: 282
Flags: W
LayerCount: 2
Fore
SplineSet
60.5 -45.5 m 128,-1,1
 32 -16 32 -16 32 37 c 2,2,-1
 32 72 l 2,3,4
 32 140 32 140 75 164 c 1,5,-1
 75 166 l 1,6,7
 32 190 32 190 32 254 c 2,8,-1
 32 277 l 2,9,10
 32 330 32 330 60.5 359.5 c 128,-1,11
 89 389 89 389 141 389 c 256,12,13
 193 389 193 389 221.5 359.5 c 128,-1,14
 250 330 250 330 250 277 c 2,15,-1
 250 254 l 2,16,17
 250 190 250 190 207 166 c 1,18,-1
 207 164 l 1,19,20
 250 140 250 140 250 72 c 2,21,-1
 250 37 l 2,22,23
 250 -16 250 -16 221.5 -45.5 c 128,-1,24
 193 -75 193 -75 141 -75 c 256,25,0
 89 -75 89 -75 60.5 -45.5 c 128,-1,1
180 245 m 2,27,-1
 180 279 l 2,28,29
 180 326 180 326 141 326 c 256,30,31
 102 326 102 326 102 279 c 2,32,-1
 102 245 l 2,33,34
 102 198 102 198 141 198 c 256,35,26
 180 198 180 198 180 245 c 2,27,-1
180 38 m 2,37,-1
 180 85 l 2,38,39
 180 135 180 135 141 135 c 256,40,41
 102 135 102 135 102 85 c 2,42,-1
 102 38 l 2,43,44
 102 -12 102 -12 141 -12 c 256,45,36
 180 -12 180 -12 180 38 c 2,37,-1
EndSplineSet
Validated: 1
EndChar

StartChar: uni2089
Encoding: 436 8329 315
Width: 282
Flags: W
LayerCount: 2
Fore
SplineSet
60.5 -46 m 128,-1,1
 34 -17 34 -17 34 37 c 2,2,-1
 34 43 l 1,3,-1
 100 43 l 1,4,-1
 100 32 l 2,5,6
 100 -12 100 -12 136 -12 c 0,7,8
 156 -12 156 -12 165.5 0 c 128,-1,9
 175 12 175 12 175 43 c 2,10,-1
 175 135 l 1,11,-1
 173 135 l 1,12,13
 155 97 155 97 110 97 c 0,14,15
 72 97 72 97 52.5 123 c 128,-1,16
 33 149 33 149 33 198 c 2,17,-1
 33 277 l 2,18,19
 33 331 33 331 60.5 360 c 128,-1,20
 88 389 88 389 139 389 c 256,21,22
 190 389 190 389 217.5 360 c 128,-1,23
 245 331 245 331 245 277 c 2,24,-1
 245 40 l 2,25,26
 245 -75 245 -75 138 -75 c 0,27,0
 87 -75 87 -75 60.5 -46 c 128,-1,1
175 204 m 2,29,-1
 175 283 l 2,30,31
 175 326 175 326 139 326 c 256,32,33
 103 326 103 326 103 283 c 2,34,-1
 103 204 l 2,35,36
 103 160 103 160 139 160 c 256,37,28
 175 160 175 160 175 204 c 2,29,-1
EndSplineSet
Validated: 1
EndChar

StartChar: zero.dnom
Encoding: 437 -1 316
Width: 282
Flags: W
LayerCount: 2
Fore
SplineSet
62 19 m 128,-1,1
 35 48 35 48 35 102 c 2,2,-1
 35 342 l 2,3,4
 35 396 35 396 62 425 c 128,-1,5
 89 454 89 454 141 454 c 256,6,7
 193 454 193 454 220 425 c 128,-1,8
 247 396 247 396 247 342 c 2,9,-1
 247 102 l 2,10,11
 247 48 247 48 220 19 c 128,-1,12
 193 -10 193 -10 141 -10 c 256,13,0
 89 -10 89 -10 62 19 c 128,-1,1
177 97 m 2,15,-1
 177 347 l 2,16,17
 177 391 177 391 141 391 c 256,18,19
 105 391 105 391 105 347 c 2,20,-1
 105 97 l 2,21,22
 105 53 105 53 141 53 c 256,23,14
 177 53 177 53 177 97 c 2,15,-1
EndSplineSet
Validated: 1
EndChar

StartChar: one.dnom
Encoding: 438 -1 317
Width: 282
Flags: W
LayerCount: 2
Fore
SplineSet
132 339 m 1,0,-1
 58 339 l 1,1,-1
 58 388 l 1,2,3
 101 388 101 388 121.5 400 c 128,-1,4
 142 412 142 412 156 444 c 1,5,-1
 202 444 l 1,6,-1
 202 0 l 1,7,-1
 132 0 l 1,8,-1
 132 339 l 1,0,-1
EndSplineSet
Validated: 1
EndChar

StartChar: two.dnom
Encoding: 439 -1 318
Width: 282
Flags: W
LayerCount: 2
Fore
SplineSet
38 50 m 2,0,1
 38 98 38 98 53 132.5 c 128,-1,2
 68 167 68 167 107 209 c 0,3,4
 146 249 146 249 161 279 c 128,-1,5
 176 309 176 309 176 344 c 0,6,7
 176 368 176 368 167.5 379.5 c 128,-1,8
 159 391 159 391 140 391 c 0,9,10
 104 391 104 391 104 347 c 2,11,-1
 104 306 l 1,12,-1
 38 306 l 1,13,-1
 38 343 l 2,14,15
 38 397 38 397 64.5 425.5 c 128,-1,16
 91 454 91 454 142 454 c 256,17,18
 193 454 193 454 219.5 426 c 128,-1,19
 246 398 246 398 246 346 c 0,20,21
 246 303 246 303 227 264.5 c 128,-1,22
 208 226 208 226 160 175 c 0,23,24
 129 141 129 141 118 120.5 c 128,-1,25
 107 100 107 100 107 75 c 2,26,-1
 107 63 l 1,27,-1
 240 63 l 1,28,-1
 240 0 l 1,29,-1
 38 0 l 1,30,-1
 38 50 l 2,0,1
EndSplineSet
Validated: 1
EndChar

StartChar: three.dnom
Encoding: 440 -1 319
Width: 282
Flags: W
LayerCount: 2
Fore
SplineSet
60.5 19 m 128,-1,1
 34 48 34 48 34 102 c 2,2,-1
 34 139 l 1,3,-1
 100 139 l 1,4,-1
 100 97 l 2,5,6
 100 53 100 53 136 53 c 0,7,8
 154 53 154 53 163 64.5 c 128,-1,9
 172 76 172 76 172 104 c 2,10,-1
 172 144 l 2,11,12
 172 175 172 175 161.5 187.5 c 128,-1,13
 151 200 151 200 127 200 c 2,14,-1
 103 200 l 1,15,-1
 103 263 l 1,16,-1
 130 263 l 2,17,18
 172 263 172 263 172 311 c 2,19,-1
 172 340 l 2,20,21
 172 368 172 368 163 379.5 c 128,-1,22
 154 391 154 391 136 391 c 0,23,24
 100 391 100 391 100 347 c 2,25,-1
 100 320 l 1,26,-1
 34 320 l 1,27,-1
 34 342 l 2,28,29
 34 396 34 396 60.5 425 c 128,-1,30
 87 454 87 454 138 454 c 256,31,32
 189 454 189 454 215.5 425 c 128,-1,33
 242 396 242 396 242 342 c 2,34,-1
 242 323 l 2,35,36
 242 288 242 288 230 266.5 c 128,-1,37
 218 245 218 245 193 234 c 1,38,-1
 193 232 l 1,39,40
 242 211 242 211 242 139 c 2,41,-1
 242 102 l 2,42,43
 242 48 242 48 215.5 19 c 128,-1,44
 189 -10 189 -10 138 -10 c 256,45,0
 87 -10 87 -10 60.5 19 c 128,-1,1
EndSplineSet
Validated: 1
EndChar

StartChar: four.dnom
Encoding: 441 -1 320
Width: 282
Flags: W
LayerCount: 2
Fore
SplineSet
156 80 m 1,0,-1
 23 80 l 1,1,-1
 23 143 l 1,2,-1
 150 444 l 1,3,-1
 226 444 l 1,4,-1
 226 143 l 1,5,-1
 259 143 l 1,6,-1
 259 80 l 1,7,-1
 226 80 l 1,8,-1
 226 0 l 1,9,-1
 156 0 l 1,10,-1
 156 80 l 1,0,-1
157 143 m 1,11,-1
 157 318 l 1,12,-1
 155 318 l 1,13,-1
 86 143 l 1,14,-1
 157 143 l 1,11,-1
EndSplineSet
Validated: 1
EndChar

StartChar: five.dnom
Encoding: 442 -1 321
Width: 282
Flags: W
LayerCount: 2
Fore
SplineSet
64.5 19 m 128,-1,1
 38 48 38 48 38 102 c 2,2,-1
 38 127 l 1,3,-1
 104 127 l 1,4,-1
 104 98 l 2,5,6
 104 55 104 55 140 55 c 256,7,8
 176 55 176 55 176 98 c 2,9,-1
 176 198 l 2,10,11
 176 242 176 242 140 242 c 256,12,13
 104 242 104 242 104 198 c 2,14,-1
 104 189 l 1,15,-1
 38 189 l 1,16,-1
 51 444 l 1,17,-1
 235 444 l 1,18,-1
 235 381 l 1,19,-1
 112 381 l 1,20,-1
 107 273 l 1,21,-1
 109 273 l 1,22,23
 128 306 128 306 169 306 c 0,24,25
 207 306 207 306 226.5 279.5 c 128,-1,26
 246 253 246 253 246 204 c 2,27,-1
 246 102 l 2,28,29
 246 48 246 48 219.5 19 c 128,-1,30
 193 -10 193 -10 142 -10 c 256,31,0
 91 -10 91 -10 64.5 19 c 128,-1,1
EndSplineSet
Validated: 1
EndChar

StartChar: six.dnom
Encoding: 443 -1 322
Width: 282
Flags: W
LayerCount: 2
Fore
SplineSet
64.5 19 m 128,-1,1
 37 48 37 48 37 102 c 2,2,-1
 37 339 l 2,3,4
 37 454 37 454 144 454 c 0,5,6
 195 454 195 454 221.5 425 c 128,-1,7
 248 396 248 396 248 342 c 2,8,-1
 248 336 l 1,9,-1
 182 336 l 1,10,-1
 182 347 l 2,11,12
 182 391 182 391 146 391 c 0,13,14
 126 391 126 391 116.5 379 c 128,-1,15
 107 367 107 367 107 336 c 2,16,-1
 107 244 l 1,17,-1
 109 244 l 1,18,19
 127 282 127 282 172 282 c 0,20,21
 210 282 210 282 229.5 256 c 128,-1,22
 249 230 249 230 249 181 c 2,23,-1
 249 102 l 2,24,25
 249 48 249 48 221.5 19 c 128,-1,26
 194 -10 194 -10 143 -10 c 256,27,0
 92 -10 92 -10 64.5 19 c 128,-1,1
179 96 m 2,29,-1
 179 175 l 2,30,31
 179 219 179 219 143 219 c 256,32,33
 107 219 107 219 107 175 c 2,34,-1
 107 96 l 2,35,36
 107 53 107 53 143 53 c 256,37,28
 179 53 179 53 179 96 c 2,29,-1
EndSplineSet
Validated: 1
EndChar

StartChar: seven.dnom
Encoding: 444 -1 323
Width: 282
Flags: W
LayerCount: 2
Fore
SplineSet
177 381 m 1,0,-1
 35 381 l 1,1,-1
 35 444 l 1,2,-1
 245 444 l 1,3,-1
 245 383 l 1,4,-1
 134 0 l 1,5,-1
 64 0 l 1,6,-1
 177 381 l 1,0,-1
EndSplineSet
Validated: 1
EndChar

StartChar: eight.dnom
Encoding: 445 -1 324
Width: 282
Flags: W
LayerCount: 2
Fore
SplineSet
60.5 19.5 m 128,-1,1
 32 49 32 49 32 102 c 2,2,-1
 32 137 l 2,3,4
 32 205 32 205 75 229 c 1,5,-1
 75 231 l 1,6,7
 32 255 32 255 32 319 c 2,8,-1
 32 342 l 2,9,10
 32 395 32 395 60.5 424.5 c 128,-1,11
 89 454 89 454 141 454 c 256,12,13
 193 454 193 454 221.5 424.5 c 128,-1,14
 250 395 250 395 250 342 c 2,15,-1
 250 319 l 2,16,17
 250 255 250 255 207 231 c 1,18,-1
 207 229 l 1,19,20
 250 205 250 205 250 137 c 2,21,-1
 250 102 l 2,22,23
 250 49 250 49 221.5 19.5 c 128,-1,24
 193 -10 193 -10 141 -10 c 256,25,0
 89 -10 89 -10 60.5 19.5 c 128,-1,1
180 310 m 2,27,-1
 180 344 l 2,28,29
 180 391 180 391 141 391 c 256,30,31
 102 391 102 391 102 344 c 2,32,-1
 102 310 l 2,33,34
 102 263 102 263 141 263 c 256,35,26
 180 263 180 263 180 310 c 2,27,-1
180 103 m 2,37,-1
 180 150 l 2,38,39
 180 200 180 200 141 200 c 256,40,41
 102 200 102 200 102 150 c 2,42,-1
 102 103 l 2,43,44
 102 53 102 53 141 53 c 256,45,36
 180 53 180 53 180 103 c 2,37,-1
EndSplineSet
Validated: 1
EndChar

StartChar: nine.dnom
Encoding: 446 -1 325
Width: 282
Flags: W
LayerCount: 2
Fore
SplineSet
60.5 19 m 128,-1,1
 34 48 34 48 34 102 c 2,2,-1
 34 108 l 1,3,-1
 100 108 l 1,4,-1
 100 97 l 2,5,6
 100 53 100 53 136 53 c 0,7,8
 156 53 156 53 165.5 65 c 128,-1,9
 175 77 175 77 175 108 c 2,10,-1
 175 200 l 1,11,-1
 173 200 l 1,12,13
 155 162 155 162 110 162 c 0,14,15
 72 162 72 162 52.5 188 c 128,-1,16
 33 214 33 214 33 263 c 2,17,-1
 33 342 l 2,18,19
 33 396 33 396 60.5 425 c 128,-1,20
 88 454 88 454 139 454 c 256,21,22
 190 454 190 454 217.5 425 c 128,-1,23
 245 396 245 396 245 342 c 2,24,-1
 245 105 l 2,25,26
 245 -10 245 -10 138 -10 c 0,27,0
 87 -10 87 -10 60.5 19 c 128,-1,1
175 269 m 2,29,-1
 175 348 l 2,30,31
 175 391 175 391 139 391 c 256,32,33
 103 391 103 391 103 348 c 2,34,-1
 103 269 l 2,35,36
 103 225 103 225 139 225 c 256,37,28
 175 225 175 225 175 269 c 2,29,-1
EndSplineSet
Validated: 1
EndChar

StartChar: zero.numr
Encoding: 447 -1 326
Width: 282
Flags: W
LayerCount: 2
Fore
SplineSet
62 275 m 128,-1,1
 35 304 35 304 35 358 c 2,2,-1
 35 598 l 2,3,4
 35 652 35 652 62 681 c 128,-1,5
 89 710 89 710 141 710 c 256,6,7
 193 710 193 710 220 681 c 128,-1,8
 247 652 247 652 247 598 c 2,9,-1
 247 358 l 2,10,11
 247 304 247 304 220 275 c 128,-1,12
 193 246 193 246 141 246 c 256,13,0
 89 246 89 246 62 275 c 128,-1,1
177 353 m 2,15,-1
 177 603 l 2,16,17
 177 647 177 647 141 647 c 256,18,19
 105 647 105 647 105 603 c 2,20,-1
 105 353 l 2,21,22
 105 309 105 309 141 309 c 256,23,14
 177 309 177 309 177 353 c 2,15,-1
EndSplineSet
Validated: 1
Substitution2: "Einzelne Substitution Nachschlagetabelle 26 Subtabelle" zero.dnom
Substitution2: "'aalt' Zugriff auf alle Alternativen in Lateinisch Nachschlagetabelle 0 Subtabelle" zero.dnom
EndChar

StartChar: one.numr
Encoding: 448 -1 327
Width: 282
Flags: W
LayerCount: 2
Fore
SplineSet
132 595 m 1,0,-1
 58 595 l 1,1,-1
 58 644 l 1,2,3
 101 644 101 644 121.5 656 c 128,-1,4
 142 668 142 668 156 700 c 1,5,-1
 202 700 l 1,6,-1
 202 256 l 1,7,-1
 132 256 l 1,8,-1
 132 595 l 1,0,-1
EndSplineSet
Validated: 1
Substitution2: "Einzelne Substitution Nachschlagetabelle 26 Subtabelle" one.dnom
Substitution2: "'aalt' Zugriff auf alle Alternativen in Lateinisch Nachschlagetabelle 0 Subtabelle" one.dnom
EndChar

StartChar: two.numr
Encoding: 449 -1 328
Width: 282
Flags: W
LayerCount: 2
Fore
SplineSet
38 306 m 2,0,1
 38 354 38 354 53 388.5 c 128,-1,2
 68 423 68 423 107 465 c 0,3,4
 146 505 146 505 161 535 c 128,-1,5
 176 565 176 565 176 600 c 0,6,7
 176 624 176 624 167.5 635.5 c 128,-1,8
 159 647 159 647 140 647 c 0,9,10
 104 647 104 647 104 603 c 2,11,-1
 104 562 l 1,12,-1
 38 562 l 1,13,-1
 38 599 l 2,14,15
 38 653 38 653 64.5 681.5 c 128,-1,16
 91 710 91 710 142 710 c 256,17,18
 193 710 193 710 219.5 682 c 128,-1,19
 246 654 246 654 246 602 c 0,20,21
 246 559 246 559 227 520.5 c 128,-1,22
 208 482 208 482 160 431 c 0,23,24
 129 397 129 397 118 376.5 c 128,-1,25
 107 356 107 356 107 331 c 2,26,-1
 107 319 l 1,27,-1
 240 319 l 1,28,-1
 240 256 l 1,29,-1
 38 256 l 1,30,-1
 38 306 l 2,0,1
EndSplineSet
Validated: 1
Substitution2: "Einzelne Substitution Nachschlagetabelle 26 Subtabelle" two.dnom
Substitution2: "'aalt' Zugriff auf alle Alternativen in Lateinisch Nachschlagetabelle 0 Subtabelle" two.dnom
EndChar

StartChar: three.numr
Encoding: 450 -1 329
Width: 282
Flags: W
LayerCount: 2
Fore
SplineSet
60.5 275 m 128,-1,1
 34 304 34 304 34 358 c 2,2,-1
 34 395 l 1,3,-1
 100 395 l 1,4,-1
 100 353 l 2,5,6
 100 309 100 309 136 309 c 0,7,8
 154 309 154 309 163 320.5 c 128,-1,9
 172 332 172 332 172 360 c 2,10,-1
 172 400 l 2,11,12
 172 431 172 431 161.5 443.5 c 128,-1,13
 151 456 151 456 127 456 c 2,14,-1
 103 456 l 1,15,-1
 103 519 l 1,16,-1
 130 519 l 2,17,18
 172 519 172 519 172 567 c 2,19,-1
 172 596 l 2,20,21
 172 624 172 624 163 635.5 c 128,-1,22
 154 647 154 647 136 647 c 0,23,24
 100 647 100 647 100 603 c 2,25,-1
 100 576 l 1,26,-1
 34 576 l 1,27,-1
 34 598 l 2,28,29
 34 652 34 652 60.5 681 c 128,-1,30
 87 710 87 710 138 710 c 256,31,32
 189 710 189 710 215.5 681 c 128,-1,33
 242 652 242 652 242 598 c 2,34,-1
 242 579 l 2,35,36
 242 544 242 544 230 522.5 c 128,-1,37
 218 501 218 501 193 490 c 1,38,-1
 193 488 l 1,39,40
 242 467 242 467 242 395 c 2,41,-1
 242 358 l 2,42,43
 242 304 242 304 215.5 275 c 128,-1,44
 189 246 189 246 138 246 c 256,45,0
 87 246 87 246 60.5 275 c 128,-1,1
EndSplineSet
Validated: 1
Substitution2: "Einzelne Substitution Nachschlagetabelle 26 Subtabelle" three.dnom
Substitution2: "'aalt' Zugriff auf alle Alternativen in Lateinisch Nachschlagetabelle 0 Subtabelle" three.dnom
EndChar

StartChar: four.numr
Encoding: 451 -1 330
Width: 282
Flags: W
LayerCount: 2
Fore
SplineSet
156 336 m 1,0,-1
 23 336 l 1,1,-1
 23 399 l 1,2,-1
 150 700 l 1,3,-1
 226 700 l 1,4,-1
 226 399 l 1,5,-1
 259 399 l 1,6,-1
 259 336 l 1,7,-1
 226 336 l 1,8,-1
 226 256 l 1,9,-1
 156 256 l 1,10,-1
 156 336 l 1,0,-1
157 399 m 1,11,-1
 157 574 l 1,12,-1
 155 574 l 1,13,-1
 86 399 l 1,14,-1
 157 399 l 1,11,-1
EndSplineSet
Validated: 1
Substitution2: "Einzelne Substitution Nachschlagetabelle 26 Subtabelle" four.dnom
Substitution2: "'aalt' Zugriff auf alle Alternativen in Lateinisch Nachschlagetabelle 0 Subtabelle" four.dnom
EndChar

StartChar: five.numr
Encoding: 452 -1 331
Width: 282
Flags: W
LayerCount: 2
Fore
SplineSet
64.5 275 m 128,-1,1
 38 304 38 304 38 358 c 2,2,-1
 38 383 l 1,3,-1
 104 383 l 1,4,-1
 104 354 l 2,5,6
 104 311 104 311 140 311 c 256,7,8
 176 311 176 311 176 354 c 2,9,-1
 176 454 l 2,10,11
 176 498 176 498 140 498 c 256,12,13
 104 498 104 498 104 454 c 2,14,-1
 104 445 l 1,15,-1
 38 445 l 1,16,-1
 51 700 l 1,17,-1
 235 700 l 1,18,-1
 235 637 l 1,19,-1
 112 637 l 1,20,-1
 107 529 l 1,21,-1
 109 529 l 1,22,23
 128 562 128 562 169 562 c 0,24,25
 207 562 207 562 226.5 535.5 c 128,-1,26
 246 509 246 509 246 460 c 2,27,-1
 246 358 l 2,28,29
 246 304 246 304 219.5 275 c 128,-1,30
 193 246 193 246 142 246 c 256,31,0
 91 246 91 246 64.5 275 c 128,-1,1
EndSplineSet
Validated: 1
Substitution2: "Einzelne Substitution Nachschlagetabelle 26 Subtabelle" five.dnom
Substitution2: "'aalt' Zugriff auf alle Alternativen in Lateinisch Nachschlagetabelle 0 Subtabelle" five.dnom
EndChar

StartChar: six.numr
Encoding: 453 -1 332
Width: 282
Flags: W
LayerCount: 2
Fore
SplineSet
64.5 275 m 128,-1,1
 37 304 37 304 37 358 c 2,2,-1
 37 595 l 2,3,4
 37 710 37 710 144 710 c 0,5,6
 195 710 195 710 221.5 681 c 128,-1,7
 248 652 248 652 248 598 c 2,8,-1
 248 592 l 1,9,-1
 182 592 l 1,10,-1
 182 603 l 2,11,12
 182 647 182 647 146 647 c 0,13,14
 126 647 126 647 116.5 635 c 128,-1,15
 107 623 107 623 107 592 c 2,16,-1
 107 500 l 1,17,-1
 109 500 l 1,18,19
 127 538 127 538 172 538 c 0,20,21
 210 538 210 538 229.5 512 c 128,-1,22
 249 486 249 486 249 437 c 2,23,-1
 249 358 l 2,24,25
 249 304 249 304 221.5 275 c 128,-1,26
 194 246 194 246 143 246 c 256,27,0
 92 246 92 246 64.5 275 c 128,-1,1
179 352 m 2,29,-1
 179 431 l 2,30,31
 179 475 179 475 143 475 c 256,32,33
 107 475 107 475 107 431 c 2,34,-1
 107 352 l 2,35,36
 107 309 107 309 143 309 c 256,37,28
 179 309 179 309 179 352 c 2,29,-1
EndSplineSet
Validated: 1
Substitution2: "Einzelne Substitution Nachschlagetabelle 26 Subtabelle" six.dnom
Substitution2: "'aalt' Zugriff auf alle Alternativen in Lateinisch Nachschlagetabelle 0 Subtabelle" six.dnom
EndChar

StartChar: seven.numr
Encoding: 454 -1 333
Width: 282
Flags: W
LayerCount: 2
Fore
SplineSet
177 637 m 1,0,-1
 35 637 l 1,1,-1
 35 700 l 1,2,-1
 245 700 l 1,3,-1
 245 639 l 1,4,-1
 134 256 l 1,5,-1
 64 256 l 1,6,-1
 177 637 l 1,0,-1
EndSplineSet
Validated: 1
Substitution2: "Einzelne Substitution Nachschlagetabelle 26 Subtabelle" seven.dnom
Substitution2: "'aalt' Zugriff auf alle Alternativen in Lateinisch Nachschlagetabelle 0 Subtabelle" seven.dnom
EndChar

StartChar: eight.numr
Encoding: 455 -1 334
Width: 282
Flags: W
LayerCount: 2
Fore
SplineSet
60.5 275.5 m 128,-1,1
 32 305 32 305 32 358 c 2,2,-1
 32 393 l 2,3,4
 32 461 32 461 75 485 c 1,5,-1
 75 487 l 1,6,7
 32 511 32 511 32 575 c 2,8,-1
 32 598 l 2,9,10
 32 651 32 651 60.5 680.5 c 128,-1,11
 89 710 89 710 141 710 c 256,12,13
 193 710 193 710 221.5 680.5 c 128,-1,14
 250 651 250 651 250 598 c 2,15,-1
 250 575 l 2,16,17
 250 511 250 511 207 487 c 1,18,-1
 207 485 l 1,19,20
 250 461 250 461 250 393 c 2,21,-1
 250 358 l 2,22,23
 250 305 250 305 221.5 275.5 c 128,-1,24
 193 246 193 246 141 246 c 256,25,0
 89 246 89 246 60.5 275.5 c 128,-1,1
180 566 m 2,27,-1
 180 600 l 2,28,29
 180 647 180 647 141 647 c 256,30,31
 102 647 102 647 102 600 c 2,32,-1
 102 566 l 2,33,34
 102 519 102 519 141 519 c 256,35,26
 180 519 180 519 180 566 c 2,27,-1
180 359 m 2,37,-1
 180 406 l 2,38,39
 180 456 180 456 141 456 c 256,40,41
 102 456 102 456 102 406 c 2,42,-1
 102 359 l 2,43,44
 102 309 102 309 141 309 c 256,45,36
 180 309 180 309 180 359 c 2,37,-1
EndSplineSet
Validated: 1
Substitution2: "Einzelne Substitution Nachschlagetabelle 26 Subtabelle" eight.dnom
Substitution2: "'aalt' Zugriff auf alle Alternativen in Lateinisch Nachschlagetabelle 0 Subtabelle" eight.dnom
EndChar

StartChar: nine.numr
Encoding: 456 -1 335
Width: 282
Flags: W
LayerCount: 2
Fore
SplineSet
60.5 275 m 128,-1,1
 34 304 34 304 34 358 c 2,2,-1
 34 364 l 1,3,-1
 100 364 l 1,4,-1
 100 353 l 2,5,6
 100 309 100 309 136 309 c 0,7,8
 156 309 156 309 165.5 321 c 128,-1,9
 175 333 175 333 175 364 c 2,10,-1
 175 456 l 1,11,-1
 173 456 l 1,12,13
 155 418 155 418 110 418 c 0,14,15
 72 418 72 418 52.5 444 c 128,-1,16
 33 470 33 470 33 519 c 2,17,-1
 33 598 l 2,18,19
 33 652 33 652 60.5 681 c 128,-1,20
 88 710 88 710 139 710 c 256,21,22
 190 710 190 710 217.5 681 c 128,-1,23
 245 652 245 652 245 598 c 2,24,-1
 245 361 l 2,25,26
 245 246 245 246 138 246 c 0,27,0
 87 246 87 246 60.5 275 c 128,-1,1
175 525 m 2,29,-1
 175 604 l 2,30,31
 175 647 175 647 139 647 c 256,32,33
 103 647 103 647 103 604 c 2,34,-1
 103 525 l 2,35,36
 103 481 103 481 139 481 c 256,37,28
 175 481 175 481 175 525 c 2,29,-1
EndSplineSet
Validated: 1
Substitution2: "Einzelne Substitution Nachschlagetabelle 26 Subtabelle" nine.dnom
Substitution2: "'aalt' Zugriff auf alle Alternativen in Lateinisch Nachschlagetabelle 0 Subtabelle" nine.dnom
EndChar

StartChar: uni2070
Encoding: 457 8304 336
Width: 282
Flags: W
LayerCount: 2
Fore
SplineSet
62 370 m 128,-1,1
 35 399 35 399 35 453 c 2,2,-1
 35 693 l 2,3,4
 35 747 35 747 62 776 c 128,-1,5
 89 805 89 805 141 805 c 256,6,7
 193 805 193 805 220 776 c 128,-1,8
 247 747 247 747 247 693 c 2,9,-1
 247 453 l 2,10,11
 247 399 247 399 220 370 c 128,-1,12
 193 341 193 341 141 341 c 256,13,0
 89 341 89 341 62 370 c 128,-1,1
177 448 m 2,15,-1
 177 698 l 2,16,17
 177 742 177 742 141 742 c 256,18,19
 105 742 105 742 105 698 c 2,20,-1
 105 448 l 2,21,22
 105 404 105 404 141 404 c 256,23,14
 177 404 177 404 177 448 c 2,15,-1
EndSplineSet
Validated: 1
EndChar

StartChar: uni00B9
Encoding: 185 185 337
Width: 282
Flags: W
LayerCount: 2
Fore
SplineSet
132 690 m 1,0,-1
 58 690 l 1,1,-1
 58 739 l 1,2,3
 101 739 101 739 121.5 751 c 128,-1,4
 142 763 142 763 156 795 c 1,5,-1
 202 795 l 1,6,-1
 202 351 l 1,7,-1
 132 351 l 1,8,-1
 132 690 l 1,0,-1
EndSplineSet
Validated: 1
EndChar

StartChar: uni00B2
Encoding: 178 178 338
Width: 282
Flags: W
LayerCount: 2
Fore
SplineSet
38 401 m 2,0,1
 38 449 38 449 53 483.5 c 128,-1,2
 68 518 68 518 107 560 c 0,3,4
 146 600 146 600 161 630 c 128,-1,5
 176 660 176 660 176 695 c 0,6,7
 176 719 176 719 167.5 730.5 c 128,-1,8
 159 742 159 742 140 742 c 0,9,10
 104 742 104 742 104 698 c 2,11,-1
 104 657 l 1,12,-1
 38 657 l 1,13,-1
 38 694 l 2,14,15
 38 748 38 748 64.5 776.5 c 128,-1,16
 91 805 91 805 142 805 c 256,17,18
 193 805 193 805 219.5 777 c 128,-1,19
 246 749 246 749 246 697 c 0,20,21
 246 654 246 654 227 615.5 c 128,-1,22
 208 577 208 577 160 526 c 0,23,24
 129 492 129 492 118 471.5 c 128,-1,25
 107 451 107 451 107 426 c 2,26,-1
 107 414 l 1,27,-1
 240 414 l 1,28,-1
 240 351 l 1,29,-1
 38 351 l 1,30,-1
 38 401 l 2,0,1
EndSplineSet
Validated: 1
EndChar

StartChar: uni00B3
Encoding: 179 179 339
Width: 282
Flags: W
LayerCount: 2
Fore
SplineSet
60.5 370 m 128,-1,1
 34 399 34 399 34 453 c 2,2,-1
 34 490 l 1,3,-1
 100 490 l 1,4,-1
 100 448 l 2,5,6
 100 404 100 404 136 404 c 0,7,8
 154 404 154 404 163 415.5 c 128,-1,9
 172 427 172 427 172 455 c 2,10,-1
 172 495 l 2,11,12
 172 526 172 526 161.5 538.5 c 128,-1,13
 151 551 151 551 127 551 c 2,14,-1
 103 551 l 1,15,-1
 103 614 l 1,16,-1
 130 614 l 2,17,18
 172 614 172 614 172 662 c 2,19,-1
 172 691 l 2,20,21
 172 719 172 719 163 730.5 c 128,-1,22
 154 742 154 742 136 742 c 0,23,24
 100 742 100 742 100 698 c 2,25,-1
 100 671 l 1,26,-1
 34 671 l 1,27,-1
 34 693 l 2,28,29
 34 747 34 747 60.5 776 c 128,-1,30
 87 805 87 805 138 805 c 256,31,32
 189 805 189 805 215.5 776 c 128,-1,33
 242 747 242 747 242 693 c 2,34,-1
 242 674 l 2,35,36
 242 639 242 639 230 617.5 c 128,-1,37
 218 596 218 596 193 585 c 1,38,-1
 193 583 l 1,39,40
 242 562 242 562 242 490 c 2,41,-1
 242 453 l 2,42,43
 242 399 242 399 215.5 370 c 128,-1,44
 189 341 189 341 138 341 c 256,45,0
 87 341 87 341 60.5 370 c 128,-1,1
EndSplineSet
Validated: 1
EndChar

StartChar: uni2074
Encoding: 458 8308 340
Width: 282
Flags: W
LayerCount: 2
Fore
SplineSet
156 431 m 1,0,-1
 23 431 l 1,1,-1
 23 494 l 1,2,-1
 150 795 l 1,3,-1
 226 795 l 1,4,-1
 226 494 l 1,5,-1
 259 494 l 1,6,-1
 259 431 l 1,7,-1
 226 431 l 1,8,-1
 226 351 l 1,9,-1
 156 351 l 1,10,-1
 156 431 l 1,0,-1
157 494 m 1,11,-1
 157 669 l 1,12,-1
 155 669 l 1,13,-1
 86 494 l 1,14,-1
 157 494 l 1,11,-1
EndSplineSet
Validated: 1
EndChar

StartChar: uni2075
Encoding: 459 8309 341
Width: 282
Flags: W
LayerCount: 2
Fore
SplineSet
64.5 370 m 128,-1,1
 38 399 38 399 38 453 c 2,2,-1
 38 478 l 1,3,-1
 104 478 l 1,4,-1
 104 449 l 2,5,6
 104 406 104 406 140 406 c 256,7,8
 176 406 176 406 176 449 c 2,9,-1
 176 549 l 2,10,11
 176 593 176 593 140 593 c 256,12,13
 104 593 104 593 104 549 c 2,14,-1
 104 540 l 1,15,-1
 38 540 l 1,16,-1
 51 795 l 1,17,-1
 235 795 l 1,18,-1
 235 732 l 1,19,-1
 112 732 l 1,20,-1
 107 624 l 1,21,-1
 109 624 l 1,22,23
 128 657 128 657 169 657 c 0,24,25
 207 657 207 657 226.5 630.5 c 128,-1,26
 246 604 246 604 246 555 c 2,27,-1
 246 453 l 2,28,29
 246 399 246 399 219.5 370 c 128,-1,30
 193 341 193 341 142 341 c 256,31,0
 91 341 91 341 64.5 370 c 128,-1,1
EndSplineSet
Validated: 1
EndChar

StartChar: uni2076
Encoding: 460 8310 342
Width: 282
Flags: W
LayerCount: 2
Fore
SplineSet
64.5 370 m 128,-1,1
 37 399 37 399 37 453 c 2,2,-1
 37 690 l 2,3,4
 37 805 37 805 144 805 c 0,5,6
 195 805 195 805 221.5 776 c 128,-1,7
 248 747 248 747 248 693 c 2,8,-1
 248 687 l 1,9,-1
 182 687 l 1,10,-1
 182 698 l 2,11,12
 182 742 182 742 146 742 c 0,13,14
 126 742 126 742 116.5 730 c 128,-1,15
 107 718 107 718 107 687 c 2,16,-1
 107 595 l 1,17,-1
 109 595 l 1,18,19
 127 633 127 633 172 633 c 0,20,21
 210 633 210 633 229.5 607 c 128,-1,22
 249 581 249 581 249 532 c 2,23,-1
 249 453 l 2,24,25
 249 399 249 399 221.5 370 c 128,-1,26
 194 341 194 341 143 341 c 256,27,0
 92 341 92 341 64.5 370 c 128,-1,1
179 447 m 2,29,-1
 179 526 l 2,30,31
 179 570 179 570 143 570 c 256,32,33
 107 570 107 570 107 526 c 2,34,-1
 107 447 l 2,35,36
 107 404 107 404 143 404 c 256,37,28
 179 404 179 404 179 447 c 2,29,-1
EndSplineSet
Validated: 1
EndChar

StartChar: uni2077
Encoding: 461 8311 343
Width: 282
Flags: W
LayerCount: 2
Fore
SplineSet
177 732 m 1,0,-1
 35 732 l 1,1,-1
 35 795 l 1,2,-1
 245 795 l 1,3,-1
 245 734 l 1,4,-1
 134 351 l 1,5,-1
 64 351 l 1,6,-1
 177 732 l 1,0,-1
EndSplineSet
Validated: 1
EndChar

StartChar: uni2078
Encoding: 462 8312 344
Width: 282
Flags: W
LayerCount: 2
Fore
SplineSet
60.5 370.5 m 128,-1,1
 32 400 32 400 32 453 c 2,2,-1
 32 488 l 2,3,4
 32 556 32 556 75 580 c 1,5,-1
 75 582 l 1,6,7
 32 606 32 606 32 670 c 2,8,-1
 32 693 l 2,9,10
 32 746 32 746 60.5 775.5 c 128,-1,11
 89 805 89 805 141 805 c 256,12,13
 193 805 193 805 221.5 775.5 c 128,-1,14
 250 746 250 746 250 693 c 2,15,-1
 250 670 l 2,16,17
 250 606 250 606 207 582 c 1,18,-1
 207 580 l 1,19,20
 250 556 250 556 250 488 c 2,21,-1
 250 453 l 2,22,23
 250 400 250 400 221.5 370.5 c 128,-1,24
 193 341 193 341 141 341 c 256,25,0
 89 341 89 341 60.5 370.5 c 128,-1,1
180 661 m 2,27,-1
 180 695 l 2,28,29
 180 742 180 742 141 742 c 256,30,31
 102 742 102 742 102 695 c 2,32,-1
 102 661 l 2,33,34
 102 614 102 614 141 614 c 256,35,26
 180 614 180 614 180 661 c 2,27,-1
180 454 m 2,37,-1
 180 501 l 2,38,39
 180 551 180 551 141 551 c 256,40,41
 102 551 102 551 102 501 c 2,42,-1
 102 454 l 2,43,44
 102 404 102 404 141 404 c 256,45,36
 180 404 180 404 180 454 c 2,37,-1
EndSplineSet
Validated: 1
EndChar

StartChar: uni2079
Encoding: 463 8313 345
Width: 282
Flags: W
LayerCount: 2
Fore
SplineSet
60.5 370 m 128,-1,1
 34 399 34 399 34 453 c 2,2,-1
 34 459 l 1,3,-1
 100 459 l 1,4,-1
 100 448 l 2,5,6
 100 404 100 404 136 404 c 0,7,8
 156 404 156 404 165.5 416 c 128,-1,9
 175 428 175 428 175 459 c 2,10,-1
 175 551 l 1,11,-1
 173 551 l 1,12,13
 155 513 155 513 110 513 c 0,14,15
 72 513 72 513 52.5 539 c 128,-1,16
 33 565 33 565 33 614 c 2,17,-1
 33 693 l 2,18,19
 33 747 33 747 60.5 776 c 128,-1,20
 88 805 88 805 139 805 c 256,21,22
 190 805 190 805 217.5 776 c 128,-1,23
 245 747 245 747 245 693 c 2,24,-1
 245 456 l 2,25,26
 245 341 245 341 138 341 c 0,27,0
 87 341 87 341 60.5 370 c 128,-1,1
175 620 m 2,29,-1
 175 699 l 2,30,31
 175 742 175 742 139 742 c 256,32,33
 103 742 103 742 103 699 c 2,34,-1
 103 620 l 2,35,36
 103 576 103 576 139 576 c 256,37,28
 175 576 175 576 175 620 c 2,29,-1
EndSplineSet
Validated: 1
EndChar

StartChar: fraction
Encoding: 464 8260 346
Width: 89
Flags: W
LayerCount: 2
Fore
SplineSet
145 700 m 1,0,-1
 215 700 l 1,1,-1
 -56 0 l 1,2,-1
 -126 0 l 1,3,-1
 145 700 l 1,0,-1
EndSplineSet
Validated: 1
EndChar

StartChar: period
Encoding: 46 46 356
Width: 188
Flags: W
LayerCount: 2
Fore
SplineSet
41 106 m 1,0,-1
 147 106 l 1,1,-1
 147 0 l 1,2,-1
 41 0 l 1,3,-1
 41 106 l 1,0,-1
EndSplineSet
Validated: 1
EndChar

StartChar: comma
Encoding: 44 44 357
Width: 188
Flags: W
LayerCount: 2
Fore
SplineSet
77 0 m 1,0,-1
 41 0 l 1,1,-1
 41 106 l 1,2,-1
 147 106 l 1,3,-1
 147 11 l 1,4,-1
 92 -120 l 1,5,-1
 41 -120 l 1,6,-1
 77 0 l 1,0,-1
EndSplineSet
Validated: 1
EndChar

StartChar: colon
Encoding: 58 58 358
Width: 188
Flags: W
LayerCount: 2
Fore
SplineSet
41 487 m 1,0,-1
 147 487 l 1,1,-1
 147 381 l 1,2,-1
 41 381 l 1,3,-1
 41 487 l 1,0,-1
41 106 m 1,4,-1
 147 106 l 1,5,-1
 147 0 l 1,6,-1
 41 0 l 1,7,-1
 41 106 l 1,4,-1
EndSplineSet
Validated: 1
EndChar

StartChar: semicolon
Encoding: 59 59 359
Width: 188
Flags: W
LayerCount: 2
Fore
SplineSet
41 487 m 1,0,-1
 147 487 l 1,1,-1
 147 381 l 1,2,-1
 41 381 l 1,3,-1
 41 487 l 1,0,-1
77 0 m 1,4,-1
 41 0 l 1,5,-1
 41 106 l 1,6,-1
 147 106 l 1,7,-1
 147 11 l 1,8,-1
 86 -120 l 1,9,-1
 35 -120 l 1,10,-1
 77 0 l 1,4,-1
EndSplineSet
Validated: 1
EndChar

StartChar: ellipsis
Encoding: 474 8230 360
Width: 500
Flags: W
LayerCount: 2
Fore
SplineSet
31 106 m 1,0,-1
 137 106 l 1,1,-1
 137 0 l 1,2,-1
 31 0 l 1,3,-1
 31 106 l 1,0,-1
197 106 m 1,4,-1
 303 106 l 1,5,-1
 303 0 l 1,6,-1
 197 0 l 1,7,-1
 197 106 l 1,4,-1
363 106 m 1,8,-1
 469 106 l 1,9,-1
 469 0 l 1,10,-1
 363 0 l 1,11,-1
 363 106 l 1,8,-1
EndSplineSet
Validated: 1
EndChar

StartChar: exclam
Encoding: 33 33 361
Width: 210
Flags: W
LayerCount: 2
Fore
SplineSet
50 408 m 1,0,-1
 50 700 l 1,1,-1
 160 700 l 1,2,-1
 160 408 l 1,3,-1
 146 185 l 1,4,-1
 64 185 l 1,5,-1
 50 408 l 1,0,-1
52 106 m 1,6,-1
 158 106 l 1,7,-1
 158 0 l 1,8,-1
 52 0 l 1,9,-1
 52 106 l 1,6,-1
EndSplineSet
Validated: 1
EndChar

StartChar: exclamdown
Encoding: 161 161 362
Width: 210
Flags: W
LayerCount: 2
Fore
SplineSet
52 700 m 1,0,-1
 158 700 l 1,1,-1
 158 594 l 1,2,-1
 52 594 l 1,3,-1
 52 700 l 1,0,-1
50 292 m 1,4,-1
 64 515 l 1,5,-1
 146 515 l 1,6,-1
 160 292 l 1,7,-1
 160 0 l 1,8,-1
 50 0 l 1,9,-1
 50 292 l 1,4,-1
EndSplineSet
Validated: 1
EndChar

StartChar: question
Encoding: 63 63 363
Width: 363
Flags: W
LayerCount: 2
Fore
SplineSet
117 227 m 2,0,1
 117 264 117 264 128.5 297.5 c 128,-1,2
 140 331 140 331 171 375 c 0,3,4
 207 426 207 426 220 463 c 128,-1,5
 233 500 233 500 233 541 c 0,6,7
 233 577 233 577 219 593.5 c 128,-1,8
 205 610 205 610 178 610 c 256,9,10
 151 610 151 610 137 593.5 c 128,-1,11
 123 577 123 577 123 541 c 2,12,-1
 123 465 l 1,13,-1
 19 465 l 1,14,-1
 19 534 l 2,15,16
 19 619 19 619 60 664.5 c 128,-1,17
 101 710 101 710 180 710 c 0,18,19
 260 710 260 710 301.5 664.5 c 128,-1,20
 343 619 343 619 343 534 c 0,21,22
 343 488 343 488 326.5 445.5 c 128,-1,23
 310 403 310 403 270 350 c 0,24,25
 238 307 238 307 225.5 278.5 c 128,-1,26
 213 250 213 250 213 223 c 2,27,-1
 213 185 l 1,28,-1
 117 185 l 1,29,-1
 117 227 l 2,0,1
112 106 m 1,30,-1
 218 106 l 1,31,-1
 218 0 l 1,32,-1
 112 0 l 1,33,-1
 112 106 l 1,30,-1
EndSplineSet
Validated: 1
EndChar

StartChar: questiondown
Encoding: 191 191 364
Width: 363
Flags: W
LayerCount: 2
Fore
SplineSet
251 594 m 1,0,-1
 145 594 l 1,1,-1
 145 700 l 1,2,-1
 251 700 l 1,3,-1
 251 594 l 1,0,-1
246 473 m 2,4,5
 246 436 246 436 234.5 402.5 c 128,-1,6
 223 369 223 369 192 325 c 0,7,8
 156 274 156 274 143 237 c 128,-1,9
 130 200 130 200 130 159 c 0,10,11
 130 123 130 123 144 106.5 c 128,-1,12
 158 90 158 90 185 90 c 256,13,14
 212 90 212 90 226 106.5 c 128,-1,15
 240 123 240 123 240 159 c 2,16,-1
 240 235 l 1,17,-1
 344 235 l 1,18,-1
 344 166 l 2,19,20
 344 81 344 81 303 35.5 c 128,-1,21
 262 -10 262 -10 183 -10 c 0,22,23
 103 -10 103 -10 61.5 35.5 c 128,-1,24
 20 81 20 81 20 166 c 0,25,26
 20 212 20 212 36.5 254.5 c 128,-1,27
 53 297 53 297 93 350 c 0,28,29
 125 393 125 393 137.5 421.5 c 128,-1,30
 150 450 150 450 150 477 c 2,31,-1
 150 515 l 1,32,-1
 246 515 l 1,33,-1
 246 473 l 2,4,5
EndSplineSet
Validated: 1
EndChar

StartChar: periodcentered
Encoding: 183 183 365
Width: 188
Flags: W
LayerCount: 2
Fore
SplineSet
41 403 m 1,0,-1
 147 403 l 1,1,-1
 147 297 l 1,2,-1
 41 297 l 1,3,-1
 41 403 l 1,0,-1
EndSplineSet
Validated: 1
EndChar

StartChar: bullet
Encoding: 475 8226 366
Width: 300
Flags: W
LayerCount: 2
Fore
SplineSet
68.5 268.5 m 128,-1,1
 35 302 35 302 35 350 c 256,2,3
 35 398 35 398 68.5 431.5 c 128,-1,4
 102 465 102 465 150 465 c 256,5,6
 198 465 198 465 231.5 431.5 c 128,-1,7
 265 398 265 398 265 350 c 256,8,9
 265 302 265 302 231.5 268.5 c 128,-1,10
 198 235 198 235 150 235 c 256,11,0
 102 235 102 235 68.5 268.5 c 128,-1,1
EndSplineSet
Validated: 1
EndChar

StartChar: asterisk
Encoding: 42 42 367
Width: 1000
Flags: W
LayerCount: 2
Fore
SplineSet
983 254 m 5,0,-1
 672.5 0 l 5,1,-1
 50 0 l 6,2,3
 36 0 36 0 26 10 c 132,-1,4
 16 20 16 20 16 33.5 c 6,5,-1
 16 474 l 5,6,-1
 15.9873046875 474.50390625 l 6,7,8
 15.9873046875 488.370849609 15.9873046875 488.370849609 25.8038330078 498.18737793 c 132,-1,9
 35.6203613281 508.00390625 35.6203613281 508.00390625 49.4873046875 508.00390625 c 4,10,11
 49.7436523438 508.00390625 49.7436523438 508.00390625 50 508 c 6,12,-1
 672.5 508 l 5,13,-1
 983 254 l 5,0,-1
EndSplineSet
Validated: 1
EndChar

StartChar: numbersign
Encoding: 35 35 368
Width: 412
Flags: W
LayerCount: 2
Fore
SplineSet
65 200 m 1,0,-1
 16 200 l 1,1,-1
 24 278 l 1,2,-1
 73 278 l 1,3,-1
 92 461 l 1,4,-1
 42 461 l 1,5,-1
 50 539 l 1,6,-1
 100 539 l 1,7,-1
 117 700 l 1,8,-1
 204 700 l 1,9,-1
 187 539 l 1,10,-1
 258 539 l 1,11,-1
 275 700 l 1,12,-1
 362 700 l 1,13,-1
 345 539 l 1,14,-1
 396 539 l 1,15,-1
 388 461 l 1,16,-1
 337 461 l 1,17,-1
 318 278 l 1,18,-1
 369 278 l 1,19,-1
 361 200 l 1,20,-1
 310 200 l 1,21,-1
 289 0 l 1,22,-1
 202 0 l 1,23,-1
 223 200 l 1,24,-1
 152 200 l 1,25,-1
 131 0 l 1,26,-1
 44 0 l 1,27,-1
 65 200 l 1,0,-1
231 278 m 1,28,-1
 250 461 l 1,29,-1
 179 461 l 1,30,-1
 160 278 l 1,31,-1
 231 278 l 1,28,-1
EndSplineSet
Validated: 1
EndChar

StartChar: slash
Encoding: 47 47 369
Width: 389
Flags: W
LayerCount: 2
Fore
SplineSet
285 700 m 1,0,-1
 380 700 l 1,1,-1
 104 0 l 1,2,-1
 9 0 l 1,3,-1
 285 700 l 1,0,-1
EndSplineSet
Validated: 1
Substitution2: "'frac' Diagonale Br+APwA-che in Lateinisch Nachschlagetabelle 17 Subtabelle" fraction
Substitution2: "'aalt' Zugriff auf alle Alternativen in Lateinisch Nachschlagetabelle 0 Subtabelle" fraction
EndChar

StartChar: backslash
Encoding: 92 92 370
Width: 389
Flags: W
LayerCount: 2
Fore
SplineSet
9 700 m 1,0,-1
 104 700 l 1,1,-1
 380 0 l 1,2,-1
 285 0 l 1,3,-1
 9 700 l 1,0,-1
EndSplineSet
Validated: 1
EndChar

StartChar: parenleft
Encoding: 40 40 371
Width: 276
Flags: W
LayerCount: 2
Fore
SplineSet
88.5 -15 m 128,-1,1
 53 20 53 20 53 103 c 2,2,-1
 53 597 l 2,3,4
 53 680 53 680 88.5 715 c 128,-1,5
 124 750 124 750 207 750 c 2,6,-1
 241 750 l 1,7,-1
 241 660 l 1,8,-1
 214 660 l 2,9,10
 187 660 187 660 175 646.5 c 128,-1,11
 163 633 163 633 163 597 c 2,12,-1
 163 103 l 2,13,14
 163 67 163 67 175 53.5 c 128,-1,15
 187 40 187 40 214 40 c 2,16,-1
 241 40 l 1,17,-1
 241 -50 l 1,18,-1
 207 -50 l 2,19,0
 124 -50 124 -50 88.5 -15 c 128,-1,1
EndSplineSet
Validated: 1
EndChar

StartChar: parenright
Encoding: 41 41 372
Width: 276
Flags: W
LayerCount: 2
Fore
SplineSet
35 40 m 1,0,-1
 62 40 l 2,1,2
 89 40 89 40 101 53.5 c 128,-1,3
 113 67 113 67 113 103 c 2,4,-1
 113 597 l 2,5,6
 113 633 113 633 101 646.5 c 128,-1,7
 89 660 89 660 62 660 c 2,8,-1
 35 660 l 1,9,-1
 35 750 l 1,10,-1
 69 750 l 2,11,12
 152 750 152 750 187.5 715 c 128,-1,13
 223 680 223 680 223 597 c 2,14,-1
 223 103 l 2,15,16
 223 20 223 20 187.5 -15 c 128,-1,17
 152 -50 152 -50 69 -50 c 2,18,-1
 35 -50 l 1,19,-1
 35 40 l 1,0,-1
EndSplineSet
Validated: 1
EndChar

StartChar: braceleft
Encoding: 123 123 373
Width: 276
Flags: W
LayerCount: 2
Fore
SplineSet
115 -22 m 128,-1,1
 84 6 84 6 84 61 c 2,2,-1
 84 245 l 2,3,4
 84 280 84 280 71 292.5 c 128,-1,5
 58 305 58 305 21 305 c 1,6,-1
 21 395 l 1,7,8
 58 395 58 395 71 407.5 c 128,-1,9
 84 420 84 420 84 455 c 2,10,-1
 84 639 l 2,11,12
 84 694 84 694 115 722 c 128,-1,13
 146 750 146 750 195 750 c 2,14,-1
 251 750 l 1,15,-1
 251 660 l 1,16,-1
 235 660 l 2,17,18
 208 660 208 660 195 644.5 c 128,-1,19
 182 629 182 629 182 589 c 2,20,-1
 182 439 l 2,21,22
 182 369 182 369 121 351 c 1,23,-1
 121 349 l 1,24,25
 182 331 182 331 182 261 c 2,26,-1
 182 111 l 2,27,28
 182 71 182 71 195 55.5 c 128,-1,29
 208 40 208 40 235 40 c 2,30,-1
 251 40 l 1,31,-1
 251 -50 l 1,32,-1
 195 -50 l 2,33,0
 146 -50 146 -50 115 -22 c 128,-1,1
EndSplineSet
Validated: 1
EndChar

StartChar: braceright
Encoding: 125 125 374
Width: 276
Flags: W
LayerCount: 2
Fore
SplineSet
25 40 m 1,0,-1
 41 40 l 2,1,2
 68 40 68 40 81 55.5 c 128,-1,3
 94 71 94 71 94 111 c 2,4,-1
 94 261 l 2,5,6
 94 331 94 331 155 349 c 1,7,-1
 155 351 l 1,8,9
 94 369 94 369 94 439 c 2,10,-1
 94 589 l 2,11,12
 94 629 94 629 81 644.5 c 128,-1,13
 68 660 68 660 41 660 c 2,14,-1
 25 660 l 1,15,-1
 25 750 l 1,16,-1
 81 750 l 2,17,18
 130 750 130 750 161 722 c 128,-1,19
 192 694 192 694 192 639 c 2,20,-1
 192 455 l 2,21,22
 192 420 192 420 205 407.5 c 128,-1,23
 218 395 218 395 255 395 c 1,24,-1
 255 305 l 1,25,26
 218 305 218 305 205 292.5 c 128,-1,27
 192 280 192 280 192 245 c 2,28,-1
 192 61 l 2,29,30
 192 6 192 6 161 -22 c 128,-1,31
 130 -50 130 -50 81 -50 c 2,32,-1
 25 -50 l 1,33,-1
 25 40 l 1,0,-1
EndSplineSet
Validated: 1
EndChar

StartChar: bracketleft
Encoding: 91 91 375
Width: 276
Flags: W
LayerCount: 2
Fore
SplineSet
59 750 m 1,0,-1
 241 750 l 1,1,-1
 241 660 l 1,2,-1
 169 660 l 1,3,-1
 169 40 l 1,4,-1
 241 40 l 1,5,-1
 241 -50 l 1,6,-1
 59 -50 l 1,7,-1
 59 750 l 1,0,-1
EndSplineSet
Validated: 1
EndChar

StartChar: bracketright
Encoding: 93 93 376
Width: 276
Flags: W
LayerCount: 2
Fore
SplineSet
35 40 m 1,0,-1
 107 40 l 1,1,-1
 107 660 l 1,2,-1
 35 660 l 1,3,-1
 35 750 l 1,4,-1
 217 750 l 1,5,-1
 217 -50 l 1,6,-1
 35 -50 l 1,7,-1
 35 40 l 1,0,-1
EndSplineSet
Validated: 1
EndChar

StartChar: hyphen
Encoding: 45 45 377
Width: 270
Flags: W
LayerCount: 2
Fore
SplineSet
25 400 m 1,0,-1
 245 400 l 1,1,-1
 245 300 l 1,2,-1
 25 300 l 1,3,-1
 25 400 l 1,0,-1
EndSplineSet
Validated: 1
EndChar

StartChar: endash
Encoding: 476 8211 379
Width: 300
Flags: W
LayerCount: 2
Fore
SplineSet
0 395 m 1,0,-1
 300 395 l 1,1,-1
 300 305 l 1,2,-1
 0 305 l 1,3,-1
 0 395 l 1,0,-1
EndSplineSet
Validated: 1
EndChar

StartChar: emdash
Encoding: 477 8212 380
Width: 500
Flags: W
LayerCount: 2
Fore
SplineSet
0 395 m 1,0,-1
 500 395 l 1,1,-1
 500 305 l 1,2,-1
 0 305 l 1,3,-1
 0 395 l 1,0,-1
EndSplineSet
Validated: 1
EndChar

StartChar: figuredash
Encoding: 478 8210 381
Width: 400
Flags: W
LayerCount: 2
Fore
SplineSet
0 395 m 1,0,-1
 400 395 l 1,1,-1
 400 305 l 1,2,-1
 0 305 l 1,3,-1
 0 395 l 1,0,-1
EndSplineSet
Validated: 1
EndChar

StartChar: underscore
Encoding: 95 95 382
Width: 300
Flags: W
LayerCount: 2
Fore
SplineSet
0 -10 m 1,0,-1
 300 -10 l 1,1,-1
 300 -90 l 1,2,-1
 0 -90 l 1,3,-1
 0 -10 l 1,0,-1
EndSplineSet
Validated: 1
EndChar

StartChar: quotedblbase
Encoding: 480 8222 384
Width: 336
Flags: W
LayerCount: 2
Fore
SplineSet
77 0 m 1,0,-1
 41 0 l 1,1,-1
 41 106 l 1,2,-1
 147 106 l 1,3,-1
 147 11 l 1,4,-1
 86 -120 l 1,5,-1
 35 -120 l 1,6,-1
 77 0 l 1,0,-1
225 0 m 1,7,-1
 189 0 l 1,8,-1
 189 106 l 1,9,-1
 295 106 l 1,10,-1
 295 11 l 1,11,-1
 234 -120 l 1,12,-1
 183 -120 l 1,13,-1
 225 0 l 1,7,-1
EndSplineSet
Validated: 1
EndChar

StartChar: quotedblleft
Encoding: 481 8220 385
Width: 336
Flags: W
LayerCount: 2
Fore
SplineSet
41 569 m 1,0,-1
 102 700 l 1,1,-1
 153 700 l 1,2,-1
 111 580 l 1,3,-1
 147 580 l 1,4,-1
 147 474 l 1,5,-1
 41 474 l 1,6,-1
 41 569 l 1,0,-1
189 569 m 1,7,-1
 250 700 l 1,8,-1
 301 700 l 1,9,-1
 259 580 l 1,10,-1
 295 580 l 1,11,-1
 295 474 l 1,12,-1
 189 474 l 1,13,-1
 189 569 l 1,7,-1
EndSplineSet
Validated: 1
EndChar

StartChar: quotedblright
Encoding: 482 8221 386
Width: 336
Flags: W
LayerCount: 2
Fore
SplineSet
77 594 m 1,0,-1
 41 594 l 1,1,-1
 41 700 l 1,2,-1
 147 700 l 1,3,-1
 147 605 l 1,4,-1
 86 474 l 1,5,-1
 35 474 l 1,6,-1
 77 594 l 1,0,-1
225 594 m 1,7,-1
 189 594 l 1,8,-1
 189 700 l 1,9,-1
 295 700 l 1,10,-1
 295 605 l 1,11,-1
 234 474 l 1,12,-1
 183 474 l 1,13,-1
 225 594 l 1,7,-1
EndSplineSet
Validated: 1
EndChar

StartChar: quoteleft
Encoding: 483 8216 387
Width: 188
Flags: W
LayerCount: 2
Fore
SplineSet
41 569 m 1,0,-1
 102 700 l 1,1,-1
 153 700 l 1,2,-1
 111 580 l 1,3,-1
 147 580 l 1,4,-1
 147 474 l 1,5,-1
 41 474 l 1,6,-1
 41 569 l 1,0,-1
EndSplineSet
Validated: 1
EndChar

StartChar: quoteright
Encoding: 484 8217 388
Width: 188
Flags: W
LayerCount: 2
Fore
SplineSet
77 594 m 1,0,-1
 41 594 l 1,1,-1
 41 700 l 1,2,-1
 147 700 l 1,3,-1
 147 605 l 1,4,-1
 86 474 l 1,5,-1
 35 474 l 1,6,-1
 77 594 l 1,0,-1
EndSplineSet
Validated: 1
EndChar

StartChar: guillemotleft
Encoding: 171 171 389
Width: 336
Flags: W
LayerCount: 2
Fore
SplineSet
14 346 m 1,0,-1
 91 456 l 1,1,-1
 171 456 l 1,2,-1
 114 346 l 1,3,-1
 171 230 l 1,4,-1
 91 230 l 1,5,-1
 14 346 l 1,0,-1
163 346 m 1,6,-1
 239 456 l 1,7,-1
 319 456 l 1,8,-1
 263 346 l 1,9,-1
 319 230 l 1,10,-1
 239 230 l 1,11,-1
 163 346 l 1,6,-1
EndSplineSet
Validated: 1
EndChar

StartChar: guillemotright
Encoding: 187 187 390
Width: 335
Flags: W
LayerCount: 2
Fore
SplineSet
17 230 m 1,0,-1
 73 346 l 1,1,-1
 17 456 l 1,2,-1
 97 456 l 1,3,-1
 173 346 l 1,4,-1
 97 230 l 1,5,-1
 17 230 l 1,0,-1
165 230 m 1,6,-1
 221 346 l 1,7,-1
 165 456 l 1,8,-1
 245 456 l 1,9,-1
 321 346 l 1,10,-1
 245 230 l 1,11,-1
 165 230 l 1,6,-1
EndSplineSet
Validated: 1
EndChar

StartChar: guilsinglleft
Encoding: 485 8249 391
Width: 188
Flags: W
LayerCount: 2
Fore
SplineSet
14 346 m 1,0,-1
 91 456 l 1,1,-1
 171 456 l 1,2,-1
 114 346 l 1,3,-1
 171 230 l 1,4,-1
 91 230 l 1,5,-1
 14 346 l 1,0,-1
EndSplineSet
Validated: 1
EndChar

StartChar: guilsinglright
Encoding: 486 8250 392
Width: 188
Flags: W
LayerCount: 2
Fore
SplineSet
17 230 m 1,0,-1
 74 346 l 1,1,-1
 17 456 l 1,2,-1
 97 456 l 1,3,-1
 174 346 l 1,4,-1
 97 230 l 1,5,-1
 17 230 l 1,0,-1
EndSplineSet
Validated: 1
EndChar

StartChar: quotedbl
Encoding: 34 34 393
Width: 336
Flags: W
LayerCount: 2
Fore
SplineSet
38 700 m 1,0,-1
 150 700 l 1,1,-1
 123 474 l 1,2,-1
 64 474 l 1,3,-1
 38 700 l 1,0,-1
186 700 m 1,4,-1
 298 700 l 1,5,-1
 271 474 l 1,6,-1
 212 474 l 1,7,-1
 186 700 l 1,4,-1
EndSplineSet
Validated: 1
EndChar

StartChar: quotesingle
Encoding: 39 39 394
Width: 188
Flags: W
LayerCount: 2
Fore
SplineSet
38 700 m 1,0,-1
 150 700 l 1,1,-1
 123 474 l 1,2,-1
 64 474 l 1,3,-1
 38 700 l 1,0,-1
EndSplineSet
Validated: 1
EndChar

StartChar: cent
Encoding: 162 162 401
Width: 400
Flags: W
LayerCount: 2
Fore
SplineSet
262 444 m 1,0,-1
 262 483 l 2,1,2
 262 548 262 548 207 548 c 256,3,4
 152 548 152 548 152 483 c 2,5,-1
 152 216 l 2,6,7
 152 152 152 152 207 152 c 256,8,9
 262 152 262 152 262 216 c 2,10,-1
 262 281 l 1,11,-1
 366 281 l 1,12,-1
 366 224 l 2,13,14
 366 155 366 155 336 111.5 c 128,-1,15
 306 68 306 68 248 56 c 1,16,-1
 248 -20 l 1,17,-1
 158 -20 l 1,18,-1
 158 57 l 1,19,20
 101 69 101 69 71.5 112 c 128,-1,21
 42 155 42 155 42 224 c 2,22,-1
 42 476 l 2,23,24
 42 545 42 545 71.5 588 c 128,-1,25
 101 631 101 631 158 643 c 1,26,-1
 158 710 l 1,27,-1
 248 710 l 1,28,-1
 248 644 l 1,29,30
 306 632 306 632 336 588.5 c 128,-1,31
 366 545 366 545 366 476 c 2,32,-1
 366 444 l 1,33,-1
 262 444 l 1,0,-1
EndSplineSet
Validated: 1
EndChar

StartChar: currency
Encoding: 492 164 402
Width: 400
Flags: W
LayerCount: 2
Fore
SplineSet
31 230 m 1,0,-1
 89 283 l 1,1,2
 71 312 71 312 71 350 c 0,3,4
 71 389 71 389 89 417 c 1,5,-1
 31 470 l 1,6,-1
 80 519 l 1,7,-1
 133 460 l 1,8,9
 163 479 163 479 200 479 c 256,10,11
 237 479 237 479 267 460 c 1,12,-1
 320 519 l 1,13,-1
 369 470 l 1,14,-1
 311 417 l 1,15,16
 329 389 329 389 329 350 c 0,17,18
 329 312 329 312 311 283 c 1,19,-1
 369 230 l 1,20,-1
 320 181 l 1,21,-1
 267 240 l 1,22,23
 237 221 237 221 200 221 c 256,24,25
 163 221 163 221 133 240 c 1,26,-1
 80 181 l 1,27,-1
 31 230 l 1,0,-1
238.5 311.5 m 128,-1,29
 253 326 253 326 253 350 c 256,30,31
 253 374 253 374 238.5 388.5 c 128,-1,32
 224 403 224 403 200 403 c 256,33,34
 176 403 176 403 161.5 388.5 c 128,-1,35
 147 374 147 374 147 350 c 256,36,37
 147 326 147 326 161.5 311.5 c 128,-1,38
 176 297 176 297 200 297 c 256,39,28
 224 297 224 297 238.5 311.5 c 128,-1,29
EndSplineSet
Validated: 1
EndChar

StartChar: dollar
Encoding: 36 36 403
Width: 400
Flags: W
LayerCount: 2
Fore
SplineSet
155 15 m 1,0,1
 97 27 97 27 66.5 70 c 128,-1,2
 36 113 36 113 36 180 c 2,3,-1
 36 226 l 1,4,-1
 140 226 l 1,5,-1
 140 173 l 2,6,7
 140 112 140 112 197 112 c 256,8,9
 254 112 254 112 254 175 c 0,10,11
 254 214 254 214 234 245.5 c 128,-1,12
 214 277 214 277 160 319 c 0,13,14
 93 372 93 372 66 418 c 128,-1,15
 39 464 39 464 39 522 c 0,16,17
 39 587 39 587 68.5 629 c 128,-1,18
 98 671 98 671 155 684 c 1,19,-1
 155 745 l 1,20,-1
 245 745 l 1,21,-1
 245 684 l 1,22,23
 303 672 303 672 333 629.5 c 128,-1,24
 363 587 363 587 363 520 c 2,25,-1
 363 500 l 1,26,-1
 259 500 l 1,27,-1
 259 527 l 2,28,29
 259 589 259 589 204 589 c 256,30,31
 149 589 149 589 149 529 c 0,32,33
 149 493 149 493 169 462.5 c 128,-1,34
 189 432 189 432 243 389 c 0,35,36
 310 335 310 335 337 288.5 c 128,-1,37
 364 242 364 242 364 182 c 0,38,39
 364 114 364 114 333.5 70.5 c 128,-1,40
 303 27 303 27 245 15 c 1,41,-1
 245 -55 l 1,42,-1
 155 -55 l 1,43,-1
 155 15 l 1,0,1
EndSplineSet
Validated: 1
EndChar

StartChar: Euro
Encoding: 164 8364 404
Width: 1007
Flags: W
LayerCount: 2
Fore
SplineSet
967.5 75 m 0,0,1
 969.767578125 54.3520982794 969.767578125 54.3520982794 969.767578125 33.8603515625 c 0,2,3
 969.767578125 26.6731520433 969.767578125 26.6731520433 969.5 19.5 c 0,4,5
 968.449127085 10.4252133603 968.449127085 10.4252133603 961.800689016 4.04192689199 c 128,-1,6
 955.152250948 -2.34135957635 955.152250948 -2.34135957635 946 -3 c 0,7,8
 768 -14 768 -14 632.5 -14 c 0,9,10
 331.89892905 -20.0321285141 331.89892905 -20.0321285141 178 -38.5 c 1,11,-1
 175 -38.5 l 2,12,13
 165.883395772 -38.4766950523 165.883395772 -38.4766950523 159 -32.5 c 0,14,15
 150.88575998 -25.3080462348 150.88575998 -25.3080462348 150 -14.5 c 2,16,-1
 144.5 91.5 l 1,17,-1
 127.5 91.5 l 2,18,19
 117.84351145 91.2805343511 117.84351145 91.2805343511 95.2582941867 89.6402671756 c 128,-1,20
 72.6730769231 88 72.6730769231 88 60.5 88 c 0,21,22
 59.8129882812 87.958984375 59.8129882812 87.958984375 58.9248046875 87.958984375 c 0,23,24
 48.9853061301 87.958984375 48.9853061301 87.958984375 41.5 94.5 c 0,25,26
 33.99609375 101.973877982 33.99609375 101.973877982 33.99609375 112.55859375 c 0,27,-1
 34 297 l 1,28,-1
 34 366 l 2,29,30
 32.173828125 391.885986328 32.173828125 391.885986328 32.173828125 416.631835938 c 0,31,32
 32.173828125 477.201472901 32.173828125 477.201472901 42 536.5 c 0,33,34
 43.6067127456 545.280803296 43.6067127456 545.280803296 50.5090391594 551.123686584 c 128,-1,35
 57.4113655732 556.966569872 57.4113655732 556.966569872 66.5 557 c 0,36,37
 122 557 122 557 228 554.5 c 128,-1,38
 334 552 334 552 389 552 c 0,39,40
 523 547 523 547 819 547 c 1,41,-1
 819.125976562 546.974609375 l 2,42,43
 828.79174891 546.974609375 828.79174891 546.974609375 835.918321296 540.489657653 c 128,-1,44
 843.044893683 534.004705932 843.044893683 534.004705932 844 524.5 c 1,45,-1
 819 524.5 l 1,46,-1
 844 524.5 l 2,47,48
 844.291666667 520.927083333 844.291666667 520.927083333 847.145833333 494.526041667 c 128,-1,49
 850 468.125 850 468.125 850 454.5 c 1,50,-1
 913.5 458 l 2,51,52
 914.873602874 458.18359375 914.873602874 458.18359375 916.537109375 458.18359375 c 0,53,54
 925.701695395 458.18359375 925.701695395 458.18359375 932.343808936 451.88477339 c 128,-1,55
 938.985922476 445.585953031 938.985922476 445.585953031 939.5 436.5 c 0,56,57
 967.489953872 273.692781954 967.489953872 273.692781954 967.5 108.5 c 0,58,59
 967.049804688 100.025735294 967.049804688 100.025735294 967.049804688 91.98828125 c 0,60,61
 967.049804688 83.4742647059 967.049804688 83.4742647059 967.5 75 c 0,0,1
126.5 141.5 m 1,62,63
 201.388888889 145.400462963 201.388888889 145.400462963 271 142.5 c 0,64,65
 312.5 142.5 312.5 142.5 394.75 140.25 c 128,-1,66
 477 138 477 138 517 138 c 0,67,68
 611.5 133.5 611.5 133.5 805.5 133.5 c 1,69,-1
 805.5 158.5 l 1,70,-1
 805.5 197.5 l 2,71,72
 808.157226562 246.202399976 808.157226562 246.202399976 808.157226562 290.697265625 c 0,73,74
 808.157226562 394.783267398 808.157226562 394.783267398 796 497.5 c 1,75,76
 644.115485564 496.473753281 644.115485564 496.473753281 388 502.5 c 0,77,78
 188 507.5 188 507.5 88 507.5 c 1,79,80
 83.451171875 463.34588459 83.451171875 463.34588459 83.451171875 420.0078125 c 0,81,82
 83.451171875 393.938454284 83.451171875 393.938454284 85 368 c 2,83,-1
 85 296.5 l 1,84,-1
 85 141.5 l 1,85,-1
 126.5 141.5 l 1,62,63
631.5 36 m 0,86,87
 829.889473684 40.2210526316 829.889473684 40.2210526316 916.5 43 c 1,88,-1
 916.5 68 l 1,89,-1
 916.5 107 l 2,90,91
 916.502376787 107.804304599 916.502376787 107.804304599 916.526090737 108.568284961 c 128,-1,92
 916.549804688 109.332265323 916.549804688 109.332265323 916.549804688 110.178710938 c 0,93,94
 916.549804688 258.660498228 916.549804688 258.660498228 892.5 404 c 1,95,-1
 854.5 404 l 1,96,97
 858.12890625 351.497992159 858.12890625 351.497992159 858.12890625 301.327148438 c 0,98,99
 858.12890625 248.502007841 858.12890625 248.502007841 854.5 196 c 2,100,-1
 854.5 161.5 l 2,101,102
 855.708984375 147.665975133 855.708984375 147.665975133 855.708984375 134.30859375 c 0,103,104
 855.708984375 120.334024867 855.708984375 120.334024867 854.5 106.5 c 0,105,106
 853.217586132 97.614493336 853.217586132 97.614493336 846.410557803 91.6034741067 c 128,-1,107
 839.603529474 85.5924548775 839.603529474 85.5924548775 830.5 85.5 c 2,108,-1
 766.5 85.5 l 2,109,110
 663.2 85.5 663.2 85.5 516.5 90 c 0,111,112
 411 93.5 411 93.5 195.5 93.5 c 1,113,-1
 199 14.5 l 1,114,115
 342.518953324 29.8947666195 342.518953324 29.8947666195 631.5 36 c 0,86,87
321.5 330.5 m 1,116,-1
 322.5 327.5 l 1,117,118
 313.013669501 328.543724693 313.013669501 328.543724693 306.543455844 335.695198932 c 128,-1,119
 300.073242188 342.846673172 300.073242188 342.846673172 300.073242188 352.500976562 c 0,120,121
 300.073242188 362.911621094 300.073242188 362.911621094 307.443115234 370.281494141 c 128,-1,122
 314.812988281 377.651367188 314.812988281 377.651367188 325.223632812 377.651367188 c 0,123,124
 326.628877806 377.651367188 326.628877806 377.651367188 328 377.5 c 2,125,-1
 355 377.5 l 1,126,127
 357.652729434 404.345447543 357.652729434 404.345447543 371.5 427.5 c 0,128,129
 421.155031319 505.744291776 421.155031319 505.744291776 535 459 c 0,130,131
 551.521484375 452.537752732 551.521484375 452.537752732 551.521484375 434.77734375 c 0,132,133
 551.521484375 430.238420759 551.521484375 430.238420759 550 426 c 0,134,135
 544.924906009 408.810546875 544.924906009 408.810546875 526.956054688 408.810546875 c 0,136,137
 520.534729533 408.810546875 520.534729533 408.810546875 515 412 c 0,138,139
 439.713733906 442.521459227 439.713733906 442.521459227 412.5 400 c 0,140,141
 405.536594917 388.81858066 405.536594917 388.81858066 402.5 376 c 1,142,-1
 460.5 376 l 2,143,144
 460.537469773 376.012451172 460.537469773 376.012451172 461.057739258 376.005249023 c 128,-1,145
 461.578008743 375.998046875 461.578008743 375.998046875 461.619140625 375.998046875 c 0,146,147
 471.70465954 375.998046875 471.70465954 375.998046875 479.127448962 369.212649792 c 128,-1,148
 486.550238384 362.42725271 486.550238384 362.42725271 487.5 352.5 c 0,149,150
 487.52734375 352.061671402 487.52734375 352.061671402 487.52734375 350.95703125 c 0,151,152
 487.52734375 341.006328578 487.52734375 341.006328578 480.694719732 333.789964138 c 128,-1,153
 473.862095713 326.573599699 473.862095713 326.573599699 464 326 c 2,154,-1
 406.5 326 l 1,155,-1
 400 326 l 1,156,157
 402 315 402 315 405 304 c 1,158,-1
 461 304 l 2,159,160
 471 304 471 304 478.5 296.5 c 128,-1,161
 486 289 486 289 486 279 c 128,-1,162
 486 269 486 269 478.5 261.5 c 128,-1,163
 471 254 471 254 461 254 c 2,164,-1
 418 254 l 1,165,166
 423.536538594 237.161055744 423.536538594 237.161055744 437.999490144 226.497031778 c 128,-1,167
 452.462441695 215.833007812 452.462441695 215.833007812 470.671875 215.833007812 c 0,168,169
 472.837968404 215.833007812 472.837968404 215.833007812 475 216 c 0,170,171
 500.089877338 217.185474522 500.089877338 217.185474522 520 232.5 c 1,172,173
 525.482110988 247.056640625 525.482110988 247.056640625 541.079101562 247.056640625 c 0,174,175
 546.620669716 247.056640625 546.620669716 247.056640625 551.5 244.5 c 0,176,177
 566.64453125 237.551254993 566.64453125 237.551254993 566.64453125 220.849609375 c 0,178,179
 566.64453125 215.429538217 566.64453125 215.429538217 564.5 210.5 c 0,180,181
 531.517046781 165.994140625 531.517046781 165.994140625 476.143554688 165.994140625 c 0,182,183
 475.570800781 165.994140625 475.570800781 165.994140625 475 166 c 0,184,185
 473.195167824 165.90234375 473.195167824 165.90234375 469.200195312 165.90234375 c 0,186,187
 431.559421507 165.90234375 431.559421507 165.90234375 402.465890228 189.282962729 c 128,-1,188
 373.372358948 212.663581708 373.372358948 212.663581708 365 248.5 c 1,189,-1
 365 254.5 l 1,190,-1
 327 254.5 l 2,191,192
 316.651611328 254.5 316.651611328 254.5 309.325805664 261.825805664 c 128,-1,193
 302 269.151611328 302 269.151611328 302 279.5 c 128,-1,194
 302 289.848388672 302 289.848388672 309.325805664 297.174194336 c 128,-1,195
 316.651611328 304.5 316.651611328 304.5 327 304.5 c 2,196,-1
 351.5 304.5 l 1,197,198
 351.109375 311.080188679 351.109375 311.080188679 351.109375 317.323242188 c 0,199,200
 351.109375 323.919811321 351.109375 323.919811321 351.5 330.5 c 1,201,-1
 321.5 330.5 l 1,116,-1
EndSplineSet
Validated: 1061
EndChar

StartChar: florin
Encoding: 493 402 405
Width: 400
GlyphClass: 2
Flags: W
AnchorPoint: "Anker-4" 184 700 basechar 0
AnchorPoint: "Anker-2" 189 0 basechar 0
LayerCount: 2
Fore
SplineSet
89 25 m 1,0,-1
 19 25 l 1,1,-1
 19 125 l 1,2,-1
 59 125 l 1,3,-1
 59 575 l 1,4,-1
 19 575 l 1,5,-1
 19 675 l 1,6,-1
 89 675 l 1,7,-1
 89 745 l 1,8,-1
 151 745 l 1,9,-1
 151 675 l 1,10,-1
 209 675 l 1,11,-1
 209 745 l 1,12,-1
 271 745 l 1,13,-1
 271 667 l 1,14,15
 368 641 368 641 368 519 c 2,16,-1
 368 504 l 2,17,18
 368 450 368 450 351 415.5 c 128,-1,19
 334 381 334 381 297 364 c 1,20,-1
 297 362 l 1,21,22
 340 345 340 345 359.5 307.5 c 128,-1,23
 379 270 379 270 379 213 c 2,24,-1
 379 191 l 2,25,26
 379 126 379 126 351.5 86 c 128,-1,27
 324 46 324 46 271 32 c 1,28,-1
 271 -55 l 1,29,-1
 209 -55 l 1,30,-1
 209 25 l 1,31,-1
 151 25 l 1,32,-1
 151 -55 l 1,33,-1
 89 -55 l 1,34,-1
 89 25 l 1,0,-1
192 405 m 2,35,36
 225 405 225 405 241.5 422 c 128,-1,37
 258 439 258 439 258 479 c 2,38,-1
 258 503 l 2,39,40
 258 541 258 541 244.5 558 c 128,-1,41
 231 575 231 575 202 575 c 2,42,-1
 169 575 l 1,43,-1
 169 405 l 1,44,-1
 192 405 l 2,35,36
212 125 m 2,45,46
 241 125 241 125 255 140.5 c 128,-1,47
 269 156 269 156 269 194 c 2,48,-1
 269 220 l 2,49,50
 269 268 269 268 252.5 286.5 c 128,-1,51
 236 305 236 305 198 305 c 2,52,-1
 169 305 l 1,53,-1
 169 125 l 1,54,-1
 212 125 l 2,45,46
EndSplineSet
Validated: 1048577
EndChar

StartChar: uni20B9
Encoding: 494 8377 406
Width: 400
Flags: W
LayerCount: 2
Fore
SplineSet
28 313 m 1,0,-1
 28 398 l 1,1,-1
 120 398 l 2,2,3
 163 398 163 398 183.5 413 c 128,-1,4
 204 428 204 428 204 464 c 1,5,-1
 28 464 l 1,6,-1
 28 549 l 1,7,-1
 204 549 l 1,8,9
 204 585 204 585 183.5 600 c 128,-1,10
 163 615 163 615 120 615 c 2,11,-1
 28 615 l 1,12,-1
 28 700 l 1,13,-1
 372 700 l 1,14,-1
 372 615 l 1,15,-1
 288 615 l 1,16,17
 307 587 307 587 313 549 c 1,18,-1
 372 549 l 1,19,-1
 372 464 l 1,20,-1
 313 464 l 1,21,22
 309 418 309 418 285.5 383.5 c 128,-1,23
 262 349 262 349 228 331 c 128,-1,24
 194 313 194 313 160 313 c 1,25,-1
 378 0 l 1,26,-1
 245 0 l 1,27,-1
 28 313 l 1,0,-1
EndSplineSet
Validated: 1
EndChar

StartChar: sterling
Encoding: 163 163 407
Width: 400
Flags: W
LayerCount: 2
Fore
SplineSet
35 94 m 1,0,1
 80 115 80 115 105 154 c 128,-1,2
 130 193 130 193 130 238 c 0,3,4
 130 255 130 255 127 270 c 1,5,-1
 35 270 l 1,6,-1
 35 355 l 1,7,-1
 109 355 l 1,8,9
 84 401 84 401 72.5 425 c 128,-1,10
 61 449 61 449 53 480 c 128,-1,11
 45 511 45 511 45 551 c 0,12,13
 45 622 45 622 87 666 c 128,-1,14
 129 710 129 710 207 710 c 0,15,16
 287 710 287 710 328 664.5 c 128,-1,17
 369 619 369 619 369 534 c 2,18,-1
 369 493 l 1,19,-1
 265 493 l 1,20,-1
 265 541 l 2,21,22
 265 577 265 577 251 593.5 c 128,-1,23
 237 610 237 610 210 610 c 256,24,25
 183 610 183 610 169 593.5 c 128,-1,26
 155 577 155 577 155 541 c 0,27,28
 155 502 155 502 166 467 c 128,-1,29
 177 432 177 432 196 390 c 2,30,-1
 211 355 l 1,31,-1
 333 355 l 1,32,-1
 333 270 l 1,33,-1
 230 270 l 1,34,35
 230 218 230 218 216 177 c 128,-1,36
 202 136 202 136 161 100 c 1,37,-1
 362 100 l 1,38,-1
 362 0 l 1,39,-1
 35 0 l 1,40,-1
 35 94 l 1,0,1
EndSplineSet
Validated: 1
EndChar

StartChar: yen
Encoding: 165 165 409
Width: 400
Flags: W
LayerCount: 2
Fore
SplineSet
145 112 m 1,0,-1
 56 112 l 1,1,-1
 56 181 l 1,2,-1
 145 181 l 1,3,-1
 145 254 l 1,4,-1
 56 254 l 1,5,-1
 56 323 l 1,6,-1
 138 323 l 1,7,-1
 11 700 l 1,8,-1
 128 700 l 1,9,-1
 204 439 l 1,10,-1
 206 439 l 1,11,-1
 282 700 l 1,12,-1
 389 700 l 1,13,-1
 262 323 l 1,14,-1
 348 323 l 1,15,-1
 348 254 l 1,16,-1
 255 254 l 1,17,-1
 255 181 l 1,18,-1
 348 181 l 1,19,-1
 348 112 l 1,20,-1
 255 112 l 1,21,-1
 255 0 l 1,22,-1
 145 0 l 1,23,-1
 145 112 l 1,0,-1
EndSplineSet
Validated: 1
EndChar

StartChar: uni2219
Encoding: 496 8729 410
Width: 220
Flags: W
LayerCount: 2
Fore
SplineSet
46 414 m 1,0,-1
 174 414 l 1,1,-1
 174 286 l 1,2,-1
 46 286 l 1,3,-1
 46 414 l 1,0,-1
EndSplineSet
Validated: 1
EndChar

StartChar: uni2215
Encoding: 497 8725 411
Width: 400
Flags: W
LayerCount: 2
Fore
SplineSet
299 700 m 1,0,-1
 383 700 l 1,1,-1
 101 0 l 1,2,-1
 17 0 l 1,3,-1
 299 700 l 1,0,-1
EndSplineSet
Validated: 1
EndChar

StartChar: plus
Encoding: 43 43 412
Width: 400
Flags: W
LayerCount: 2
Fore
SplineSet
161 311 m 1,0,-1
 27 311 l 1,1,-1
 27 389 l 1,2,-1
 161 389 l 1,3,-1
 161 524 l 1,4,-1
 239 524 l 1,5,-1
 239 389 l 1,6,-1
 373 389 l 1,7,-1
 373 311 l 1,8,-1
 239 311 l 1,9,-1
 239 174 l 1,10,-1
 161 174 l 1,11,-1
 161 311 l 1,0,-1
EndSplineSet
Validated: 1
EndChar

StartChar: minus
Encoding: 498 8722 413
Width: 400
Flags: W
LayerCount: 2
Fore
SplineSet
27 389 m 1,0,-1
 373 389 l 1,1,-1
 373 311 l 1,2,-1
 27 311 l 1,3,-1
 27 389 l 1,0,-1
EndSplineSet
Validated: 1
EndChar

StartChar: multiply
Encoding: 215 215 414
Width: 400
Flags: W
LayerCount: 2
Fore
SplineSet
40 240 m 1,0,-1
 146 350 l 1,1,-1
 41 459 l 1,2,-1
 94 512 l 1,3,-1
 200 403 l 1,4,-1
 306 513 l 1,5,-1
 359 460 l 1,6,-1
 253 350 l 1,7,-1
 359 240 l 1,8,-1
 306 187 l 1,9,-1
 200 297 l 1,10,-1
 93 187 l 1,11,-1
 40 240 l 1,0,-1
EndSplineSet
Validated: 1
EndChar

StartChar: divide
Encoding: 247 247 415
Width: 400
Flags: W
LayerCount: 2
Fore
SplineSet
147 555 m 1,0,-1
 253 555 l 1,1,-1
 253 449 l 1,2,-1
 147 449 l 1,3,-1
 147 555 l 1,0,-1
27 389 m 1,4,-1
 373 389 l 1,5,-1
 373 311 l 1,6,-1
 27 311 l 1,7,-1
 27 389 l 1,4,-1
147 250 m 1,8,-1
 253 250 l 1,9,-1
 253 144 l 1,10,-1
 147 144 l 1,11,-1
 147 250 l 1,8,-1
EndSplineSet
Validated: 1
EndChar

StartChar: equal
Encoding: 61 61 416
Width: 400
Flags: W
LayerCount: 2
Fore
SplineSet
37 470 m 1,0,-1
 363 470 l 1,1,-1
 363 392 l 1,2,-1
 37 392 l 1,3,-1
 37 470 l 1,0,-1
37 308 m 1,4,-1
 363 308 l 1,5,-1
 363 230 l 1,6,-1
 37 230 l 1,7,-1
 37 308 l 1,4,-1
EndSplineSet
Validated: 1
EndChar

StartChar: notequal
Encoding: 499 8800 417
Width: 400
Flags: W
LayerCount: 2
Fore
SplineSet
90 230 m 1,0,-1
 37 230 l 1,1,-1
 37 308 l 1,2,-1
 136 308 l 1,3,-1
 186 392 l 1,4,-1
 37 392 l 1,5,-1
 37 470 l 1,6,-1
 232 470 l 1,7,-1
 285 560 l 1,8,-1
 363 560 l 1,9,-1
 310 470 l 1,10,-1
 363 470 l 1,11,-1
 363 392 l 1,12,-1
 264 392 l 1,13,-1
 214 308 l 1,14,-1
 363 308 l 1,15,-1
 363 230 l 1,16,-1
 168 230 l 1,17,-1
 115 140 l 1,18,-1
 37 140 l 1,19,-1
 90 230 l 1,0,-1
EndSplineSet
Validated: 1
EndChar

StartChar: greater
Encoding: 62 62 418
Width: 400
Flags: W
LayerCount: 2
Fore
SplineSet
54 261 m 1,0,-1
 265 350 l 1,1,-1
 54 439 l 1,2,-1
 54 519 l 1,3,-1
 360 387 l 1,4,-1
 360 313 l 1,5,-1
 54 181 l 1,6,-1
 54 261 l 1,0,-1
EndSplineSet
Validated: 1
EndChar

StartChar: less
Encoding: 60 60 419
Width: 400
Flags: W
LayerCount: 2
Fore
SplineSet
40 313 m 1,0,-1
 40 387 l 1,1,-1
 346 519 l 1,2,-1
 346 439 l 1,3,-1
 135 350 l 1,4,-1
 346 261 l 1,5,-1
 346 181 l 1,6,-1
 40 313 l 1,0,-1
EndSplineSet
Validated: 1
EndChar

StartChar: greaterequal
Encoding: 500 8805 420
Width: 400
Flags: W
LayerCount: 2
Fore
SplineSet
51 331 m 1,0,-1
 249 395 l 1,1,-1
 51 459 l 1,2,-1
 51 539 l 1,3,-1
 357 432 l 1,4,-1
 357 358 l 1,5,-1
 51 251 l 1,6,-1
 51 331 l 1,0,-1
51 232 m 1,7,-1
 357 232 l 1,8,-1
 357 154 l 1,9,-1
 51 154 l 1,10,-1
 51 232 l 1,7,-1
EndSplineSet
Validated: 1
EndChar

StartChar: lessequal
Encoding: 501 8804 421
Width: 400
Flags: W
LayerCount: 2
Fore
SplineSet
349 459 m 1,0,-1
 151 395 l 1,1,-1
 349 331 l 1,2,-1
 349 251 l 1,3,-1
 43 358 l 1,4,-1
 43 432 l 1,5,-1
 349 539 l 1,6,-1
 349 459 l 1,0,-1
43 232 m 1,7,-1
 349 232 l 1,8,-1
 349 154 l 1,9,-1
 43 154 l 1,10,-1
 43 232 l 1,7,-1
EndSplineSet
Validated: 1
EndChar

StartChar: plusminus
Encoding: 177 177 422
Width: 400
Flags: W
LayerCount: 2
Fore
SplineSet
36 242 m 1,0,-1
 160 242 l 1,1,-1
 160 352 l 1,2,-1
 36 352 l 1,3,-1
 36 430 l 1,4,-1
 160 430 l 1,5,-1
 160 544 l 1,6,-1
 238 544 l 1,7,-1
 238 430 l 1,8,-1
 362 430 l 1,9,-1
 362 352 l 1,10,-1
 238 352 l 1,11,-1
 238 242 l 1,12,-1
 362 242 l 1,13,-1
 362 164 l 1,14,-1
 36 164 l 1,15,-1
 36 242 l 1,0,-1
EndSplineSet
Validated: 1
EndChar

StartChar: approxequal
Encoding: 502 8776 423
Width: 400
Flags: W
LayerCount: 2
Fore
SplineSet
12 406 m 1,0,1
 43 459 43 459 69.5 482.5 c 128,-1,2
 96 506 96 506 133 506 c 0,3,4
 150 506 150 506 165 500 c 128,-1,5
 180 494 180 494 207 477 c 256,6,7
 234 460 234 460 244.5 454.5 c 128,-1,8
 255 449 255 449 266 449 c 0,9,10
 283 449 283 449 295 461.5 c 128,-1,11
 307 474 307 474 331 509 c 1,12,-1
 388 466 l 1,13,14
 357 413 357 413 330.5 389.5 c 128,-1,15
 304 366 304 366 267 366 c 0,16,17
 250 366 250 366 235 372 c 128,-1,18
 220 378 220 378 193 395 c 256,19,20
 166 412 166 412 155.5 417.5 c 128,-1,21
 145 423 145 423 134 423 c 0,22,23
 117 423 117 423 105 410.5 c 128,-1,24
 93 398 93 398 69 363 c 1,25,-1
 12 406 l 1,0,1
12 234 m 1,26,27
 43 287 43 287 69.5 310.5 c 128,-1,28
 96 334 96 334 133 334 c 0,29,30
 150 334 150 334 165 328 c 128,-1,31
 180 322 180 322 207 305 c 256,32,33
 234 288 234 288 244.5 282.5 c 128,-1,34
 255 277 255 277 266 277 c 0,35,36
 283 277 283 277 295 289.5 c 128,-1,37
 307 302 307 302 331 337 c 1,38,-1
 388 294 l 1,39,40
 357 241 357 241 330.5 217.5 c 128,-1,41
 304 194 304 194 267 194 c 0,42,43
 250 194 250 194 235 200 c 128,-1,44
 220 206 220 206 193 223 c 256,45,46
 166 240 166 240 155.5 245.5 c 128,-1,47
 145 251 145 251 134 251 c 0,48,49
 117 251 117 251 105 238.5 c 128,-1,50
 93 226 93 226 69 191 c 1,51,-1
 12 234 l 1,26,27
EndSplineSet
Validated: 1
EndChar

StartChar: asciitilde
Encoding: 126 126 424
Width: 400
Flags: W
LayerCount: 2
Fore
SplineSet
12 320 m 1,0,1
 43 373 43 373 69.5 396.5 c 128,-1,2
 96 420 96 420 133 420 c 0,3,4
 150 420 150 420 165 414 c 128,-1,5
 180 408 180 408 207 391 c 256,6,7
 234 374 234 374 244.5 368.5 c 128,-1,8
 255 363 255 363 266 363 c 0,9,10
 283 363 283 363 295 375.5 c 128,-1,11
 307 388 307 388 331 423 c 1,12,-1
 388 380 l 1,13,14
 357 327 357 327 330.5 303.5 c 128,-1,15
 304 280 304 280 267 280 c 0,16,17
 250 280 250 280 235 286 c 128,-1,18
 220 292 220 292 193 309 c 256,19,20
 166 326 166 326 155.5 331.5 c 128,-1,21
 145 337 145 337 134 337 c 0,22,23
 117 337 117 337 105 324.5 c 128,-1,24
 93 312 93 312 69 277 c 1,25,-1
 12 320 l 1,0,1
EndSplineSet
Validated: 1
EndChar

StartChar: logicalnot
Encoding: 172 172 425
Width: 400
Flags: W
LayerCount: 2
Fore
SplineSet
290 311 m 1,0,-1
 22 311 l 1,1,-1
 22 389 l 1,2,-1
 368 389 l 1,3,-1
 368 174 l 1,4,-1
 290 174 l 1,5,-1
 290 311 l 1,0,-1
EndSplineSet
Validated: 1
EndChar

StartChar: asciicircum
Encoding: 94 94 426
Width: 400
Flags: W
LayerCount: 2
Fore
SplineSet
162 700 m 1,0,-1
 236 700 l 1,1,-1
 379 430 l 1,2,-1
 289 430 l 1,3,-1
 199 600 l 1,4,-1
 109 430 l 1,5,-1
 19 430 l 1,6,-1
 162 700 l 1,0,-1
EndSplineSet
Validated: 1
EndChar

StartChar: infinity
Encoding: 503 8734 427
Width: 643
Flags: W
LayerCount: 2
Fore
SplineSet
64 230.5 m 128,-1,1
 26 280 26 280 26 351 c 256,2,3
 26 422 26 422 64 470.5 c 128,-1,4
 102 519 102 519 175 519 c 0,5,6
 222 519 222 519 255 496.5 c 128,-1,7
 288 474 288 474 317 427 c 1,8,-1
 321 427 l 1,9,10
 348 470 348 470 382.5 494.5 c 128,-1,11
 417 519 417 519 466 519 c 0,12,13
 541 519 541 519 579 469.5 c 128,-1,14
 617 420 617 420 617 349 c 256,15,16
 617 278 617 278 579 229.5 c 128,-1,17
 541 181 541 181 468 181 c 0,18,19
 421 181 421 181 388 203.5 c 128,-1,20
 355 226 355 226 326 273 c 1,21,-1
 321 273 l 1,22,23
 295 230 295 230 260.5 205.5 c 128,-1,24
 226 181 226 181 177 181 c 0,25,0
 102 181 102 181 64 230.5 c 128,-1,1
233.5 281 m 128,-1,27
 252 300 252 300 268 334 c 2,28,-1
 278 355 l 1,29,-1
 265 375 l 2,30,31
 246 407 246 407 228.5 423.5 c 128,-1,32
 211 440 211 440 183 440 c 0,33,34
 151 440 151 440 131 414.5 c 128,-1,35
 111 389 111 389 111 351 c 256,36,37
 111 313 111 313 130.5 287.5 c 128,-1,38
 150 262 150 262 183 262 c 0,39,26
 215 262 215 262 233.5 281 c 128,-1,27
512 285.5 m 128,-1,41
 532 311 532 311 532 349 c 256,42,43
 532 387 532 387 512.5 413 c 128,-1,44
 493 439 493 439 460 439 c 0,45,46
 438 439 438 439 422.5 428.5 c 128,-1,47
 407 418 407 418 398 404.5 c 128,-1,48
 389 391 389 391 375 366 c 2,49,-1
 363 345 l 1,50,-1
 378 323 l 2,51,52
 399 292 399 292 416 276 c 128,-1,53
 433 260 433 260 460 260 c 0,54,40
 492 260 492 260 512 285.5 c 128,-1,41
EndSplineSet
Validated: 1
EndChar

StartChar: emptyset
Encoding: 504 8709 428
Width: 734
Flags: W
LayerCount: 2
Fore
SplineSet
54 84 m 1,0,-1
 115 148 l 1,1,2
 54 231 54 231 54 345 c 0,3,4
 54 436 54 436 94.5 510 c 128,-1,5
 135 584 135 584 206.5 626 c 128,-1,6
 278 668 278 668 367 668 c 0,7,8
 473 668 473 668 555 608 c 1,9,-1
 612 668 l 1,10,-1
 680 606 l 1,11,-1
 619 542 l 1,12,13
 680 459 680 459 680 345 c 0,14,15
 680 254 680 254 639.5 180 c 128,-1,16
 599 106 599 106 527.5 64 c 128,-1,17
 456 22 456 22 367 22 c 0,18,19
 261 22 261 22 179 82 c 1,20,-1
 122 22 l 1,21,-1
 54 84 l 1,0,-1
486 536 m 1,22,23
 434 574 434 574 367 574 c 0,24,25
 308 574 308 574 260.5 544.5 c 128,-1,26
 213 515 213 515 186 462.5 c 128,-1,27
 159 410 159 410 159 345 c 0,28,29
 159 276 159 276 188 224 c 1,30,-1
 486 536 l 1,22,23
473.5 145.5 m 128,-1,32
 521 175 521 175 548 227.5 c 128,-1,33
 575 280 575 280 575 345 c 0,34,35
 575 414 575 414 546 466 c 1,36,-1
 248 154 l 1,37,38
 300 116 300 116 367 116 c 0,39,31
 426 116 426 116 473.5 145.5 c 128,-1,32
EndSplineSet
Validated: 1
EndChar

StartChar: integral
Encoding: 505 8747 429
Width: 400
Flags: W
LayerCount: 2
Fore
SplineSet
54 -160 m 1,1,-1
 54 -60 l 1,2,3
 76 -71 76 -71 99 -71 c 0,4,5
 144 -71 144 -71 144 -21 c 2,6,-1
 144 608 l 2,7,8
 144 677 144 677 179 713.5 c 128,-1,9
 214 750 214 750 278 750 c 0,10,11
 318 750 318 750 344 740 c 1,12,-1
 344 641 l 1,13,14
 326 651 326 651 299 651 c 0,15,16
 254 651 254 651 254 601 c 2,17,-1
 254 -28 l 2,18,19
 254 -97 254 -97 219 -133.5 c 128,-1,20
 184 -170 184 -170 120 -170 c 0,21,0
 80 -170 80 -170 54 -160 c 1,1,-1
EndSplineSet
Validated: 1
EndChar

StartChar: product
Encoding: 508 8719 432
Width: 465
Flags: W
LayerCount: 2
Fore
SplineSet
49 700 m 1,0,-1
 416 700 l 1,1,-1
 416 -160 l 1,2,-1
 306 -160 l 1,3,-1
 306 600 l 1,4,-1
 159 600 l 1,5,-1
 159 -160 l 1,6,-1
 49 -160 l 1,7,-1
 49 700 l 1,0,-1
EndSplineSet
Validated: 1
EndChar

StartChar: summation
Encoding: 509 8721 433
Width: 411
GlyphClass: 2
Flags: W
AnchorPoint: "Anker-1" 178 700 basechar 0
AnchorPoint: "Anker-0" 185 0 basechar 0
LayerCount: 2
Fore
SplineSet
25 -62 m 1,0,-1
 210 271 l 1,1,-1
 25 602 l 1,2,-1
 25 700 l 1,3,-1
 387 700 l 1,4,-1
 387 600 l 1,5,-1
 143 600 l 1,6,-1
 320 270 l 1,7,-1
 143 -60 l 1,8,-1
 387 -60 l 1,9,-1
 387 -160 l 1,10,-1
 25 -160 l 1,11,-1
 25 -62 l 1,0,-1
EndSplineSet
Validated: 1
EndChar

StartChar: radical
Encoding: 510 8730 434
Width: 475
Flags: W
LayerCount: 2
Fore
SplineSet
83 311 m 1,0,-1
 16 311 l 1,1,-1
 16 389 l 1,2,-1
 167 389 l 1,3,-1
 232 82 l 1,4,-1
 376 700 l 1,5,-1
 460 700 l 1,6,-1
 277 -65 l 1,7,-1
 166 -65 l 1,8,-1
 83 311 l 1,0,-1
EndSplineSet
Validated: 1
EndChar

StartChar: partialdiff
Encoding: 511 8706 436
Width: 428
Flags: W
LayerCount: 2
Fore
SplineSet
33 152 m 1,1,-1
 34 175 l 1,2,-1
 43 297 l 2,3,4
 48 373 48 373 80 412.5 c 128,-1,5
 112 452 112 452 170 452 c 0,6,7
 246 452 246 452 270 388 c 1,8,-1
 272 388 l 1,9,-1
 282 518 l 1,10,-1
 283 538 l 2,11,12
 283 577 283 577 269 593.5 c 128,-1,13
 255 610 255 610 227 610 c 0,14,15
 172 610 172 610 168 543 c 2,16,-1
 167 525 l 1,17,-1
 65 528 l 1,18,-1
 66 539 l 2,19,20
 74 624 74 624 115 667 c 128,-1,21
 156 710 156 710 234 710 c 0,22,23
 308 710 308 710 350 670.5 c 128,-1,24
 392 631 392 631 392 567 c 0,25,26
 392 538 392 538 391 522 c 2,27,-1
 366 161 l 2,28,29
 360 78 360 78 317.5 34 c 128,-1,30
 275 -10 275 -10 199 -10 c 0,31,0
 33 -10 33 -10 33 152 c 1,1,-1
257 157 m 2,33,-1
 266 300 l 1,34,35
 261 325 261 325 247.5 338 c 128,-1,36
 234 351 234 351 209 351 c 0,37,38
 156 351 156 351 152 284 c 2,39,-1
 144 171 l 1,40,-1
 143 144 l 2,41,42
 143 92 143 92 199 92 c 0,43,32
 252 92 252 92 257 157 c 2,33,-1
EndSplineSet
Validated: 1
EndChar

StartChar: percent
Encoding: 37 37 437
Width: 589
Flags: W
LayerCount: 2
Fore
SplineSet
62 340 m 128,-1,1
 35 369 35 369 35 423 c 2,2,-1
 35 598 l 2,3,4
 35 652 35 652 62 681 c 128,-1,5
 89 710 89 710 141 710 c 256,6,7
 193 710 193 710 220 681 c 128,-1,8
 247 652 247 652 247 598 c 2,9,-1
 247 423 l 2,10,11
 247 369 247 369 220 340 c 128,-1,12
 193 311 193 311 141 311 c 256,13,0
 89 311 89 311 62 340 c 128,-1,1
395 700 m 1,14,-1
 465 700 l 1,15,-1
 194 0 l 1,16,-1
 124 0 l 1,17,-1
 395 700 l 1,14,-1
177 418 m 2,19,-1
 177 603 l 2,20,21
 177 647 177 647 141 647 c 256,22,23
 105 647 105 647 105 603 c 2,24,-1
 105 418 l 2,25,26
 105 374 105 374 141 374 c 256,27,18
 177 374 177 374 177 418 c 2,19,-1
369 19 m 128,-1,29
 342 48 342 48 342 102 c 2,30,-1
 342 277 l 2,31,32
 342 331 342 331 369 360 c 128,-1,33
 396 389 396 389 448 389 c 256,34,35
 500 389 500 389 527 360 c 128,-1,36
 554 331 554 331 554 277 c 2,37,-1
 554 102 l 2,38,39
 554 48 554 48 527 19 c 128,-1,40
 500 -10 500 -10 448 -10 c 256,41,28
 396 -10 396 -10 369 19 c 128,-1,29
484 97 m 2,43,-1
 484 282 l 2,44,45
 484 326 484 326 448 326 c 256,46,47
 412 326 412 326 412 282 c 2,48,-1
 412 97 l 2,49,50
 412 53 412 53 448 53 c 256,51,42
 484 53 484 53 484 97 c 2,43,-1
EndSplineSet
Validated: 1
EndChar

StartChar: perthousand
Encoding: 512 8240 438
Width: 845
Flags: W
LayerCount: 2
Fore
SplineSet
62 340 m 128,-1,1
 35 369 35 369 35 423 c 2,2,-1
 35 598 l 2,3,4
 35 652 35 652 62 681 c 128,-1,5
 89 710 89 710 141 710 c 256,6,7
 193 710 193 710 220 681 c 128,-1,8
 247 652 247 652 247 598 c 2,9,-1
 247 423 l 2,10,11
 247 369 247 369 220 340 c 128,-1,12
 193 311 193 311 141 311 c 256,13,0
 89 311 89 311 62 340 c 128,-1,1
395 700 m 1,14,-1
 465 700 l 1,15,-1
 194 0 l 1,16,-1
 124 0 l 1,17,-1
 395 700 l 1,14,-1
177 418 m 2,19,-1
 177 603 l 2,20,21
 177 647 177 647 141 647 c 256,22,23
 105 647 105 647 105 603 c 2,24,-1
 105 418 l 2,25,26
 105 374 105 374 141 374 c 256,27,18
 177 374 177 374 177 418 c 2,19,-1
369 19 m 128,-1,29
 342 48 342 48 342 102 c 2,30,-1
 342 277 l 2,31,32
 342 331 342 331 369 360 c 128,-1,33
 396 389 396 389 448 389 c 256,34,35
 500 389 500 389 527 360 c 128,-1,36
 554 331 554 331 554 277 c 2,37,-1
 554 102 l 2,38,39
 554 48 554 48 527 19 c 128,-1,40
 500 -10 500 -10 448 -10 c 256,41,28
 396 -10 396 -10 369 19 c 128,-1,29
625 19 m 128,-1,43
 598 48 598 48 598 102 c 2,44,-1
 598 277 l 2,45,46
 598 331 598 331 625 360 c 128,-1,47
 652 389 652 389 704 389 c 256,48,49
 756 389 756 389 783 360 c 128,-1,50
 810 331 810 331 810 277 c 2,51,-1
 810 102 l 2,52,53
 810 48 810 48 783 19 c 128,-1,54
 756 -10 756 -10 704 -10 c 256,55,42
 652 -10 652 -10 625 19 c 128,-1,43
484 97 m 2,57,-1
 484 282 l 2,58,59
 484 326 484 326 448 326 c 256,60,61
 412 326 412 326 412 282 c 2,62,-1
 412 97 l 2,63,64
 412 53 412 53 448 53 c 256,65,56
 484 53 484 53 484 97 c 2,57,-1
740 97 m 2,67,-1
 740 282 l 2,68,69
 740 326 740 326 704 326 c 256,70,71
 668 326 668 326 668 282 c 2,72,-1
 668 97 l 2,73,74
 668 53 668 53 704 53 c 256,75,66
 740 53 740 53 740 97 c 2,67,-1
EndSplineSet
Validated: 1
EndChar

StartChar: circle
Encoding: 513 9675 439
Width: 738
Flags: W
LayerCount: 2
Fore
SplineSet
190.5 37 m 128,-1,1
 111 84 111 84 66 166 c 128,-1,2
 21 248 21 248 21 350 c 256,3,4
 21 452 21 452 66 534 c 128,-1,5
 111 616 111 616 190.5 663 c 128,-1,6
 270 710 270 710 369 710 c 256,7,8
 468 710 468 710 547.5 663 c 128,-1,9
 627 616 627 616 672 534 c 128,-1,10
 717 452 717 452 717 350 c 256,11,12
 717 248 717 248 672 166 c 128,-1,13
 627 84 627 84 547.5 37 c 128,-1,14
 468 -10 468 -10 369 -10 c 256,15,0
 270 -10 270 -10 190.5 37 c 128,-1,1
511 97 m 128,-1,17
 574 134 574 134 609.5 200.5 c 128,-1,18
 645 267 645 267 645 350 c 256,19,20
 645 433 645 433 609.5 499.5 c 128,-1,21
 574 566 574 566 511 603 c 128,-1,22
 448 640 448 640 369 640 c 256,23,24
 290 640 290 640 227 603 c 128,-1,25
 164 566 164 566 128.5 499.5 c 128,-1,26
 93 433 93 433 93 350 c 256,27,28
 93 267 93 267 128.5 200.5 c 128,-1,29
 164 134 164 134 227 97 c 128,-1,30
 290 60 290 60 369 60 c 256,31,16
 448 60 448 60 511 97 c 128,-1,17
EndSplineSet
Validated: 1
EndChar

StartChar: lozenge
Encoding: 514 9674 440
Width: 400
Flags: W
LayerCount: 2
Fore
SplineSet
20 350 m 1,0,-1
 183 710 l 1,1,-1
 217 710 l 1,2,-1
 380 350 l 1,3,-1
 217 -10 l 1,4,-1
 183 -10 l 1,5,-1
 20 350 l 1,0,-1
290 350 m 1,6,-1
 200 566 l 1,7,-1
 110 350 l 1,8,-1
 200 134 l 1,9,-1
 290 350 l 1,6,-1
EndSplineSet
Validated: 1
EndChar

StartChar: uniF8FF
Encoding: 515 63743 441
Width: 634
Flags: W
LayerCount: 2
Fore
SplineSet
132 72.5 m 128,-1,1
 80 101 80 101 51.5 152 c 128,-1,2
 23 203 23 203 23 269 c 256,3,4
 23 335 23 335 52 386 c 128,-1,5
 81 437 81 437 135.5 465.5 c 128,-1,6
 190 494 190 494 264 494 c 2,7,-1
 323 494 l 1,8,-1
 323 610 l 1,9,-1
 479 610 l 1,10,-1
 479 494 l 1,11,-1
 611 494 l 1,12,-1
 611 342 l 1,13,-1
 479 342 l 1,14,-1
 479 282 l 2,15,16
 479 209 479 209 450 155 c 128,-1,17
 421 101 421 101 369.5 72.5 c 128,-1,18
 318 44 318 44 251 44 c 256,19,0
 184 44 184 44 132 72.5 c 128,-1,1
303 219.5 m 128,-1,21
 323 241 323 241 323 281 c 2,22,-1
 323 342 l 1,23,-1
 263 342 l 2,24,25
 223 342 223 342 202 322 c 128,-1,26
 181 302 181 302 181 270 c 256,27,28
 181 238 181 238 201 218 c 128,-1,29
 221 198 221 198 252 198 c 256,30,20
 283 198 283 198 303 219.5 c 128,-1,21
EndSplineSet
Validated: 1
EndChar

StartChar: at
Encoding: 64 64 442
Width: 696
Flags: W
LayerCount: 2
Fore
SplineSet
104 33.5 m 128,-1,1
 25 127 25 127 25 290 c 0,2,3
 25 417 25 417 66.5 519 c 128,-1,4
 108 621 108 621 191.5 680.5 c 128,-1,5
 275 740 275 740 394 740 c 0,6,7
 542 740 542 740 607 660 c 128,-1,8
 672 580 672 580 672 446 c 0,9,10
 672 334 672 334 641 264 c 128,-1,11
 610 194 610 194 565.5 163.5 c 128,-1,12
 521 133 521 133 477 133 c 0,13,14
 396 133 396 133 390 199 c 1,15,-1
 388 199 l 1,16,17
 373 168 373 168 350 153.5 c 128,-1,18
 327 139 327 139 294 139 c 0,19,20
 249 139 249 139 224.5 170.5 c 128,-1,21
 200 202 200 202 200 259 c 0,22,23
 200 271 200 271 202 293 c 2,24,-1
 213 394 l 2,25,26
 230 542 230 542 333 542 c 0,27,28
 395 542 395 542 415 481 c 1,29,-1
 417 481 l 1,30,-1
 426 538 l 1,31,-1
 519 538 l 1,32,-1
 490 259 l 1,33,-1
 489 243 l 2,34,35
 489 224 489 224 509 224 c 0,36,37
 548 224 548 224 568.5 292.5 c 128,-1,38
 589 361 589 361 589 444 c 0,39,40
 589 542 589 542 540 598.5 c 128,-1,41
 491 655 491 655 390 655 c 0,42,43
 258 655 258 655 188.5 557 c 128,-1,44
 119 459 119 459 119 285 c 0,45,46
 119 161 119 161 177.5 92.5 c 128,-1,47
 236 24 236 24 352 24 c 0,48,49
 412 24 412 24 460.5 39 c 128,-1,50
 509 54 509 54 559 92 c 1,51,-1
 551 -4 l 1,52,53
 504 -35 504 -35 455 -47.5 c 128,-1,54
 406 -60 406 -60 346 -60 c 0,55,0
 183 -60 183 -60 104 33.5 c 128,-1,1
398 295 m 2,57,-1
 408 390 l 1,58,-1
 409 402 l 2,59,60
 409 424 409 424 397 435 c 128,-1,61
 385 446 385 446 365 446 c 0,62,63
 340 446 340 446 326 431.5 c 128,-1,64
 312 417 312 417 308 383 c 2,65,-1
 299 298 l 1,66,-1
 298 283 l 2,67,68
 298 257 298 257 309.5 244.5 c 128,-1,69
 321 232 321 232 342 232 c 0,70,56
 391 232 391 232 398 295 c 2,57,-1
EndSplineSet
Validated: 1
EndChar

StartChar: ampersand
Encoding: 38 38 443
Width: 417
Flags: W
LayerCount: 2
Fore
SplineSet
65 31 m 128,-1,1
 34 72 34 72 34 150 c 2,2,-1
 34 223 l 2,3,4
 34 278 34 278 53 315 c 128,-1,5
 72 352 72 352 115 369 c 1,6,-1
 115 371 l 1,7,8
 76 387 76 387 57.5 422.5 c 128,-1,9
 39 458 39 458 39 514 c 2,10,-1
 39 527 l 2,11,12
 39 612 39 612 80 656 c 128,-1,13
 121 700 121 700 203 700 c 2,14,-1
 329 700 l 1,15,-1
 329 600 l 1,16,-1
 205 600 l 2,17,18
 178 600 178 600 163.5 584 c 128,-1,19
 149 568 149 568 149 532 c 2,20,-1
 149 489 l 2,21,22
 149 449 149 449 165.5 432 c 128,-1,23
 182 415 182 415 215 415 c 2,24,-1
 258 415 l 1,25,-1
 258 493 l 1,26,-1
 366 493 l 1,27,-1
 366 415 l 1,28,-1
 397 415 l 1,29,-1
 397 315 l 1,30,-1
 366 315 l 1,31,-1
 366 85 l 2,32,33
 366 55 366 55 368 36.5 c 128,-1,34
 370 18 370 18 378 0 c 1,35,-1
 268 0 l 1,36,37
 260 22 260 22 258 55 c 1,38,-1
 256 55 l 1,39,40
 238 22 238 22 214.5 6 c 128,-1,41
 191 -10 191 -10 156 -10 c 0,42,0
 96 -10 96 -10 65 31 c 128,-1,1
258 153 m 1,44,-1
 258 315 l 1,45,-1
 216 315 l 2,46,47
 178 315 178 315 161 294.5 c 128,-1,48
 144 274 144 274 144 226 c 2,49,-1
 144 155 l 2,50,51
 144 120 144 120 158 105 c 128,-1,52
 172 90 172 90 197 90 c 0,53,43
 249 90 249 90 258 153 c 1,44,-1
EndSplineSet
Validated: 1
EndChar

StartChar: paragraph
Encoding: 182 182 444
Width: 449
Flags: W
LayerCount: 2
Fore
SplineSet
174 305 m 1,0,1
 132 305 132 305 98.5 327 c 128,-1,2
 65 349 65 349 45.5 388 c 128,-1,3
 26 427 26 427 26 476 c 2,4,-1
 26 527 l 2,5,6
 26 609 26 609 76 654.5 c 128,-1,7
 126 700 126 700 210 700 c 2,8,-1
 398 700 l 1,9,-1
 398 -97 l 1,10,-1
 316 -97 l 1,11,-1
 316 620 l 1,12,-1
 256 620 l 1,13,-1
 256 -97 l 1,14,-1
 174 -97 l 1,15,-1
 174 305 l 1,0,1
EndSplineSet
Validated: 1
EndChar

StartChar: section
Encoding: 167 167 445
Width: 400
Flags: W
LayerCount: 2
Fore
SplineSet
76.5 -67.5 m 128,-1,1
 34 -28 34 -28 34 36 c 2,2,-1
 34 76 l 1,3,-1
 138 76 l 1,4,-1
 138 51 l 2,5,6
 138 21 138 21 153.5 2.5 c 128,-1,7
 169 -16 169 -16 198 -16 c 256,8,9
 227 -16 227 -16 242.5 1 c 128,-1,10
 258 18 258 18 258 47 c 0,11,12
 258 74 258 74 239.5 91.5 c 128,-1,13
 221 109 221 109 172 126 c 0,14,15
 88 155 88 155 55.5 194 c 128,-1,16
 23 233 23 233 23 291 c 0,17,18
 23 334 23 334 41 369 c 128,-1,19
 59 404 59 404 98 425 c 1,20,-1
 98 427 l 1,21,22
 61 454 61 454 46.5 486 c 128,-1,23
 32 518 32 518 32 561 c 0,24,25
 32 626 32 626 75.5 668 c 128,-1,26
 119 710 119 710 200 710 c 256,27,28
 281 710 281 710 323.5 670.5 c 128,-1,29
 366 631 366 631 366 567 c 2,30,-1
 366 537 l 1,31,-1
 262 537 l 1,32,-1
 262 552 l 2,33,34
 262 582 262 582 246.5 600.5 c 128,-1,35
 231 619 231 619 202 619 c 256,36,37
 173 619 173 619 157.5 602 c 128,-1,38
 142 585 142 585 142 556 c 0,39,40
 142 529 142 529 160.5 511.5 c 128,-1,41
 179 494 179 494 228 477 c 0,42,43
 312 448 312 448 344.5 409 c 128,-1,44
 377 370 377 370 377 312 c 0,45,46
 377 269 377 269 359 234 c 128,-1,47
 341 199 341 199 302 177 c 1,48,-1
 302 175 l 1,49,50
 340 148 340 148 354 116.5 c 128,-1,51
 368 85 368 85 368 42 c 0,52,53
 368 -23 368 -23 324.5 -65 c 128,-1,54
 281 -107 281 -107 200 -107 c 256,55,0
 119 -107 119 -107 76.5 -67.5 c 128,-1,1
257 248.5 m 128,-1,57
 272 269 272 269 272 297 c 0,58,59
 272 331 272 331 251 350 c 128,-1,60
 230 369 230 369 190 383 c 1,61,62
 158 375 158 375 143 354.5 c 128,-1,63
 128 334 128 334 128 306 c 0,64,65
 128 272 128 272 149 253 c 128,-1,66
 170 234 170 234 210 220 c 1,67,56
 242 228 242 228 257 248.5 c 128,-1,57
EndSplineSet
Validated: 1
EndChar

StartChar: copyright
Encoding: 169 169 446
Width: 738
Flags: W
LayerCount: 2
Fore
SplineSet
190.5 37 m 128,-1,1
 111 84 111 84 66 166 c 128,-1,2
 21 248 21 248 21 350 c 256,3,4
 21 452 21 452 66 534 c 128,-1,5
 111 616 111 616 190.5 663 c 128,-1,6
 270 710 270 710 369 710 c 256,7,8
 468 710 468 710 547.5 663 c 128,-1,9
 627 616 627 616 672 534 c 128,-1,10
 717 452 717 452 717 350 c 256,11,12
 717 248 717 248 672 166 c 128,-1,13
 627 84 627 84 547.5 37 c 128,-1,14
 468 -10 468 -10 369 -10 c 256,15,0
 270 -10 270 -10 190.5 37 c 128,-1,1
511 97 m 128,-1,17
 574 134 574 134 609.5 200.5 c 128,-1,18
 645 267 645 267 645 350 c 256,19,20
 645 433 645 433 609.5 499.5 c 128,-1,21
 574 566 574 566 511 603 c 128,-1,22
 448 640 448 640 369 640 c 256,23,24
 290 640 290 640 227 603 c 128,-1,25
 164 566 164 566 128.5 499.5 c 128,-1,26
 93 433 93 433 93 350 c 256,27,28
 93 267 93 267 128.5 200.5 c 128,-1,29
 164 134 164 134 227 97 c 128,-1,30
 290 60 290 60 369 60 c 256,31,16
 448 60 448 60 511 97 c 128,-1,17
280.5 161.5 m 128,-1,33
 252 193 252 193 252 252 c 2,34,-1
 252 446 l 2,35,36
 252 506 252 506 280.5 538 c 128,-1,37
 309 570 309 570 365 570 c 256,38,39
 421 570 421 570 449.5 538 c 128,-1,40
 478 506 478 506 478 446 c 2,41,-1
 478 410 l 1,42,-1
 406 410 l 1,43,-1
 406 452 l 2,44,45
 406 500 406 500 367 500 c 256,46,47
 328 500 328 500 328 452 c 2,48,-1
 328 248 l 2,49,50
 328 201 328 201 367 201 c 256,51,52
 406 201 406 201 406 248 c 2,53,-1
 406 308 l 1,54,-1
 478 308 l 1,55,-1
 478 252 l 2,56,57
 478 193 478 193 449.5 161.5 c 128,-1,58
 421 130 421 130 365 130 c 256,59,32
 309 130 309 130 280.5 161.5 c 128,-1,33
EndSplineSet
Validated: 1
EndChar

StartChar: registered
Encoding: 174 174 447
Width: 738
Flags: W
LayerCount: 2
Fore
SplineSet
190.5 37 m 128,-1,1
 111 84 111 84 66 166 c 128,-1,2
 21 248 21 248 21 350 c 256,3,4
 21 452 21 452 66 534 c 128,-1,5
 111 616 111 616 190.5 663 c 128,-1,6
 270 710 270 710 369 710 c 256,7,8
 468 710 468 710 547.5 663 c 128,-1,9
 627 616 627 616 672 534 c 128,-1,10
 717 452 717 452 717 350 c 256,11,12
 717 248 717 248 672 166 c 128,-1,13
 627 84 627 84 547.5 37 c 128,-1,14
 468 -10 468 -10 369 -10 c 256,15,0
 270 -10 270 -10 190.5 37 c 128,-1,1
511 97 m 128,-1,17
 574 134 574 134 609.5 200.5 c 128,-1,18
 645 267 645 267 645 350 c 256,19,20
 645 433 645 433 609.5 499.5 c 128,-1,21
 574 566 574 566 511 603 c 128,-1,22
 448 640 448 640 369 640 c 256,23,24
 290 640 290 640 227 603 c 128,-1,25
 164 566 164 566 128.5 499.5 c 128,-1,26
 93 433 93 433 93 350 c 256,27,28
 93 267 93 267 128.5 200.5 c 128,-1,29
 164 134 164 134 227 97 c 128,-1,30
 290 60 290 60 369 60 c 256,31,16
 448 60 448 60 511 97 c 128,-1,17
259 564 m 1,32,-1
 375 564 l 2,33,34
 433 564 433 564 460.5 536.5 c 128,-1,35
 488 509 488 509 488 452 c 2,36,-1
 488 443 l 2,37,38
 488 373 488 373 436 350 c 1,39,-1
 436 348 l 1,40,41
 464 336 464 336 476 311 c 128,-1,42
 488 286 488 286 488 246 c 2,43,-1
 488 195 l 2,44,45
 488 156 488 156 497 136 c 1,46,-1
 419 136 l 1,47,48
 415 147 415 147 413.5 157.5 c 128,-1,49
 412 168 412 168 412 196 c 2,50,-1
 412 247 l 2,51,52
 412 281 412 281 400 295 c 128,-1,53
 388 309 388 309 361 309 c 2,54,-1
 335 309 l 1,55,-1
 335 136 l 1,56,-1
 259 136 l 1,57,-1
 259 564 l 1,32,-1
366 379 m 2,58,59
 388 379 388 379 400 390.5 c 128,-1,60
 412 402 412 402 412 430 c 2,61,-1
 412 443 l 2,62,63
 412 469 412 469 402.5 481.5 c 128,-1,64
 393 494 393 494 371 494 c 2,65,-1
 335 494 l 1,66,-1
 335 379 l 1,67,-1
 366 379 l 2,58,59
EndSplineSet
Validated: 1
EndChar

StartChar: uni2117
Encoding: 516 8471 448
Width: 738
Flags: W
LayerCount: 2
Fore
SplineSet
190.5 37 m 128,-1,1
 111 84 111 84 66 166 c 128,-1,2
 21 248 21 248 21 350 c 256,3,4
 21 452 21 452 66 534 c 128,-1,5
 111 616 111 616 190.5 663 c 128,-1,6
 270 710 270 710 369 710 c 256,7,8
 468 710 468 710 547.5 663 c 128,-1,9
 627 616 627 616 672 534 c 128,-1,10
 717 452 717 452 717 350 c 256,11,12
 717 248 717 248 672 166 c 128,-1,13
 627 84 627 84 547.5 37 c 128,-1,14
 468 -10 468 -10 369 -10 c 256,15,0
 270 -10 270 -10 190.5 37 c 128,-1,1
511 97 m 128,-1,17
 574 134 574 134 609.5 200.5 c 128,-1,18
 645 267 645 267 645 350 c 256,19,20
 645 433 645 433 609.5 499.5 c 128,-1,21
 574 566 574 566 511 603 c 128,-1,22
 448 640 448 640 369 640 c 256,23,24
 290 640 290 640 227 603 c 128,-1,25
 164 566 164 566 128.5 499.5 c 128,-1,26
 93 433 93 433 93 350 c 256,27,28
 93 267 93 267 128.5 200.5 c 128,-1,29
 164 134 164 134 227 97 c 128,-1,30
 290 60 290 60 369 60 c 256,31,16
 448 60 448 60 511 97 c 128,-1,17
276 555 m 1,32,-1
 392 555 l 2,33,34
 505 555 505 555 505 443 c 2,35,-1
 505 402 l 2,36,37
 505 290 505 290 392 290 c 2,38,-1
 352 290 l 1,39,-1
 352 127 l 1,40,-1
 276 127 l 1,41,-1
 276 555 l 1,32,-1
388 360 m 2,42,43
 410 360 410 360 419.5 372.5 c 128,-1,44
 429 385 429 385 429 411 c 2,45,-1
 429 434 l 2,46,47
 429 460 429 460 419.5 472.5 c 128,-1,48
 410 485 410 485 388 485 c 2,49,-1
 352 485 l 1,50,-1
 352 360 l 1,51,-1
 388 360 l 2,42,43
EndSplineSet
Validated: 1
EndChar

StartChar: trademark
Encoding: 517 8482 449
Width: 1001
Flags: W
LayerCount: 2
Fore
SplineSet
495.75 -191.48828125 m 128,-1,1
 394.888593011 -191.48828125 394.888593011 -191.48828125 303.082725097 -152.229796418 c 128,-1,2
 211.276857182 -112.971311586 211.276857182 -112.971311586 144.89867444 -46.5955362234 c 128,-1,3
 78.5204916971 19.7802391394 78.5204916971 19.7802391394 39.2602458485 111.584626189 c 128,-1,4
 0 203.389013239 0 203.389013239 0 304.25 c 128,-1,5
 0 405.111111665 0 405.111111665 39.2602950691 496.917225683 c 128,-1,6
 78.5205901382 588.7233397 78.5205901382 588.7233397 144.898625219 655.101374781 c 128,-1,7
 211.2766603 721.479409862 211.2766603 721.479409862 303.082774317 760.739704931 c 128,-1,8
 394.888888335 800 394.888888335 800 495.75 800 c 128,-1,9
 596.611771301 800 596.611771301 800 688.419166677 760.741253037 c 128,-1,10
 780.226562052 721.482506074 780.226562052 721.482506074 846.607124217 655.105869155 c 128,-1,11
 912.987686381 588.729232237 912.987686381 588.729232237 952.249702565 496.922069687 c 128,-1,12
 991.51171875 405.114907138 991.51171875 405.114907138 991.51171875 304.25 c 128,-1,13
 991.51171875 203.389308531 991.51171875 203.389308531 952.249662665 111.584675405 c 128,-1,14
 912.98760658 19.780042278 912.98760658 19.780042278 846.607164117 -46.5955854388 c 128,-1,15
 780.226721654 -112.971213156 780.226721654 -112.971213156 688.419126776 -152.229747203 c 128,-1,0
 596.611531899 -191.48828125 596.611531899 -191.48828125 495.75 -191.48828125 c 128,-1,1
748.286132812 127.190429688 m 1,16,17
 752.01171875 115.197084263 752.01171875 115.197084263 752.01171875 104.095703125 c 0,18,19
 752.01171875 94.6833716035 752.01171875 94.6833716035 748.540676317 91.9666858018 c 128,-1,20
 745.069633885 89.25 745.069633885 89.25 735.821289062 89.25 c 2,21,-1
 646.654296875 89.25 l 1,22,-1
 646.654296875 127.190429688 l 1,23,-1
 633.404296875 128.7734375 l 1,24,-1
 633.404296875 89.25 l 1,25,-1
 600.76171875 89.25 l 1,26,-1
 602.880859375 73.8212890625 l 1,27,-1
 633.404296875 73.8212890625 l 1,28,-1
 633.404296875 48.880859375 l 1,29,-1
 646.654296875 48.880859375 l 1,30,-1
 646.654296875 73.8330078125 l 1,31,-1
 737.416992188 73.8330078125 l 2,32,33
 752.559519069 73.8330078125 752.559519069 73.8330078125 758.916478285 80.6731036697 c 128,-1,34
 765.2734375 87.513199527 765.2734375 87.513199527 765.2734375 103.036132812 c 0,35,36
 765.2734375 117.329069512 765.2734375 117.329069512 760.23828125 130.095703125 c 1,37,-1
 748.286132812 127.190429688 l 1,16,17
753.297851562 357.047851562 m 0,38,39
 752.784054198 357.902842489 752.784054198 357.902842489 752.536132812 358.297851562 c 1,40,-1
 762.619140625 359.345703125 l 1,41,-1
 762.619140625 372.607421875 l 1,42,-1
 668.154296875 372.607421875 l 2,43,44
 630.75 372.607421875 630.75 372.607421875 630.75 325.916992188 c 0,45,46
 630.75 304.051159073 630.75 304.051159073 635.786132812 286.119140625 c 1,47,-1
 648.786132812 288.5 l 1,48,49
 644.547851562 309.663738971 644.547851562 309.663738971 644.547851562 326.713867188 c 0,50,51
 644.547851562 342.977489855 644.547851562 342.977489855 649.816366305 350.102026178 c 128,-1,52
 655.084881047 357.2265625 655.084881047 357.2265625 668.154296875 357.2265625 c 2,53,-1
 693.369140625 357.2265625 l 1,54,-1
 693.369140625 319.01171875 l 2,55,56
 693.369140625 299.976349412 693.369140625 299.976349412 700.677979839 290.889617798 c 128,-1,57
 707.986819053 281.802886184 707.986819053 281.802886184 726.059570312 281.119140625 c 1,58,59
 732.229959285 262.656054662 732.229959285 262.656054662 769.892578125 253.392578125 c 0,60,61
 790.437480232 248.384296218 790.437480232 248.384296218 794.457021366 245.467836743 c 128,-1,62
 798.4765625 242.551377267 798.4765625 242.551377267 798.4765625 233.857421875 c 0,63,64
 798.4765625 225.500417346 798.4765625 225.500417346 794.999201654 222.268275079 c 128,-1,65
 791.521840808 219.036132812 791.521840808 219.036132812 780.380859375 219.036132812 c 0,66,67
 772.544311523 219.036132812 772.544311523 219.036132812 764.2265625 219.821289062 c 1,68,69
 762.377986757 235.405142692 762.377986757 235.405142692 758.119140625 247.380859375 c 1,70,-1
 745.654296875 244.702148438 l 1,71,72
 748.816348844 233.073906629 748.816348844 233.073906629 750.416992188 221.630859375 c 1,73,74
 738.329936868 223.648613317 738.329936868 223.648613317 727.190429688 227 c 1,75,-1
 718.869140625 188.286132812 l 1,76,77
 730.87009426 184.290263027 730.87009426 184.290263027 747.130859375 181.392578125 c 1,78,79
 740.356811581 170.178710938 740.356811581 170.178710938 718.845703125 170.178710938 c 2,80,-1
 702.642578125 170.178710938 l 1,81,-1
 702.642578125 250.036132812 l 1,82,-1
 677.713867188 250.036132812 l 2,83,84
 630.73828125 250.036132812 630.73828125 250.036132812 630.73828125 203.071289062 c 0,85,86
 630.73828125 154.76171875 630.73828125 154.76171875 677.713867188 154.76171875 c 2,87,-1
 718.309570312 154.76171875 l 2,88,89
 752.455054679 154.76171875 752.455054679 154.76171875 761.630859375 179.2265625 c 1,90,91
 773.505583774 177.786132812 773.505583774 177.786132812 782.904296875 177.786132812 c 0,92,93
 819.15752762 177.794575249 819.15752762 177.794575249 833.787259904 191.56730688 c 128,-1,94
 848.416992188 205.34003851 848.416992188 205.34003851 848.416992188 233.857421875 c 0,95,96
 848.416992188 261.841753485 848.416992188 261.841753485 839.466850662 272.41764674 c 128,-1,97
 830.516709136 282.993539995 830.516709136 282.993539995 794.5 291.0234375 c 0,98,99
 778.909732602 294.525662095 778.909732602 294.525662095 775.484651457 297.170839412 c 128,-1,100
 772.059570312 299.816016729 772.059570312 299.816016729 772.059570312 308.0234375 c 0,101,102
 772.059570312 319.9765625 772.059570312 319.9765625 790.880859375 319.9765625 c 0,103,104
 812.021734309 319.9765625 812.021734309 319.9765625 839.369140625 314.916992188 c 1,105,-1
 844.059570312 355.440429688 l 1,106,107
 821.419478441 361.2265625 821.419478441 361.2265625 790.51171875 361.2265625 c 0,108,109
 767.310433431 361.2265625 767.310433431 361.2265625 753.297851562 357.047851562 c 0,38,39
677.178710938 170.178710938 m 2,110,111
 644.01171875 170.178710938 644.01171875 170.178710938 644.01171875 203.095703125 c 0,112,113
 644.01171875 220.575094553 644.01171875 220.575094553 652.096106694 227.74604337 c 128,-1,114
 660.180494638 234.916992188 660.180494638 234.916992188 677.178710938 234.916992188 c 2,115,-1
 688.845703125 234.916992188 l 1,116,-1
 688.845703125 170.178710938 l 1,117,-1
 677.178710938 170.178710938 l 2,110,111
419.642578125 242.928710938 m 2,118,119
 419.642578125 177.797851562 419.642578125 177.797851562 475.369140625 177.797851562 c 0,120,121
 502.210157067 177.797851562 502.210157067 177.797851562 529.642578125 195.51171875 c 1,122,-1
 535.071289062 181.416992188 l 1,123,-1
 575.952148438 181.416992188 l 1,124,-1
 575.952148438 436.880859375 l 1,125,-1
 523.845703125 429.642578125 l 1,126,-1
 523.845703125 356.190429688 l 1,127,128
 502.958321025 361.25 502.958321025 361.25 478.98828125 361.25 c 0,129,130
 419.642578125 361.25 419.642578125 361.25 419.642578125 296.119140625 c 2,131,-1
 419.642578125 242.928710938 l 2,118,119
381.654296875 357.630859375 m 1,132,-1
 329.547851562 357.630859375 l 1,133,-1
 329.547851562 181.416992188 l 1,134,-1
 381.654296875 181.416992188 l 1,135,-1
 381.654296875 357.630859375 l 1,132,-1
197.833007812 270.071289062 m 1,136,-1
 244.880859375 181.416992188 l 1,137,-1
 300.619140625 181.416992188 l 1,138,-1
 252.119140625 270.071289062 l 1,139,-1
 298.440429688 357.630859375 l 1,140,-1
 242.713867188 357.630859375 l 1,141,-1
 197.833007812 270.071289062 l 1,136,-1
190.963867188 181.416992188 m 1,142,-1
 190.963867188 436.880859375 l 1,143,-1
 138.857421875 429.642578125 l 1,144,-1
 138.857421875 181.416992188 l 1,145,-1
 190.963867188 181.416992188 l 1,142,-1
523.845703125 236.797851562 m 1,146,147
 507.793116377 223.036132812 507.793116377 223.036132812 490.559570312 223.036132812 c 0,148,149
 471.75 223.036132812 471.75 223.036132812 471.75 242.940429688 c 2,150,-1
 471.75 296.130859375 l 2,151,152
 471.75 316.036132812 471.75 316.036132812 490.559570312 316.036132812 c 0,153,154
 505.701070654 316.036132812 505.701070654 316.036132812 523.845703125 311.690429688 c 1,155,-1
 523.845703125 236.797851562 l 1,146,147
723.48828125 296.73828125 m 1,156,157
 707.154296875 298.462085366 707.154296875 298.462085366 707.154296875 319.559570312 c 2,158,-1
 707.154296875 357.2265625 l 1,159,-1
 738.202148438 357.2265625 l 2,160,161
 739.969295222 354.734581103 739.969295222 354.734581103 741.559570312 351.98828125 c 0,162,163
 723.213867188 340.875031374 723.213867188 340.875031374 723.213867188 308.404296875 c 0,164,165
 723.213867188 301.586263021 723.213867188 301.586263021 723.48828125 296.73828125 c 1,156,157
381.654296875 435.071289062 m 1,166,-1
 329.547851562 435.071289062 l 1,167,-1
 329.547851562 379.713867188 l 1,168,-1
 381.654296875 379.713867188 l 1,169,-1
 381.654296875 435.071289062 l 1,166,-1
762.619140625 588.619140625 m 1,170,-1
 659.940429688 588.619140625 l 2,171,172
 630.73828125 588.619140625 630.73828125 588.619140625 630.73828125 561.286132812 c 0,173,174
 630.73828125 538.035477666 630.73828125 538.035477666 645.059570312 507.166992188 c 1,175,176
 630.73828125 501.660714165 630.73828125 501.660714165 630.73828125 482.202148438 c 0,177,178
 630.73828125 459.545621375 630.73828125 459.545621375 645.059570312 429.666992188 c 1,179,-1
 633.392578125 428.607421875 l 1,180,-1
 633.392578125 415.071289062 l 1,181,-1
 762.619140625 415.071289062 l 1,182,-1
 762.619140625 430.452148438 l 1,183,-1
 659.940429688 430.452148438 l 1,184,185
 645.071289062 458.774239708 645.071289062 458.774239708 645.071289062 480.083007812 c 0,186,187
 645.071289062 494.142578125 645.071289062 494.142578125 658.071289062 494.142578125 c 2,188,-1
 762.619140625 494.142578125 l 1,189,-1
 762.619140625 509.5234375 l 1,190,-1
 659.940429688 509.5234375 l 1,191,192
 645.071289062 537.845528771 645.071289062 537.845528771 645.071289062 559.154296875 c 0,193,194
 645.071289062 573.2265625 645.071289062 573.2265625 658.071289062 573.2265625 c 2,195,-1
 762.619140625 573.2265625 l 1,196,-1
 762.619140625 588.619140625 l 1,170,-1
EndSplineSet
Validated: 3073
EndChar

StartChar: degree
Encoding: 176 176 450
Width: 400
Flags: W
LayerCount: 2
Fore
SplineSet
110 493 m 128,-1,1
 73 530 73 530 73 583 c 256,2,3
 73 636 73 636 110 673 c 128,-1,4
 147 710 147 710 200 710 c 256,5,6
 253 710 253 710 290 673 c 128,-1,7
 327 636 327 636 327 583 c 256,8,9
 327 530 327 530 290 493 c 128,-1,10
 253 456 253 456 200 456 c 256,11,0
 147 456 147 456 110 493 c 128,-1,1
237.5 546 m 128,-1,13
 253 561 253 561 253 583 c 256,14,15
 253 605 253 605 237.5 620.5 c 128,-1,16
 222 636 222 636 200 636 c 256,17,18
 178 636 178 636 163 620.5 c 128,-1,19
 148 605 148 605 148 583 c 256,20,21
 148 561 148 561 163 546 c 128,-1,22
 178 531 178 531 200 531 c 256,23,12
 222 531 222 531 237.5 546 c 128,-1,13
EndSplineSet
Validated: 1
EndChar

StartChar: bar
Encoding: 124 124 451
Width: 500
Flags: W
LayerCount: 2
Fore
SplineSet
205 800 m 1,0,-1
 295 800 l 1,1,-1
 295 -200 l 1,2,-1
 205 -200 l 1,3,-1
 205 800 l 1,0,-1
EndSplineSet
Validated: 1
EndChar

StartChar: brokenbar
Encoding: 518 166 452
Width: 500
Flags: W
LayerCount: 2
Fore
SplineSet
205 800 m 1,0,-1
 295 800 l 1,1,-1
 295 400 l 1,2,-1
 205 400 l 1,3,-1
 205 800 l 1,0,-1
205 200 m 1,4,-1
 295 200 l 1,5,-1
 295 -200 l 1,6,-1
 205 -200 l 1,7,-1
 205 200 l 1,4,-1
EndSplineSet
Validated: 1
EndChar

StartChar: dagger
Encoding: 519 8224 453
Width: 400
Flags: W
LayerCount: 2
Fore
SplineSet
150 419 m 1,0,-1
 22 419 l 1,1,-1
 22 514 l 1,2,-1
 150 514 l 1,3,-1
 150 700 l 1,4,-1
 250 700 l 1,5,-1
 250 514 l 1,6,-1
 378 514 l 1,7,-1
 378 419 l 1,8,-1
 250 419 l 1,9,-1
 250 -97 l 1,10,-1
 150 -97 l 1,11,-1
 150 419 l 1,0,-1
EndSplineSet
Validated: 1
EndChar

StartChar: uni2113
Encoding: 520 8467 454
Width: 412
Flags: W
LayerCount: 2
Fore
SplineSet
133 28 m 128,-1,1
 95 66 95 66 95 134 c 2,2,-1
 95 174 l 1,3,4
 83 168 83 168 77 164 c 2,5,-1
 49 149 l 1,6,-1
 11 231 l 1,7,8
 58 255 58 255 95 279 c 1,9,-1
 95 565 l 2,10,11
 95 634 95 634 133 672 c 128,-1,12
 171 710 171 710 242 710 c 0,13,14
 311 710 311 710 349 672 c 128,-1,15
 387 634 387 634 387 565 c 2,16,-1
 387 544 l 2,17,18
 387 382 387 382 205 245 c 1,19,-1
 205 145 l 2,20,21
 205 114 205 114 213 102 c 128,-1,22
 221 90 221 90 243 90 c 0,23,24
 264 90 264 90 272.5 102.5 c 128,-1,25
 281 115 281 115 281 145 c 2,26,-1
 281 207 l 1,27,-1
 387 207 l 1,28,-1
 387 134 l 2,29,30
 387 66 387 66 349 28 c 128,-1,31
 311 -10 311 -10 242 -10 c 0,32,0
 171 -10 171 -10 133 28 c 128,-1,1
281 542 m 2,34,-1
 281 556 l 2,35,36
 281 586 281 586 272.5 598.5 c 128,-1,37
 264 611 264 611 243 611 c 0,38,39
 221 611 221 611 213 598.5 c 128,-1,40
 205 586 205 586 205 556 c 2,41,-1
 205 367 l 1,42,33
 281 447 281 447 281 542 c 2,34,-1
EndSplineSet
Validated: 1
EndChar

StartChar: daggerdbl
Encoding: 521 8225 455
Width: 400
Flags: W
LayerCount: 2
Fore
SplineSet
150 89 m 1,0,-1
 22 89 l 1,1,-1
 22 184 l 1,2,-1
 150 184 l 1,3,-1
 150 419 l 1,4,-1
 22 419 l 1,5,-1
 22 514 l 1,6,-1
 150 514 l 1,7,-1
 150 700 l 1,8,-1
 250 700 l 1,9,-1
 250 514 l 1,10,-1
 378 514 l 1,11,-1
 378 419 l 1,12,-1
 250 419 l 1,13,-1
 250 184 l 1,14,-1
 378 184 l 1,15,-1
 378 89 l 1,16,-1
 250 89 l 1,17,-1
 250 -97 l 1,18,-1
 150 -97 l 1,19,-1
 150 89 l 1,0,-1
EndSplineSet
Validated: 1
EndChar

StartChar: estimated
Encoding: 522 8494 456
Width: 821
Flags: W
LayerCount: 2
Fore
SplineSet
223 38.5 m 128,-1,1
 136 87 136 87 84.5 170 c 128,-1,2
 33 253 33 253 33 350 c 256,3,4
 33 447 33 447 84.5 529.5 c 128,-1,5
 136 612 136 612 223 661 c 128,-1,6
 310 710 310 710 413 710 c 256,7,8
 516 710 516 710 603 661 c 128,-1,9
 690 612 690 612 741.5 529.5 c 128,-1,10
 793 447 793 447 793 350 c 2,11,-1
 793 341 l 1,12,-1
 180 341 l 2,13,14
 172 341 172 341 172 334 c 2,15,-1
 172 141 l 2,16,17
 172 134 172 134 176.5 128 c 128,-1,18
 181 122 181 122 183 120 c 0,19,20
 220 67 220 67 282 39.5 c 128,-1,21
 344 12 344 12 415 12 c 0,22,23
 487 12 487 12 550 44 c 128,-1,24
 613 76 613 76 659 132 c 1,25,-1
 715 132 l 1,26,27
 661 66 661 66 581.5 28 c 128,-1,28
 502 -10 502 -10 413 -10 c 0,29,0
 310 -10 310 -10 223 38.5 c 128,-1,1
649 361 m 2,30,31
 656 361 656 361 656 368 c 2,32,-1
 656 564 l 2,33,34
 656 572 656 572 644 586 c 0,35,36
 602 635 602 635 542 661.5 c 128,-1,37
 482 688 482 688 415 688 c 0,38,39
 289 688 289 688 183 582 c 0,40,41
 172 571 172 571 172 560 c 2,42,-1
 172 368 l 2,43,44
 172 361 172 361 180 361 c 2,45,-1
 649 361 l 2,30,31
EndSplineSet
Validated: 1
EndChar

StartChar: uni2116
Encoding: 523 8470 457
Width: 661
GlyphClass: 2
Flags: W
AnchorPoint: "Anker-1" 164 700 basechar 0
AnchorPoint: "Anker-0" 164 0 basechar 0
LayerCount: 2
Fore
SplineSet
41 700 m 1,0,-1
 179 700 l 1,1,-1
 261 271 l 1,2,-1
 263 271 l 1,3,-1
 263 700 l 1,4,-1
 356 700 l 1,5,-1
 356 0 l 1,6,-1
 243 0 l 1,7,-1
 137 517 l 1,8,-1
 135 517 l 1,9,-1
 135 0 l 1,10,-1
 41 0 l 1,11,-1
 41 700 l 1,0,-1
440.5 138 m 128,-1,13
 413 167 413 167 413 220 c 2,14,-1
 413 375 l 2,15,16
 413 428 413 428 440.5 457 c 128,-1,17
 468 486 468 486 519 486 c 256,18,19
 570 486 570 486 597.5 457 c 128,-1,20
 625 428 625 428 625 375 c 2,21,-1
 625 220 l 2,22,23
 625 167 625 167 597.5 138 c 128,-1,24
 570 109 570 109 519 109 c 256,25,12
 468 109 468 109 440.5 138 c 128,-1,13
555 216 m 2,27,-1
 555 379 l 2,28,29
 555 422 555 422 519 422 c 0,30,31
 501 422 501 422 492 412 c 128,-1,32
 483 402 483 402 483 379 c 2,33,-1
 483 216 l 2,34,35
 483 193 483 193 492 183 c 128,-1,36
 501 173 501 173 519 173 c 0,37,26
 555 173 555 173 555 216 c 2,27,-1
413 68 m 1,38,-1
 625 68 l 1,39,-1
 625 0 l 1,40,-1
 413 0 l 1,41,-1
 413 68 l 1,38,-1
EndSplineSet
Validated: 1
Ligature2: "'ordn' Ordnungszahlen in Lateinisch Nachschlagetabelle 21 Subtabelle" N o period
EndChar

StartChar: uni2120
Encoding: 524 8480 458
Width: 599
GlyphClass: 2
Flags: W
AnchorPoint: "Anker-1" 477 700 basechar 0
AnchorPoint: "Anker-0" 477 0 basechar 0
LayerCount: 2
Fore
SplineSet
47 359 m 128,-1,1
 21 382 21 382 21 426 c 2,2,-1
 21 448 l 1,3,-1
 88 448 l 1,4,-1
 88 427 l 2,5,6
 88 394 88 394 121 394 c 256,7,8
 154 394 154 394 154 428 c 0,9,10
 154 452 154 452 141.5 466.5 c 128,-1,11
 129 481 129 481 94 499 c 0,12,13
 52 521 52 521 37.5 546.5 c 128,-1,14
 23 572 23 572 23 610 c 0,15,16
 23 653 23 653 49 679.5 c 128,-1,17
 75 706 75 706 123 706 c 0,18,19
 172 706 172 706 197.5 682.5 c 128,-1,20
 223 659 223 659 223 616 c 2,21,-1
 223 605 l 1,22,-1
 157 605 l 1,23,-1
 157 615 l 2,24,25
 157 648 157 648 125 648 c 256,26,27
 93 648 93 648 93 616 c 0,28,29
 93 594 93 594 105 580.5 c 128,-1,30
 117 567 117 567 153 547 c 0,31,32
 194 524 194 524 208.5 498 c 128,-1,33
 223 472 223 472 223 434 c 0,34,35
 223 389 223 389 197 362.5 c 128,-1,36
 171 336 171 336 122 336 c 256,37,0
 73 336 73 336 47 359 c 128,-1,1
269 700 m 1,38,-1
 374 700 l 1,39,-1
 415 474 l 1,40,-1
 417 474 l 1,41,-1
 457 700 l 1,42,-1
 562 700 l 1,43,-1
 562 344 l 1,44,-1
 496 344 l 1,45,-1
 496 615 l 1,46,-1
 494 615 l 1,47,-1
 440 344 l 1,48,-1
 386 344 l 1,49,-1
 332 615 l 1,50,-1
 330 615 l 1,51,-1
 330 344 l 1,52,-1
 269 344 l 1,53,-1
 269 700 l 1,38,-1
EndSplineSet
Validated: 1
EndChar

StartChar: uni02BC
Encoding: 525 700 459
Width: 0
Flags: W
LayerCount: 2
Fore
SplineSet
-11 594 m 1,0,-1
 -53 594 l 1,1,-1
 -53 700 l 1,2,-1
 53 700 l 1,3,-1
 53 605 l 1,4,-1
 5 494 l 1,5,-1
 -40 494 l 1,6,-1
 -11 594 l 1,0,-1
EndSplineSet
Validated: 1
EndChar

StartChar: uni0308
Encoding: 527 776 461
Width: 0
GlyphClass: 4
Flags: W
AnchorPoint: "Anker-7" 0 849 basemark 0
AnchorPoint: "Anker-7" 0 700 mark 0
AnchorPoint: "Anker-4" 0 700 mark 0
AnchorPoint: "Anker-1" 0 700 mark 0
LayerCount: 2
Fore
SplineSet
-126 849 m 1,0,-1
 -28 849 l 1,1,-1
 -28 747 l 1,2,-1
 -126 747 l 1,3,-1
 -126 849 l 1,0,-1
28 849 m 1,4,-1
 126 849 l 1,5,-1
 126 747 l 1,6,-1
 28 747 l 1,7,-1
 28 849 l 1,4,-1
EndSplineSet
Validated: 1
EndChar

StartChar: uni0307
Encoding: 528 775 462
Width: 0
GlyphClass: 4
Flags: W
AnchorPoint: "Anker-7" 0 849 basemark 0
AnchorPoint: "Anker-7" 0 700 mark 0
AnchorPoint: "Anker-4" 0 700 mark 0
AnchorPoint: "Anker-1" 0 700 mark 0
LayerCount: 2
Fore
SplineSet
-50 849 m 1,0,-1
 50 849 l 1,1,-1
 50 747 l 1,2,-1
 -50 747 l 1,3,-1
 -50 849 l 1,0,-1
EndSplineSet
Validated: 1
EndChar

StartChar: gravecomb
Encoding: 529 768 463
Width: 0
GlyphClass: 4
Flags: W
AnchorPoint: "Anker-7" 0 862 basemark 0
AnchorPoint: "Anker-7" 0 700 mark 0
AnchorPoint: "Anker-4" 0 700 mark 0
AnchorPoint: "Anker-1" 0 700 mark 0
LayerCount: 2
Fore
SplineSet
-130 862 m 1,0,-1
 -10 862 l 1,1,-1
 60 747 l 1,2,-1
 -23 747 l 1,3,-1
 -130 862 l 1,0,-1
EndSplineSet
Validated: 1
EndChar

StartChar: acutecomb
Encoding: 530 769 464
Width: 0
GlyphClass: 4
Flags: W
AnchorPoint: "Anker-7" 0 862 basemark 0
AnchorPoint: "Anker-7" 0 700 mark 0
AnchorPoint: "Anker-4" 0 700 mark 0
AnchorPoint: "Anker-1" 0 700 mark 0
LayerCount: 2
Fore
SplineSet
10 862 m 1,0,-1
 130 862 l 1,1,-1
 23 747 l 1,2,-1
 -60 747 l 1,3,-1
 10 862 l 1,0,-1
EndSplineSet
Validated: 1
EndChar

StartChar: uni030B
Encoding: 531 779 465
Width: 0
GlyphClass: 4
Flags: W
AnchorPoint: "Anker-7" 4 862 basemark 0
AnchorPoint: "Anker-7" 4 700 mark 0
AnchorPoint: "Anker-4" 4 700 mark 0
AnchorPoint: "Anker-1" 4 700 mark 0
LayerCount: 2
Fore
SplineSet
-60 862 m 1,0,-1
 51 862 l 1,1,-1
 -53 747 l 1,2,-1
 -130 747 l 1,3,-1
 -60 862 l 1,0,-1
89 862 m 1,4,-1
 200 862 l 1,5,-1
 96 747 l 1,6,-1
 19 747 l 1,7,-1
 89 862 l 1,4,-1
EndSplineSet
Validated: 1
EndChar

StartChar: uni030C.alt
Encoding: 532 -1 466
Width: 0
Flags: W
LayerCount: 2
Fore
SplineSet
-11 598 m 1,0,-1
 -51 598 l 1,1,-1
 -51 700 l 1,2,-1
 51 700 l 1,3,-1
 51 609 l 1,4,-1
 5 494 l 1,5,-1
 -40 494 l 1,6,-1
 -11 598 l 1,0,-1
EndSplineSet
Validated: 1
EndChar

StartChar: uni0302
Encoding: 533 770 467
Width: 0
GlyphClass: 4
Flags: W
AnchorPoint: "Anker-7" 0 862 basemark 0
AnchorPoint: "Anker-7" 0 700 mark 0
AnchorPoint: "Anker-4" 0 700 mark 0
AnchorPoint: "Anker-1" 0 700 mark 0
LayerCount: 2
Fore
SplineSet
-52 862 m 1,0,-1
 52 862 l 1,1,-1
 134 747 l 1,2,-1
 51 747 l 1,3,-1
 0 802 l 1,4,-1
 -51 747 l 1,5,-1
 -134 747 l 1,6,-1
 -52 862 l 1,0,-1
EndSplineSet
Validated: 1
EndChar

StartChar: uni030C
Encoding: 534 780 468
Width: 0
GlyphClass: 4
Flags: W
AnchorPoint: "Anker-7" 0 862 basemark 0
AnchorPoint: "Anker-7" 0 700 mark 0
AnchorPoint: "Anker-4" 0 700 mark 0
AnchorPoint: "Anker-1" 0 700 mark 0
LayerCount: 2
Fore
SplineSet
-134 862 m 1,0,-1
 -51 862 l 1,1,-1
 0 807 l 1,2,-1
 51 862 l 1,3,-1
 134 862 l 1,4,-1
 52 747 l 1,5,-1
 -52 747 l 1,6,-1
 -134 862 l 1,0,-1
EndSplineSet
Validated: 1
EndChar

StartChar: uni0306
Encoding: 535 774 469
Width: 0
GlyphClass: 4
Flags: W
AnchorPoint: "Anker-7" 0 862 basemark 0
AnchorPoint: "Anker-7" 0 700 mark 0
AnchorPoint: "Anker-4" 0 700 mark 0
AnchorPoint: "Anker-1" 0 700 mark 0
LayerCount: 2
Fore
SplineSet
-86 774 m 128,-1,1
 -116 805 -116 805 -118 862 c 1,2,-1
 -53 862 l 1,3,4
 -49 835 -49 835 -36.5 824.5 c 128,-1,5
 -24 814 -24 814 -1 814 c 0,6,7
 23 814 23 814 36 824.5 c 128,-1,8
 49 835 49 835 53 862 c 1,9,-1
 118 862 l 1,10,11
 116 806 116 806 85.5 774.5 c 128,-1,12
 55 743 55 743 -1 743 c 0,13,0
 -56 743 -56 743 -86 774 c 128,-1,1
EndSplineSet
Validated: 1
EndChar

StartChar: uni030A
Encoding: 536 778 470
Width: 0
GlyphClass: 4
Flags: W
AnchorPoint: "Anker-7" 0 912 basemark 0
AnchorPoint: "Anker-7" 0 700 mark 0
AnchorPoint: "Anker-4" 0 700 mark 0
AnchorPoint: "Anker-1" 0 700 mark 0
LayerCount: 2
Fore
SplineSet
-63.5 761.5 m 128,-1,1
 -89 787 -89 787 -89 824 c 256,2,3
 -89 861 -89 861 -63.5 886.5 c 128,-1,4
 -38 912 -38 912 0 912 c 256,5,6
 38 912 38 912 63.5 886.5 c 128,-1,7
 89 861 89 861 89 824 c 256,8,9
 89 787 89 787 63.5 761.5 c 128,-1,10
 38 736 38 736 0 736 c 256,11,0
 -38 736 -38 736 -63.5 761.5 c 128,-1,1
23 798.5 m 128,-1,13
 32 808 32 808 32 824 c 256,14,15
 32 840 32 840 23 849.5 c 128,-1,16
 14 859 14 859 0 859 c 256,17,18
 -14 859 -14 859 -23 849.5 c 128,-1,19
 -32 840 -32 840 -32 824 c 256,20,21
 -32 808 -32 808 -23 798.5 c 128,-1,22
 -14 789 -14 789 0 789 c 256,23,12
 14 789 14 789 23 798.5 c 128,-1,13
EndSplineSet
Validated: 1
EndChar

StartChar: tildecomb
Encoding: 537 771 471
Width: 0
GlyphClass: 4
Flags: W
AnchorPoint: "Anker-7" 0 866 basemark 0
AnchorPoint: "Anker-7" 0 700 mark 0
AnchorPoint: "Anker-4" 0 700 mark 0
AnchorPoint: "Anker-1" 0 700 mark 0
LayerCount: 2
Fore
SplineSet
-139 775 m 1,0,1
 -120 818 -120 818 -98 838.5 c 128,-1,2
 -76 859 -76 859 -48 859 c 0,3,4
 -30 859 -30 859 -16.5 854 c 128,-1,5
 -3 849 -3 849 12 840 c 0,6,7
 21 835 21 835 29.5 831 c 128,-1,8
 38 827 38 827 46 827 c 0,9,10
 58 827 58 827 67 836 c 128,-1,11
 76 845 76 845 86 866 c 1,12,-1
 139 834 l 1,13,14
 120 791 120 791 98 770.5 c 128,-1,15
 76 750 76 750 48 750 c 0,16,17
 30 750 30 750 16.5 755 c 128,-1,18
 3 760 3 760 -12 769 c 0,19,20
 -21 774 -21 774 -29.5 778 c 128,-1,21
 -38 782 -38 782 -46 782 c 0,22,23
 -58 782 -58 782 -67 773 c 128,-1,24
 -76 764 -76 764 -86 743 c 1,25,-1
 -139 775 l 1,0,1
EndSplineSet
Validated: 1
EndChar

StartChar: uni0304
Encoding: 538 772 472
Width: 0
GlyphClass: 4
Flags: W
AnchorPoint: "Anker-7" 0 829 basemark 0
AnchorPoint: "Anker-7" 0 700 mark 0
AnchorPoint: "Anker-4" 0 700 mark 0
AnchorPoint: "Anker-1" 0 700 mark 0
LayerCount: 2
Fore
SplineSet
-115 834 m 1,0,-1
 115 834 l 1,1,-1
 115 756 l 1,2,-1
 -115 756 l 1,3,-1
 -115 834 l 1,0,-1
EndSplineSet
Validated: 1
EndChar

StartChar: uni0312
Encoding: 539 786 473
Width: 0
GlyphClass: 4
Flags: W
AnchorPoint: "Anker-7" 0 843 basemark 0
AnchorPoint: "Anker-7" 0 700 mark 0
AnchorPoint: "Anker-4" 0 700 mark 0
AnchorPoint: "Anker-1" 0 700 mark 0
LayerCount: 2
Fore
SplineSet
-46 829 m 1,0,-1
 -3 893 l 1,1,-1
 36 893 l 1,2,-1
 10 839 l 1,3,-1
 46 839 l 1,4,-1
 46 747 l 1,5,-1
 -46 747 l 1,6,-1
 -46 829 l 1,0,-1
EndSplineSet
Validated: 1
EndChar

StartChar: uni0326
Encoding: 540 806 474
Width: 0
GlyphClass: 4
Flags: W
AnchorPoint: "Anker-6" 0 -189 basemark 0
AnchorPoint: "Anker-6" 0 0 mark 0
AnchorPoint: "Anker-2" 0 0 mark 0
AnchorPoint: "Anker-0" 0 0 mark 0
LayerCount: 2
Fore
SplineSet
-10 -135 m 1,0,-1
 -46 -135 l 1,1,-1
 -46 -43 l 1,2,-1
 46 -43 l 1,3,-1
 46 -125 l 1,4,-1
 3 -189 l 1,5,-1
 -36 -189 l 1,6,-1
 -10 -135 l 1,0,-1
EndSplineSet
Validated: 1
EndChar

StartChar: uni0327
Encoding: 541 807 475
Width: 0
GlyphClass: 4
Flags: W
AnchorPoint: "Anker-6" 0 -147 basemark 0
AnchorPoint: "Anker-6" 0 0 mark 0
AnchorPoint: "Anker-2" 0 0 mark 0
AnchorPoint: "Anker-0" 0 0 mark 0
LayerCount: 2
Fore
SplineSet
-79 -134 m 128,-1,1
 -104 -121 -104 -121 -104 -89 c 2,2,-1
 -104 -79 l 1,3,-1
 -30 -79 l 1,4,-1
 -30 -87 l 2,5,6
 -30 -97 -30 -97 -23.5 -102 c 128,-1,7
 -17 -107 -17 -107 -8 -107 c 0,8,9
 6 -107 6 -107 12 -101.5 c 128,-1,10
 18 -96 18 -96 18 -83 c 0,11,12
 18 -69 18 -69 9 -63 c 128,-1,13
 0 -57 0 -57 -19 -57 c 2,14,-1
 -24 -57 l 1,15,-1
 -24 14 l 1,16,-1
 25 14 l 1,17,-1
 25 -39 l 1,18,19
 59 -39 59 -39 76.5 -50 c 128,-1,20
 94 -61 94 -61 94 -86 c 0,21,22
 94 -123 94 -123 69 -135 c 128,-1,23
 44 -147 44 -147 -8 -147 c 0,24,0
 -54 -147 -54 -147 -79 -134 c 128,-1,1
EndSplineSet
Validated: 1
EndChar

StartChar: uni0328
Encoding: 542 808 476
Width: 0
GlyphClass: 4
Flags: W
AnchorPoint: "Anker-3" 78 0 mark 0
LayerCount: 2
Fore
SplineSet
-54.5 -131 m 128,-1,1
 -78 -115 -78 -115 -78 -85 c 0,2,3
 -78 -32 -78 -32 -2 4 c 1,4,-1
 42 4 l 1,5,6
 7 -23 7 -23 7 -58 c 0,7,8
 7 -71 7 -71 17 -78.5 c 128,-1,9
 27 -86 27 -86 42 -86 c 0,10,11
 58 -86 58 -86 66.5 -83.5 c 128,-1,12
 75 -81 75 -81 78 -80 c 1,13,-1
 78 -136 l 1,14,15
 61 -143 61 -143 46.5 -145 c 128,-1,16
 32 -147 32 -147 10 -147 c 0,17,0
 -31 -147 -31 -147 -54.5 -131 c 128,-1,1
EndSplineSet
Validated: 1
EndChar

StartChar: uni0335
Encoding: 543 821 477
Width: 0
GlyphClass: 4
Flags: W
AnchorPoint: "Anker-5" 0 350 mark 0
LayerCount: 2
Fore
SplineSet
-107 397 m 1,0,-1
 107 397 l 1,1,-1
 107 303 l 1,2,-1
 -107 303 l 1,3,-1
 -107 397 l 1,0,-1
EndSplineSet
Validated: 1
EndChar

StartChar: uni0336
Encoding: 544 822 478
Width: 0
GlyphClass: 4
Flags: W
AnchorPoint: "Anker-5" 0 350 mark 0
LayerCount: 2
Fore
SplineSet
-209 395 m 1,0,-1
 209 395 l 1,1,-1
 209 305 l 1,2,-1
 -209 305 l 1,3,-1
 -209 395 l 1,0,-1
EndSplineSet
Validated: 1
EndChar

StartChar: uni0337
Encoding: 545 823 479
Width: 0
GlyphClass: 4
Flags: W
AnchorPoint: "Anker-5" 0 350 mark 0
LayerCount: 2
Fore
SplineSet
-167 -7 m 1,0,-1
 117 728 l 1,1,-1
 167 707 l 1,2,-1
 -117 -28 l 1,3,-1
 -167 -7 l 1,0,-1
EndSplineSet
Validated: 1
EndChar

StartChar: uni0338
Encoding: 546 824 480
Width: 0
GlyphClass: 4
Flags: W
AnchorPoint: "Anker-5" 0 350 mark 0
LayerCount: 2
Fore
SplineSet
-177 0 m 1,0,-1
 117 726 l 1,1,-1
 177 700 l 1,2,-1
 -117 -26 l 1,3,-1
 -177 0 l 1,0,-1
EndSplineSet
Validated: 1
EndChar

StartChar: NameMe.561
Encoding: 561 -1 497
Width: 1000
LayerCount: 2
Fore
SplineSet
988.5 442.5 m 0,0,1
 990.770507812 437.493903863 990.770507812 437.493903863 990.770507812 431.963867188 c 0,2,3
 990.770507812 427.862705032 990.770507812 427.862705032 989.5 424 c 0,4,5
 984.686365197 413.749735261 984.686365197 413.749735261 974 410 c 2,6,-1
 939.5 398.5 l 1,7,8
 967.244140625 357.161602957 967.244140625 357.161602957 967.244140625 307.510742188 c 0,9,10
 967.244140625 302.993069936 967.244140625 302.993069936 967 298.5 c 0,11,12
 965.206889753 288.603607154 965.206889753 288.603607154 960 280 c 1,13,14
 979.772390716 168.650220703 979.772390716 168.650220703 944.5 142.5 c 0,15,16
 923.669438236 125.829327867 923.669438236 125.829327867 897 125 c 0,17,18
 893.236719443 124.583007812 893.236719443 124.583007812 889.5703125 124.583007812 c 128,-1,19
 885.763280557 124.583007812 885.763280557 124.583007812 882 125 c 1,20,21
 876.412949599 67.8230748724 876.412949599 67.8230748724 845.285748377 20.3212861887 c 128,-1,22
 814.158547155 -27.180502495 814.158547155 -27.180502495 765.5 -55 c 2,23,-1
 734 -76 l 2,24,25
 685 -113 685 -113 627 -132 c 0,26,27
 551 -159 551 -159 470 -159 c 0,28,29
 469.459636674 -159.004017571 469.459636674 -159.004017571 468.35978868 -158.940973629 c 128,-1,30
 467.259940687 -158.877929688 467.259940687 -158.877929688 466.750976562 -158.877929688 c 0,31,32
 395.165312456 -158.877929688 395.165312456 -158.877929688 328.5 -134.5 c 0,33,34
 234.734274321 -96.1886011891 234.734274321 -96.1886011891 173.5 -15.5 c 1,35,-1
 165 -6 l 1,36,37
 108.773623184 49.7845771026 108.773623184 49.7845771026 100 128.5 c 1,38,39
 97.2505355343 128.1328125 97.2505355343 128.1328125 94.54296875 128.1328125 c 128,-1,40
 91.7494644657 128.1328125 91.7494644657 128.1328125 89 128.5 c 2,41,-1
 88.880859375 128.530273438 l 1,42,43
 60.8644692818 128.530273438 60.8644692818 128.530273438 39 146 c 0,44,45
 8 169 8 169 18 258 c 1,46,47
 7.4609375 265.309427857 7.4609375 265.309427857 7.4609375 278.11328125 c 0,48,49
 7.4609375 278.793870192 7.4609375 278.793870192 7.5 279.5 c 0,50,51
 7.5 287.860751916 7.5 287.860751916 10.4574241748 307.628374373 c 128,-1,52
 13.4148483497 327.395996831 13.4148483497 327.395996831 21.3941383252 360.496625627 c 128,-1,53
 29.3734283007 393.597254423 29.3734283007 393.597254423 49.4730491748 422.940874373 c 128,-1,54
 69.572670049 452.284494323 69.572670049 452.284494323 98 464 c 1,55,56
 75 513 75 513 60 564 c 0,57,58
 57.9580078125 568.502113825 57.9580078125 568.502113825 57.9580078125 573.51953125 c 128,-1,59
 57.9580078125 578.497886175 57.9580078125 578.497886175 60 583 c 0,60,61
 65.1311341356 592.38277823 65.1311341356 592.38277823 75.5 595 c 0,62,63
 133.093781527 610.27734375 133.093781527 610.27734375 192.0703125 610.27734375 c 0,64,65
 219.725282745 610.27734375 219.725282745 610.27734375 247 607 c 1,66,67
 244.82421875 622.076967031 244.82421875 622.076967031 244.82421875 638.978515625 c 0,68,69
 244.82421875 712.898875592 244.82421875 712.898875592 289 772 c 0,70,71
 296.403655825 779.181640625 296.403655825 779.181640625 306.778320312 779.181640625 c 0,72,73
 314.89390889 779.181640625 314.89390889 779.181640625 321.5 774.5 c 0,74,75
 375.325569406 735.441323958 375.325569406 735.441323958 410.5 679 c 1,76,77
 541.84477598 760.91394631 541.84477598 760.91394631 612.5 740 c 0,78,79
 654.498955234 727.135960375 654.498955234 727.135960375 668.5 685.5 c 0,80,81
 670.530273438 680.738940557 670.530273438 680.738940557 670.530273438 675.481445312 c 128,-1,82
 670.530273438 670.261059443 670.530273438 670.261059443 668.5 665.5 c 1,83,84
 852.560150376 679.936090226 852.560150376 679.936090226 915.5 565.5 c 0,85,86
 918.819335938 559.77181887 918.819335938 559.77181887 918.819335938 553.225585938 c 0,87,88
 918.819335938 541.36952305 918.819335938 541.36952305 909.5 534 c 2,89,-1
 897 524 l 1,90,91
 956.275225094 498.43387449 956.275225094 498.43387449 988.5 442.5 c 0,0,1
132.5 423.5 m 0,92,93
 103.300769231 422.157506631 103.300769231 422.157506631 86.7796863074 390.539572071 c 128,-1,94
 70.258603384 358.921637511 70.258603384 358.921637511 64 318 c 1,95,96
 110.569148936 337.723404255 110.569148936 337.723404255 150 356.5 c 1,97,-1
 203.5 400 l 2,98,99
 209.640155199 403.6640625 209.640155199 403.6640625 216.834960938 403.6640625 c 0,100,101
 221.588193971 403.6640625 221.588193971 403.6640625 226 402 c 0,102,103
 238.50912035 398.785339451 238.50912035 398.785339451 242.5 386.5 c 2,104,-1
 255.5 350 l 1,105,106
 339.389201695 382.02313233 339.389201695 382.02313233 391 455.5 c 0,107,108
 398.500498607 464.951171875 398.500498607 464.951171875 410.590820312 464.951171875 c 0,109,110
 414.940640836 464.951171875 414.940640836 464.951171875 419 463.5 c 0,111,112
 453.981835814 450.256789318 453.981835814 450.256789318 469 416 c 1,113,114
 503.367625036 439.957127185 503.367625036 439.957127185 531.5 471 c 0,115,116
 539.127634285 479.880859375 539.127634285 479.880859375 550.8359375 479.880859375 c 0,117,118
 554.240221088 479.880859375 554.240221088 479.880859375 557.5 479 c 0,119,120
 573.370140997 474.782908502 573.370140997 474.782908502 575.5 458.5 c 0,121,122
 577.568373695 443.676655188 577.568373695 443.676655188 600.155686201 429.142210618 c 128,-1,123
 622.742998707 414.607766049 622.742998707 414.607766049 650.5 405.5 c 1,124,125
 668.912556787 422.032206153 668.912556787 422.032206153 689 436.5 c 0,126,127
 695.499723763 440.251435932 695.499723763 440.251435932 703 440.5 c 2,128,-1
 708.5 440.5 l 2,129,130
 719.087620877 438.352203856 719.087620877 438.352203856 724.5 429 c 0,131,132
 746.438589605 392.768086864 746.438589605 392.768086864 804.237184795 359.809356162 c 128,-1,133
 862.035779985 326.85062546 862.035779985 326.85062546 918 306.5 c 1,134,135
 911.071151179 354.70094157 911.071151179 354.70094157 881 393 c 0,136,137
 876.306640625 399.441316942 876.306640625 399.441316942 876.306640625 407.431640625 c 0,138,139
 876.306640625 411.326620133 876.306640625 411.326620133 877.5 415 c 0,140,141
 881.538834951 426.961165049 881.538834951 426.961165049 893.5 431 c 2,142,-1
 926 442 l 1,143,144
 889.948289221 477.476088897 889.948289221 477.476088897 841.5 492 c 0,145,146
 826.820230482 496.118450954 826.820230482 496.118450954 823.5 511 c 0,147,148
 822.88671875 513.706470403 822.88671875 513.706470403 822.88671875 516.29296875 c 0,149,150
 822.88671875 528.285213118 822.88671875 528.285213118 832.5 535.5 c 2,151,-1
 860.5 558.5 l 1,152,153
 839.490077456 585.112568556 839.490077456 585.112568556 805.161376121 599.371243247 c 128,-1,154
 770.832674787 613.629917939 770.832674787 613.629917939 739.915248879 615.930131753 c 128,-1,155
 708.997822971 618.230345566 708.997822971 618.230345566 675.220922996 614.959946372 c 128,-1,156
 641.444023022 611.689547179 641.444023022 611.689547179 627.429405129 608.555475503 c 128,-1,157
 613.414787236 605.421403826 613.414787236 605.421403826 607 603.5 c 0,158,159
 603.570116347 602.47265625 603.570116347 602.47265625 599.842773438 602.47265625 c 0,160,161
 589.494384766 602.47265625 589.494384766 602.47265625 582.168579102 609.798461914 c 128,-1,162
 574.842773438 617.124267578 574.842773438 617.124267578 574.842773438 627.47265625 c 0,163,164
 574.842773438 635.493534909 574.842773438 635.493534909 579.5 642 c 0,165,166
 594.34496213 664.057496765 594.34496213 664.057496765 613.5 682.5 c 1,167,168
 607.20220285 688.371540145 607.20220285 688.371540145 599 691 c 0,169,170
 568.686115214 700.094165436 568.686115214 700.094165436 514.498688143 676.619467787 c 128,-1,171
 460.311261071 653.144770139 460.311261071 653.144770139 413 620.5 c 0,172,173
 406.321139883 615.66015625 406.321139883 615.66015625 398.022460938 615.66015625 c 0,174,175
 393.062509645 615.66015625 393.062509645 615.66015625 388.5 617.5 c 0,176,177
 375.488696724 623.012367303 375.488696724 623.012367303 373.5 637 c 0,178,179
 354.206272207 687.185053916 354.206272207 687.185053916 310.5 718.5 c 1,180,181
 294.94921875 674.288123919 294.94921875 674.288123919 294.94921875 627.638671875 c 0,182,183
 294.94921875 600.963753821 294.94921875 600.963753821 300 575 c 0,184,185
 300.58203125 572.286454842 300.58203125 572.286454842 300.58203125 569.765625 c 0,186,187
 300.58203125 556.445790362 300.58203125 556.445790362 289.5 549 c 0,188,189
 283.423128431 545.303710938 283.423128431 545.303710938 276.22265625 545.303710938 c 128,-1,190
 269.076871569 545.303710938 269.076871569 545.303710938 263 549 c 0,191,192
 223.605415776 561.586914062 223.605415776 561.586914062 182.127929688 561.586914062 c 0,193,194
 146.807872755 561.586914062 146.807872755 561.586914062 113 552.5 c 1,195,196
 132.684997126 499.596570224 132.684997126 499.596570224 153 459.5 c 0,197,198
 155.791015625 453.991255812 155.791015625 453.991255812 155.791015625 447.724609375 c 128,-1,199
 155.791015625 441.508744188 155.791015625 441.508744188 153 436 c 0,200,201
 146.085179519 424.280809826 146.085179519 424.280809826 132.5 423.5 c 0,92,93
94 180 m 1,202,-1
 100 178 l 1,203,204
 96 216 96 216 100 278 c 1,205,-1
 71.5 267 l 1,206,207
 67.2041015625 246.620186289 67.2041015625 246.620186289 67.2041015625 225.891601562 c 0,208,209
 67.2041015625 204.879813711 67.2041015625 204.879813711 71.5 184.5 c 1,210,211
 86.9556962025 173.962025316 86.9556962025 173.962025316 94 180 c 1,202,-1
738.5 -13 m 2,212,213
 766.440347109 4.76053072057 766.440347109 4.76053072057 782.56008085 21.3142443114 c 128,-1,214
 798.67981459 37.8679579022 798.67981459 37.8679579022 814.18210665 69.8732556886 c 128,-1,215
 829.684398711 101.878553475 829.684398711 101.878553475 836.79445585 154.251744311 c 128,-1,216
 843.904512988 206.624935148 843.904512988 206.624935148 845 285.5 c 1,217,218
 762.528088272 319.421933111 762.528088272 319.421933111 700 383 c 1,219,220
 686.353388002 373.569710492 686.353388002 373.569710492 674 362.5 c 0,221,222
 667.032433068 355.002929688 667.032433068 355.002929688 656.788085938 355.002929688 c 0,223,224
 653.305047828 355.002929688 653.305047828 355.002929688 650 356 c 0,225,226
 589 371 589 371 544 415 c 1,227,228
 509.593991267 378.863318649 509.593991267 378.863318649 464.5 357.5 c 0,229,230
 459.300538793 355.072265625 459.300538793 355.072265625 453.477539062 355.072265625 c 128,-1,231
 447.699461207 355.072265625 447.699461207 355.072265625 442.5 357.5 c 0,232,233
 432.339481558 363.784503434 432.339481558 363.784503434 430 375.5 c 0,234,235
 426.329616425 393.257037341 426.329616425 393.257037341 414.5 407 c 1,236,237
 395.757633364 383.810292129 395.757633364 383.810292129 370.637032225 360.785939355 c 128,-1,238
 345.516431085 337.761586582 345.516431085 337.761586582 306.529634442 317.547393978 c 128,-1,239
 267.542837799 297.333201375 267.542837799 297.333201375 235 301 c 0,240,241
 219.56200458 302.964778851 219.56200458 302.964778851 214 317.5 c 2,242,-1
 206.5 338.5 l 1,243,-1
 177 315 l 1,244,-1
 174 312.5 l 1,245,-1
 174 312.5 l 1,246,247
 161.653272183 305.205951278 161.653272183 305.205951278 148.5 299.5 c 0,248,249
 149.065429688 296.784449527 149.065429688 296.784449527 149.065429688 294.01953125 c 128,-1,250
 149.065429688 291.215550473 149.065429688 291.215550473 148.5 288.5 c 0,251,252
 145.179802276 243.123964439 145.179802276 243.123964439 144.525028631 209.062206546 c 128,-1,253
 143.870254986 175.000448653 143.870254986 175.000448653 147.537471369 149.291960121 c 128,-1,254
 151.204687753 123.583471589 151.204687753 123.583471589 154.316695297 107.835354694 c 128,-1,255
 157.428702842 92.0872377995 157.428702842 92.0872377995 167.204138036 75.4956638245 c 128,-1,256
 176.97957323 58.9040898494 176.97957323 58.9040898494 182.608361964 51.4418361755 c 128,-1,257
 188.237150699 43.9795825017 188.237150699 43.9795825017 202.5 27 c 2,258,-1
 211 17 l 1,259,260
 264.202554732 -53.3317226941 264.202554732 -53.3317226941 345.5 -87.5 c 1,261,262
 407.935775048 -108.80859375 407.935775048 -108.80859375 474.841796875 -108.80859375 c 0,263,264
 545.313211083 -108.80859375 545.313211083 -108.80859375 611 -85 c 0,265,266
 662 -67 662 -67 706 -35 c 2,267,-1
 738.5 -13 l 2,212,213
915 181 m 1,268,269
 916.953125 196.19931891 916.953125 196.19931891 916.953125 211.336914062 c 0,270,271
 916.953125 234.731314756 916.953125 234.731314756 912.5 257.5 c 1,272,-1
 893 264.5 l 1,273,274
 892.746929026 246.531960874 892.746929026 246.531960874 890.373464513 215.302164647 c 128,-1,275
 888 184.072368421 888 184.072368421 888 170.5 c 1,276,-1
 892 174 l 1,277,278
 898 169 898 169 915 181 c 1,268,269
526 22.5 m 0,279,280
 532.108356602 25.80859375 532.108356602 25.80859375 539.276367188 25.80859375 c 0,281,282
 549.642333984 25.80859375 549.642333984 25.80859375 556.980834961 18.4700927734 c 128,-1,283
 564.319335938 11.1315917969 564.319335938 11.1315917969 564.319335938 0.765625 c 0,284,285
 564.319335938 -13.1291861513 564.319335938 -13.1291861513 552.5 -20.5 c 0,286,287
 514.811534405 -45.5 514.811534405 -45.5 469.5859375 -45.5 c 0,288,289
 469.40228858 -45.500493492 469.40228858 -45.500493492 469.163007765 -45.4733912773 c 0,290,291
 420.437788732 -45.4462890625 420.437788732 -45.4462890625 382.5 -15.5 c 0,292,293
 373.762695312 -8.02747266621 373.762695312 -8.02747266621 373.762695312 3.494140625 c 0,294,295
 373.762695312 13.8432617188 373.762695312 13.8432617188 381.088623047 21.1691894531 c 128,-1,296
 388.414550781 28.4951171875 388.414550781 28.4951171875 398.763671875 28.4951171875 c 0,297,298
 407.989770208 28.4951171875 407.989770208 28.4951171875 415 22.5 c 0,299,300
 439.723506077 4.4140625 439.723506077 4.4140625 470.583007812 4.4140625 c 128,-1,301
 501.276493923 4.4140625 501.276493923 4.4140625 526 22.5 c 0,279,280
380.5 136 m 0,302,303
 381.18359375 132.905130265 381.18359375 132.905130265 381.18359375 129.776367188 c 0,304,305
 381.18359375 128.130134829 381.18359375 128.130134829 381 126.5 c 0,306,307
 379.536283134 116.605568197 379.536283134 116.605568197 372.5 109.5 c 0,308,309
 363.211411746 100.105644341 363.211411746 100.105644341 350 100 c 0,310,311
 342.756855698 100.341603129 342.756855698 100.341603129 336.5 104 c 0,312,313
 329.047050506 106.100870841 329.047050506 106.100870841 323.5 111.5 c 0,314,315
 317.498046875 117.625086303 317.498046875 117.625086303 317.498046875 126.193359375 c 0,316,317
 317.498046875 126.347167969 317.498046875 126.347167969 317.5 126.5 c 0,318,319
 316.934570312 129.345004112 316.934570312 129.345004112 316.934570312 132.2265625 c 128,-1,320
 316.934570312 135.154995888 316.934570312 135.154995888 317.5 138 c 0,321,322
 318.200173325 143.00165394 318.200173325 143.00165394 320.5 147.5 c 0,323,324
 328.710188901 162.765669006 328.710188901 162.765669006 346 164 c 0,325,326
 349.681222641 165.15234375 349.681222641 165.15234375 353.63671875 165.15234375 c 0,327,328
 362.190378662 165.15234375 362.190378662 165.15234375 369 160 c 0,329,330
 380.533203125 151.613093292 380.533203125 151.613093292 380.533203125 137.374023438 c 0,331,332
 380.533203125 136.682617188 380.533203125 136.682617188 380.5 136 c 0,302,303
597 164 m 0,333,334
 600.88288835 165.234375 600.88288835 165.234375 605.043945312 165.234375 c 0,335,336
 614.275467687 165.234375 614.275467687 165.234375 621.5 159.5 c 0,337,338
 633.006835938 150.643038652 633.006835938 150.643038652 633.006835938 136.133789062 c 0,339,340
 632.447859735 130.808260748 632.447859735 130.808260748 630.5 126.5 c 0,341,342
 629.301866689 116.680005409 629.301866689 116.680005409 622.5 109.5 c 0,343,344
 613.211411746 100.105644341 613.211411746 100.105644341 600 100 c 0,345,346
 594 101 594 101 588 104 c 0,347,348
 580.547050506 106.100870841 580.547050506 106.100870841 575 111.5 c 0,349,350
 568.978515625 117.258578955 568.978515625 117.258578955 568.978515625 125.578125 c 0,351,352
 568.271484375 129.319819206 568.271484375 129.319819206 568.271484375 132.241210938 c 128,-1,353
 568.271484375 135.180180794 568.271484375 135.180180794 569 138 c 0,354,355
 573 162 573 162 597 164 c 0,333,334
EndSplineSet
Validated: 3109
LCarets2: 3 0 0 0
Ligature2: "'liga' Standard-Ligaturen-1" m a l e
Ligature2: "'liga' Standard-Ligaturen-1" f a c e
EndChar

StartChar: NameMe.562
Encoding: 562 -1 498
Width: 1000
LayerCount: 2
Fore
SplineSet
895 600 m 0,0,1
 942 520 942 520 962.5 447.5 c 128,-1,2
 983 375 983 375 982.5 311.5 c 128,-1,3
 982 248 982 248 980 165 c 1,4,5
 970 35 970 35 970 -80 c 0,6,7
 970 -100 970 -100 965 -100 c 0,8,9
 962 -100 962 -100 955 -102.5 c 128,-1,10
 948 -105 948 -105 945 -105 c 0,11,12
 850 -105 850 -105 810 -85 c 0,13,14
 801 -82 801 -82 789.5 -80.5 c 128,-1,15
 778 -79 778 -79 769 -79 c 128,-1,16
 760 -79 760 -79 749 -79.5 c 128,-1,17
 738 -80 738 -80 735 -80 c 0,18,19
 728 -88 728 -88 715 -75 c 0,20,21
 705 -70 705 -70 705 -55 c 2,22,-1
 705 -40 l 2,23,24
 705 -33 705 -33 707.5 -14.5 c 128,-1,25
 710 4 710 4 710 15 c 1,26,27
 665 -10 665 -10 600 -35 c 0,28,29
 525 -60 525 -60 460 -60 c 0,30,31
 388 -60 388 -60 335 -40 c 0,32,33
 296 -27 296 -27 260 0 c 1,34,35
 265 -20 265 -20 265 -50 c 0,36,37
 265 -65 265 -65 260 -70 c 0,38,39
 250 -80 250 -80 240 -80 c 2,40,-1
 140 -80 l 2,41,42
 132 -80 132 -80 116.5 -89.5 c 128,-1,43
 101 -99 101 -99 90 -110 c 1,44,45
 72 -119 72 -119 65 -115 c 0,46,47
 64 -114 64 -114 59 -110 c 128,-1,48
 54 -106 54 -106 52 -103 c 128,-1,49
 50 -100 50 -100 50 -95 c 0,50,51
 43 -67 43 -67 34 -12 c 128,-1,52
 25 43 25 43 13 146.5 c 128,-1,53
 1 250 1 250 13 353 c 128,-1,54
 25 456 25 456 65 520 c 1,55,-1
 70 530 l 2,56,57
 86 556 86 556 97.5 573.5 c 128,-1,58
 109 591 109 591 133 620.5 c 128,-1,59
 157 650 157 650 179.5 669 c 128,-1,60
 202 688 202 688 236.5 708.5 c 128,-1,61
 271 729 271 729 307 737.5 c 128,-1,62
 343 746 343 746 390.5 745 c 128,-1,63
 438 744 438 744 490 730 c 1,64,65
 509 736 509 736 539 741.5 c 128,-1,66
 569 747 569 747 620 746.5 c 128,-1,67
 671 746 671 746 718 735 c 128,-1,68
 765 724 765 724 814.5 689.5 c 128,-1,69
 864 655 864 655 895 600 c 0,0,1
585 5 m 0,70,71
 638 22 638 22 720 75 c 1,72,73
 720 205 720 205 705 265 c 1,74,-1
 705 270 l 1,75,76
 675 270 675 270 645 285 c 0,77,78
 562 327 562 327 505 440 c 1,79,80
 431 329 431 329 360 280 c 0,81,82
 304 245 304 245 250 245 c 1,83,-1
 250 235 l 1,84,85
 245 180 245 180 255 80 c 1,86,87
 280 51 280 51 300 35 c 128,-1,88
 320 19 320 19 355 5 c 0,89,90
 452 -37 452 -37 585 5 c 0,70,71
925 155 m 0,91,92
 930 241 930 241 930 305 c 128,-1,93
 930 369 930 369 911.5 435 c 128,-1,94
 893 501 893 501 850 575 c 0,95,96
 833 603 833 603 810.5 624.5 c 128,-1,97
 788 646 788 646 763.5 659 c 128,-1,98
 739 672 739 672 712.5 680 c 128,-1,99
 686 688 686 688 660 690.5 c 128,-1,100
 634 693 634 693 610.5 693.5 c 128,-1,101
 587 694 587 694 566 691.5 c 128,-1,102
 545 689 545 689 530 686.5 c 128,-1,103
 515 684 515 684 505 682 c 2,104,-1
 495 680 l 1,105,-1
 480 680 l 1,106,107
 434 693 434 693 392.5 694.5 c 128,-1,108
 351 696 351 696 320 689.5 c 128,-1,109
 289 683 289 683 259 664.5 c 128,-1,110
 229 646 229 646 210 630 c 128,-1,111
 191 614 191 614 169 586 c 128,-1,112
 147 558 147 558 136.5 542.5 c 128,-1,113
 126 527 126 527 110 500 c 1,114,-1
 105 495 l 1,115,116
 10 348 10 348 85 -45 c 1,117,118
 130 -30 130 -30 135 -30 c 2,119,-1
 220 -30 l 1,120,121
 218 -20 218 -20 215 0 c 128,-1,122
 212 20 212 20 210 30 c 0,123,124
 189 154 189 154 200 235 c 1,125,-1
 200 240 l 1,126,-1
 165 250 l 2,127,128
 142.5 257.5 142.5 257.5 150 280 c 128,-1,129
 157.5 302.5 157.5 302.5 180 295 c 0,130,131
 184 291 184 291 203.5 287.5 c 128,-1,132
 223 284 223 284 258.5 289.5 c 128,-1,133
 294 295 294 295 325 315 c 0,134,135
 367 344 367 344 404.5 390 c 128,-1,136
 442 436 442 436 458.5 468 c 2,137,-1
 475 500 l 2,138,139
 482.5 515 482.5 515 505 515 c 0,140,141
 518 515 518 515 525 500 c 0,142,143
 527 495 527 495 530.5 486 c 128,-1,144
 534 477 534 477 546.5 452 c 128,-1,145
 559 427 559 427 573.5 405.5 c 128,-1,146
 588 384 588 384 611.5 361 c 128,-1,147
 635 338 635 338 660 325 c 0,148,149
 691 314 691 314 717.5 315 c 128,-1,150
 744 316 744 316 762 323 c 2,151,-1
 780 330 l 2,152,153
 791 334 791 334 801 331 c 128,-1,154
 811 328 811 328 815 320 c 0,155,156
 819 309 819 309 816 299 c 128,-1,157
 813 289 813 289 805 285 c 0,158,159
 803 285 803 285 795.5 281 c 128,-1,160
 788 277 788 277 774 272 c 128,-1,161
 760 267 760 267 745 265 c 1,162,163
 750 246 750 246 753 224 c 128,-1,164
 756 202 756 202 758 186 c 128,-1,165
 760 170 760 170 760.5 144 c 128,-1,166
 761 118 761 118 761.5 106 c 128,-1,167
 762 94 762 94 760.5 65 c 128,-1,168
 759 36 759 36 759 30 c 128,-1,169
 759 24 759 24 757 -7.5 c 128,-1,170
 755 -39 755 -39 755 -40 c 1,171,172
 792 -40 792 -40 830 -55 c 0,173,174
 860 -70 860 -70 915 -70 c 1,175,176
 915 25 915 25 925 155 c 0,91,92
505 100 m 1,177,178
 523 106 523 106 545 95 c 1,179,180
 549 88 549 88 545.5 76 c 128,-1,181
 542 64 542 64 535 60 c 0,182,183
 504 35 504 35 460 35 c 0,184,185
 418 35 418 35 380 60 c 0,186,187
 356 76 356 76 375 95 c 1,188,189
 391 119 391 119 410 100 c 0,190,191
 415 95 415 95 425.5 89.5 c 128,-1,192
 436 84 436 84 459.5 84 c 128,-1,193
 483 84 483 84 505 100 c 1,177,178
380 195 m 2,194,-1
 380 185 l 2,195,196
 380 175 380 175 375 170 c 0,197,198
 365 160 365 160 355 160 c 0,199,200
 352 160 352 160 347 162.5 c 128,-1,201
 342 165 342 165 340 165 c 0,202,203
 335 165 335 165 330 170 c 128,-1,204
 325 175 325 175 325 185 c 2,205,-1
 325 195 l 1,206,207
 330 200 330 200 330 205 c 0,208,209
 330 220 330 220 350 220 c 0,210,211
 365 220 365 220 370 215 c 0,212,213
 380 205 380 205 380 195 c 2,194,-1
570 220 m 0,214,215
 585 220 585 220 585 215 c 0,216,217
 595 205 595 205 595 195 c 2,218,-1
 595 185 l 2,219,220
 595 175 595 175 590 170 c 0,221,222
 580 160 580 160 570 160 c 0,223,224
 568 160 568 160 563 162.5 c 128,-1,225
 558 165 558 165 555 165 c 0,226,227
 550 165 550 165 545 170 c 128,-1,228
 540 175 540 175 540 185 c 2,229,-1
 540 195 l 1,230,231
 545 200 545 200 545 205 c 0,232,233
 552 220 552 220 570 220 c 0,214,215
EndSplineSet
Validated: 1057
Ligature2: "'liga' Standard-Ligaturen-1" f e m a l e
EndChar

